<?xml version="1.0" encoding="utf-8" standalone="no"?>
<!DOCTYPE svg PUBLIC "-//W3C//DTD SVG 1.1//EN"
  "http://www.w3.org/Graphics/SVG/1.1/DTD/svg11.dtd">
<svg xmlns:xlink="http://www.w3.org/1999/xlink" width="849.764375pt" height="410.709844pt" viewBox="0 0 849.764375 410.709844" xmlns="http://www.w3.org/2000/svg" version="1.1">
 <metadata>
  <rdf:RDF xmlns:dc="http://purl.org/dc/elements/1.1/" xmlns:cc="http://creativecommons.org/ns#" xmlns:rdf="http://www.w3.org/1999/02/22-rdf-syntax-ns#">
   <cc:Work>
    <dc:type rdf:resource="http://purl.org/dc/dcmitype/StillImage"/>
    <dc:date>2025-06-27T16:50:26.036779</dc:date>
    <dc:format>image/svg+xml</dc:format>
    <dc:creator>
     <cc:Agent>
      <dc:title>Matplotlib v3.10.3, https://matplotlib.org/</dc:title>
     </cc:Agent>
    </dc:creator>
   </cc:Work>
  </rdf:RDF>
 </metadata>
 <defs>
  <style type="text/css">*{stroke-linejoin: round; stroke-linecap: butt}</style>
 </defs>
 <g id="figure_1">
  <g id="patch_1">
   <path d="M 0 410.709844 
L 849.764375 410.709844 
L 849.764375 0 
L 0 0 
z
" style="fill: #e8f1f2"/>
  </g>
  <g id="axes_1">
   <g id="patch_2">
    <path d="M 54.164375 361.775625 
L 835.364375 361.775625 
L 835.364375 29.135625 
L 54.164375 29.135625 
z
" style="fill: #e8f1f2"/>
   </g>
   <g id="line2d_1">
    <path d="M 54.164375 174.728575 
L 835.364375 174.728575 
" clip-path="url(#pcdd230ba44)" style="fill: none; stroke-dasharray: 4.44,1.92; stroke-dashoffset: 0; stroke: #4c72b0; stroke-width: 1.2"/>
   </g>
   <g id="line2d_2">
    <path d="M 54.164375 325.23513 
L 835.364375 325.23513 
" clip-path="url(#pcdd230ba44)" style="fill: none; stroke-dasharray: 4.44,1.92; stroke-dashoffset: 0; stroke: #dd8452; stroke-width: 1.2"/>
   </g>
   <g id="line2d_3">
    <path d="M 54.164375 243.854026 
L 835.364375 243.854026 
" clip-path="url(#pcdd230ba44)" style="fill: none; stroke-dasharray: 4.44,1.92; stroke-dashoffset: 0; stroke: #55a868; stroke-width: 1.2"/>
   </g>
   <g id="line2d_4">
    <path d="M 54.164375 231.878554 
L 835.364375 231.878554 
" clip-path="url(#pcdd230ba44)" style="fill: none; stroke-dasharray: 4.44,1.92; stroke-dashoffset: 0; stroke: #c44e52; stroke-width: 1.2"/>
   </g>
   <g id="line2d_5">
    <path d="M 54.164375 304.416269 
L 835.364375 304.416269 
" clip-path="url(#pcdd230ba44)" style="fill: none; stroke-dasharray: 4.44,1.92; stroke-dashoffset: 0; stroke: #8172b3; stroke-width: 1.2"/>
   </g>
   <g id="matplotlib.axis_1">
    <g id="xtick_1">
     <g id="line2d_6">
      <path d="M 54.164375 361.775625 
L 54.164375 29.135625 
" clip-path="url(#pcdd230ba44)" style="fill: none; stroke-dasharray: 3.7,1.6; stroke-dashoffset: 0; stroke: #cccccc; stroke-opacity: 0.5"/>
     </g>
     <g id="text_1">
      <!-- 0 -->
      <g style="fill: #033164" transform="translate(51.105859 379.149219) scale(0.11 -0.11)">
       <defs>
        <path id="ArialMT-30" d="M 266 2259 
Q 266 3072 433 3567 
Q 600 4063 929 4331 
Q 1259 4600 1759 4600 
Q 2128 4600 2406 4451 
Q 2684 4303 2865 4023 
Q 3047 3744 3150 3342 
Q 3253 2941 3253 2259 
Q 3253 1453 3087 958 
Q 2922 463 2592 192 
Q 2263 -78 1759 -78 
Q 1097 -78 719 397 
Q 266 969 266 2259 
z
M 844 2259 
Q 844 1131 1108 757 
Q 1372 384 1759 384 
Q 2147 384 2411 759 
Q 2675 1134 2675 2259 
Q 2675 3391 2411 3762 
Q 2147 4134 1753 4134 
Q 1366 4134 1134 3806 
Q 844 3388 844 2259 
z
" transform="scale(0.015625)"/>
       </defs>
       <use xlink:href="#ArialMT-30"/>
      </g>
     </g>
    </g>
    <g id="xtick_2">
     <g id="line2d_7">
      <path d="M 162.664375 361.775625 
L 162.664375 29.135625 
" clip-path="url(#pcdd230ba44)" style="fill: none; stroke-dasharray: 3.7,1.6; stroke-dashoffset: 0; stroke: #cccccc; stroke-opacity: 0.5"/>
     </g>
     <g id="text_2">
      <!-- 5 -->
      <g style="fill: #033164" transform="translate(159.605859 379.149219) scale(0.11 -0.11)">
       <defs>
        <path id="ArialMT-35" d="M 266 1200 
L 856 1250 
Q 922 819 1161 601 
Q 1400 384 1738 384 
Q 2144 384 2425 690 
Q 2706 997 2706 1503 
Q 2706 1984 2436 2262 
Q 2166 2541 1728 2541 
Q 1456 2541 1237 2417 
Q 1019 2294 894 2097 
L 366 2166 
L 809 4519 
L 3088 4519 
L 3088 3981 
L 1259 3981 
L 1013 2750 
Q 1425 3038 1878 3038 
Q 2478 3038 2890 2622 
Q 3303 2206 3303 1553 
Q 3303 931 2941 478 
Q 2500 -78 1738 -78 
Q 1113 -78 717 272 
Q 322 622 266 1200 
z
" transform="scale(0.015625)"/>
       </defs>
       <use xlink:href="#ArialMT-35"/>
      </g>
     </g>
    </g>
    <g id="xtick_3">
     <g id="line2d_8">
      <path d="M 271.164375 361.775625 
L 271.164375 29.135625 
" clip-path="url(#pcdd230ba44)" style="fill: none; stroke-dasharray: 3.7,1.6; stroke-dashoffset: 0; stroke: #cccccc; stroke-opacity: 0.5"/>
     </g>
     <g id="text_3">
      <!-- 10 -->
      <g style="fill: #033164" transform="translate(265.047344 379.149219) scale(0.11 -0.11)">
       <defs>
        <path id="ArialMT-31" d="M 2384 0 
L 1822 0 
L 1822 3584 
Q 1619 3391 1289 3197 
Q 959 3003 697 2906 
L 697 3450 
Q 1169 3672 1522 3987 
Q 1875 4303 2022 4600 
L 2384 4600 
L 2384 0 
z
" transform="scale(0.015625)"/>
       </defs>
       <use xlink:href="#ArialMT-31"/>
       <use xlink:href="#ArialMT-30" transform="translate(55.615234 0)"/>
      </g>
     </g>
    </g>
    <g id="xtick_4">
     <g id="line2d_9">
      <path d="M 379.664375 361.775625 
L 379.664375 29.135625 
" clip-path="url(#pcdd230ba44)" style="fill: none; stroke-dasharray: 3.7,1.6; stroke-dashoffset: 0; stroke: #cccccc; stroke-opacity: 0.5"/>
     </g>
     <g id="text_4">
      <!-- 15 -->
      <g style="fill: #033164" transform="translate(373.547344 379.149219) scale(0.11 -0.11)">
       <use xlink:href="#ArialMT-31"/>
       <use xlink:href="#ArialMT-35" transform="translate(55.615234 0)"/>
      </g>
     </g>
    </g>
    <g id="xtick_5">
     <g id="line2d_10">
      <path d="M 488.164375 361.775625 
L 488.164375 29.135625 
" clip-path="url(#pcdd230ba44)" style="fill: none; stroke-dasharray: 3.7,1.6; stroke-dashoffset: 0; stroke: #cccccc; stroke-opacity: 0.5"/>
     </g>
     <g id="text_5">
      <!-- 20 -->
      <g style="fill: #033164" transform="translate(482.047344 379.149219) scale(0.11 -0.11)">
       <defs>
        <path id="ArialMT-32" d="M 3222 541 
L 3222 0 
L 194 0 
Q 188 203 259 391 
Q 375 700 629 1000 
Q 884 1300 1366 1694 
Q 2113 2306 2375 2664 
Q 2638 3022 2638 3341 
Q 2638 3675 2398 3904 
Q 2159 4134 1775 4134 
Q 1369 4134 1125 3890 
Q 881 3647 878 3216 
L 300 3275 
Q 359 3922 746 4261 
Q 1134 4600 1788 4600 
Q 2447 4600 2831 4234 
Q 3216 3869 3216 3328 
Q 3216 3053 3103 2787 
Q 2991 2522 2730 2228 
Q 2469 1934 1863 1422 
Q 1356 997 1212 845 
Q 1069 694 975 541 
L 3222 541 
z
" transform="scale(0.015625)"/>
       </defs>
       <use xlink:href="#ArialMT-32"/>
       <use xlink:href="#ArialMT-30" transform="translate(55.615234 0)"/>
      </g>
     </g>
    </g>
    <g id="xtick_6">
     <g id="line2d_11">
      <path d="M 596.664375 361.775625 
L 596.664375 29.135625 
" clip-path="url(#pcdd230ba44)" style="fill: none; stroke-dasharray: 3.7,1.6; stroke-dashoffset: 0; stroke: #cccccc; stroke-opacity: 0.5"/>
     </g>
     <g id="text_6">
      <!-- 25 -->
      <g style="fill: #033164" transform="translate(590.547344 379.149219) scale(0.11 -0.11)">
       <use xlink:href="#ArialMT-32"/>
       <use xlink:href="#ArialMT-35" transform="translate(55.615234 0)"/>
      </g>
     </g>
    </g>
    <g id="xtick_7">
     <g id="line2d_12">
      <path d="M 705.164375 361.775625 
L 705.164375 29.135625 
" clip-path="url(#pcdd230ba44)" style="fill: none; stroke-dasharray: 3.7,1.6; stroke-dashoffset: 0; stroke: #cccccc; stroke-opacity: 0.5"/>
     </g>
     <g id="text_7">
      <!-- 30 -->
      <g style="fill: #033164" transform="translate(699.047344 379.149219) scale(0.11 -0.11)">
       <defs>
        <path id="ArialMT-33" d="M 269 1209 
L 831 1284 
Q 928 806 1161 595 
Q 1394 384 1728 384 
Q 2125 384 2398 659 
Q 2672 934 2672 1341 
Q 2672 1728 2419 1979 
Q 2166 2231 1775 2231 
Q 1616 2231 1378 2169 
L 1441 2663 
Q 1497 2656 1531 2656 
Q 1891 2656 2178 2843 
Q 2466 3031 2466 3422 
Q 2466 3731 2256 3934 
Q 2047 4138 1716 4138 
Q 1388 4138 1169 3931 
Q 950 3725 888 3313 
L 325 3413 
Q 428 3978 793 4289 
Q 1159 4600 1703 4600 
Q 2078 4600 2393 4439 
Q 2709 4278 2876 4000 
Q 3044 3722 3044 3409 
Q 3044 3113 2884 2869 
Q 2725 2625 2413 2481 
Q 2819 2388 3044 2092 
Q 3269 1797 3269 1353 
Q 3269 753 2831 336 
Q 2394 -81 1725 -81 
Q 1122 -81 723 278 
Q 325 638 269 1209 
z
" transform="scale(0.015625)"/>
       </defs>
       <use xlink:href="#ArialMT-33"/>
       <use xlink:href="#ArialMT-30" transform="translate(55.615234 0)"/>
      </g>
     </g>
    </g>
    <g id="xtick_8">
     <g id="line2d_13">
      <path d="M 813.664375 361.775625 
L 813.664375 29.135625 
" clip-path="url(#pcdd230ba44)" style="fill: none; stroke-dasharray: 3.7,1.6; stroke-dashoffset: 0; stroke: #cccccc; stroke-opacity: 0.5"/>
     </g>
     <g id="text_8">
      <!-- 35 -->
      <g style="fill: #033164" transform="translate(807.547344 379.149219) scale(0.11 -0.11)">
       <use xlink:href="#ArialMT-33"/>
       <use xlink:href="#ArialMT-35" transform="translate(55.615234 0)"/>
      </g>
     </g>
    </g>
    <g id="text_9">
     <!-- Match Week -->
     <g style="fill: #033164" transform="translate(411.528125 393.924844) scale(0.12 -0.12)">
      <defs>
       <path id="ArialMT-4d" d="M 475 0 
L 475 4581 
L 1388 4581 
L 2472 1338 
Q 2622 884 2691 659 
Q 2769 909 2934 1394 
L 4031 4581 
L 4847 4581 
L 4847 0 
L 4263 0 
L 4263 3834 
L 2931 0 
L 2384 0 
L 1059 3900 
L 1059 0 
L 475 0 
z
" transform="scale(0.015625)"/>
       <path id="ArialMT-61" d="M 2588 409 
Q 2275 144 1986 34 
Q 1697 -75 1366 -75 
Q 819 -75 525 192 
Q 231 459 231 875 
Q 231 1119 342 1320 
Q 453 1522 633 1644 
Q 813 1766 1038 1828 
Q 1203 1872 1538 1913 
Q 2219 1994 2541 2106 
Q 2544 2222 2544 2253 
Q 2544 2597 2384 2738 
Q 2169 2928 1744 2928 
Q 1347 2928 1158 2789 
Q 969 2650 878 2297 
L 328 2372 
Q 403 2725 575 2942 
Q 747 3159 1072 3276 
Q 1397 3394 1825 3394 
Q 2250 3394 2515 3294 
Q 2781 3194 2906 3042 
Q 3031 2891 3081 2659 
Q 3109 2516 3109 2141 
L 3109 1391 
Q 3109 606 3145 398 
Q 3181 191 3288 0 
L 2700 0 
Q 2613 175 2588 409 
z
M 2541 1666 
Q 2234 1541 1622 1453 
Q 1275 1403 1131 1340 
Q 988 1278 909 1158 
Q 831 1038 831 891 
Q 831 666 1001 516 
Q 1172 366 1500 366 
Q 1825 366 2078 508 
Q 2331 650 2450 897 
Q 2541 1088 2541 1459 
L 2541 1666 
z
" transform="scale(0.015625)"/>
       <path id="ArialMT-74" d="M 1650 503 
L 1731 6 
Q 1494 -44 1306 -44 
Q 1000 -44 831 53 
Q 663 150 594 308 
Q 525 466 525 972 
L 525 2881 
L 113 2881 
L 113 3319 
L 525 3319 
L 525 4141 
L 1084 4478 
L 1084 3319 
L 1650 3319 
L 1650 2881 
L 1084 2881 
L 1084 941 
Q 1084 700 1114 631 
Q 1144 563 1211 522 
Q 1278 481 1403 481 
Q 1497 481 1650 503 
z
" transform="scale(0.015625)"/>
       <path id="ArialMT-63" d="M 2588 1216 
L 3141 1144 
Q 3050 572 2676 248 
Q 2303 -75 1759 -75 
Q 1078 -75 664 370 
Q 250 816 250 1647 
Q 250 2184 428 2587 
Q 606 2991 970 3192 
Q 1334 3394 1763 3394 
Q 2303 3394 2647 3120 
Q 2991 2847 3088 2344 
L 2541 2259 
Q 2463 2594 2264 2762 
Q 2066 2931 1784 2931 
Q 1359 2931 1093 2626 
Q 828 2322 828 1663 
Q 828 994 1084 691 
Q 1341 388 1753 388 
Q 2084 388 2306 591 
Q 2528 794 2588 1216 
z
" transform="scale(0.015625)"/>
       <path id="ArialMT-68" d="M 422 0 
L 422 4581 
L 984 4581 
L 984 2938 
Q 1378 3394 1978 3394 
Q 2347 3394 2619 3248 
Q 2891 3103 3008 2847 
Q 3125 2591 3125 2103 
L 3125 0 
L 2563 0 
L 2563 2103 
Q 2563 2525 2380 2717 
Q 2197 2909 1863 2909 
Q 1613 2909 1392 2779 
Q 1172 2650 1078 2428 
Q 984 2206 984 1816 
L 984 0 
L 422 0 
z
" transform="scale(0.015625)"/>
       <path id="ArialMT-20" transform="scale(0.015625)"/>
       <path id="ArialMT-57" d="M 1294 0 
L 78 4581 
L 700 4581 
L 1397 1578 
Q 1509 1106 1591 641 
Q 1766 1375 1797 1488 
L 2669 4581 
L 3400 4581 
L 4056 2263 
Q 4303 1400 4413 641 
Q 4500 1075 4641 1638 
L 5359 4581 
L 5969 4581 
L 4713 0 
L 4128 0 
L 3163 3491 
Q 3041 3928 3019 4028 
Q 2947 3713 2884 3491 
L 1913 0 
L 1294 0 
z
" transform="scale(0.015625)"/>
       <path id="ArialMT-65" d="M 2694 1069 
L 3275 997 
Q 3138 488 2766 206 
Q 2394 -75 1816 -75 
Q 1088 -75 661 373 
Q 234 822 234 1631 
Q 234 2469 665 2931 
Q 1097 3394 1784 3394 
Q 2450 3394 2872 2941 
Q 3294 2488 3294 1666 
Q 3294 1616 3291 1516 
L 816 1516 
Q 847 969 1125 678 
Q 1403 388 1819 388 
Q 2128 388 2347 550 
Q 2566 713 2694 1069 
z
M 847 1978 
L 2700 1978 
Q 2663 2397 2488 2606 
Q 2219 2931 1791 2931 
Q 1403 2931 1139 2672 
Q 875 2413 847 1978 
z
" transform="scale(0.015625)"/>
       <path id="ArialMT-6b" d="M 425 0 
L 425 4581 
L 988 4581 
L 988 1969 
L 2319 3319 
L 3047 3319 
L 1778 2088 
L 3175 0 
L 2481 0 
L 1384 1697 
L 988 1316 
L 988 0 
L 425 0 
z
" transform="scale(0.015625)"/>
      </defs>
      <use xlink:href="#ArialMT-4d"/>
      <use xlink:href="#ArialMT-61" transform="translate(83.300781 0)"/>
      <use xlink:href="#ArialMT-74" transform="translate(138.916016 0)"/>
      <use xlink:href="#ArialMT-63" transform="translate(166.699219 0)"/>
      <use xlink:href="#ArialMT-68" transform="translate(216.699219 0)"/>
      <use xlink:href="#ArialMT-20" transform="translate(272.314453 0)"/>
      <use xlink:href="#ArialMT-57" transform="translate(300.097656 0)"/>
      <use xlink:href="#ArialMT-65" transform="translate(392.732422 0)"/>
      <use xlink:href="#ArialMT-65" transform="translate(448.347656 0)"/>
      <use xlink:href="#ArialMT-6b" transform="translate(503.962891 0)"/>
     </g>
    </g>
   </g>
   <g id="matplotlib.axis_2">
    <g id="ytick_1">
     <g id="line2d_14">
      <path d="M 54.164375 351.130987 
L 835.364375 351.130987 
" clip-path="url(#pcdd230ba44)" style="fill: none; stroke-dasharray: 3.7,1.6; stroke-dashoffset: 0; stroke: #cccccc; stroke-opacity: 0.5"/>
     </g>
     <g id="text_10">
      <!-- 0.0 -->
      <g style="fill: #033164" transform="translate(29.374375 355.067784) scale(0.11 -0.11)">
       <defs>
        <path id="ArialMT-2e" d="M 581 0 
L 581 641 
L 1222 641 
L 1222 0 
L 581 0 
z
" transform="scale(0.015625)"/>
       </defs>
       <use xlink:href="#ArialMT-30"/>
       <use xlink:href="#ArialMT-2e" transform="translate(55.615234 0)"/>
       <use xlink:href="#ArialMT-30" transform="translate(83.398438 0)"/>
      </g>
     </g>
    </g>
    <g id="ytick_2">
     <g id="line2d_15">
      <path d="M 54.164375 305.494815 
L 835.364375 305.494815 
" clip-path="url(#pcdd230ba44)" style="fill: none; stroke-dasharray: 3.7,1.6; stroke-dashoffset: 0; stroke: #cccccc; stroke-opacity: 0.5"/>
     </g>
     <g id="text_11">
      <!-- 0.2 -->
      <g style="fill: #033164" transform="translate(29.374375 309.431612) scale(0.11 -0.11)">
       <use xlink:href="#ArialMT-30"/>
       <use xlink:href="#ArialMT-2e" transform="translate(55.615234 0)"/>
       <use xlink:href="#ArialMT-32" transform="translate(83.398438 0)"/>
      </g>
     </g>
    </g>
    <g id="ytick_3">
     <g id="line2d_16">
      <path d="M 54.164375 259.858642 
L 835.364375 259.858642 
" clip-path="url(#pcdd230ba44)" style="fill: none; stroke-dasharray: 3.7,1.6; stroke-dashoffset: 0; stroke: #cccccc; stroke-opacity: 0.5"/>
     </g>
     <g id="text_12">
      <!-- 0.4 -->
      <g style="fill: #033164" transform="translate(29.374375 263.795439) scale(0.11 -0.11)">
       <defs>
        <path id="ArialMT-34" d="M 2069 0 
L 2069 1097 
L 81 1097 
L 81 1613 
L 2172 4581 
L 2631 4581 
L 2631 1613 
L 3250 1613 
L 3250 1097 
L 2631 1097 
L 2631 0 
L 2069 0 
z
M 2069 1613 
L 2069 3678 
L 634 1613 
L 2069 1613 
z
" transform="scale(0.015625)"/>
       </defs>
       <use xlink:href="#ArialMT-30"/>
       <use xlink:href="#ArialMT-2e" transform="translate(55.615234 0)"/>
       <use xlink:href="#ArialMT-34" transform="translate(83.398438 0)"/>
      </g>
     </g>
    </g>
    <g id="ytick_4">
     <g id="line2d_17">
      <path d="M 54.164375 214.222469 
L 835.364375 214.222469 
" clip-path="url(#pcdd230ba44)" style="fill: none; stroke-dasharray: 3.7,1.6; stroke-dashoffset: 0; stroke: #cccccc; stroke-opacity: 0.5"/>
     </g>
     <g id="text_13">
      <!-- 0.6 -->
      <g style="fill: #033164" transform="translate(29.374375 218.159266) scale(0.11 -0.11)">
       <defs>
        <path id="ArialMT-36" d="M 3184 3459 
L 2625 3416 
Q 2550 3747 2413 3897 
Q 2184 4138 1850 4138 
Q 1581 4138 1378 3988 
Q 1113 3794 959 3422 
Q 806 3050 800 2363 
Q 1003 2672 1297 2822 
Q 1591 2972 1913 2972 
Q 2475 2972 2870 2558 
Q 3266 2144 3266 1488 
Q 3266 1056 3080 686 
Q 2894 316 2569 119 
Q 2244 -78 1831 -78 
Q 1128 -78 684 439 
Q 241 956 241 2144 
Q 241 3472 731 4075 
Q 1159 4600 1884 4600 
Q 2425 4600 2770 4297 
Q 3116 3994 3184 3459 
z
M 888 1484 
Q 888 1194 1011 928 
Q 1134 663 1356 523 
Q 1578 384 1822 384 
Q 2178 384 2434 671 
Q 2691 959 2691 1453 
Q 2691 1928 2437 2201 
Q 2184 2475 1800 2475 
Q 1419 2475 1153 2201 
Q 888 1928 888 1484 
z
" transform="scale(0.015625)"/>
       </defs>
       <use xlink:href="#ArialMT-30"/>
       <use xlink:href="#ArialMT-2e" transform="translate(55.615234 0)"/>
       <use xlink:href="#ArialMT-36" transform="translate(83.398438 0)"/>
      </g>
     </g>
    </g>
    <g id="ytick_5">
     <g id="line2d_18">
      <path d="M 54.164375 168.586297 
L 835.364375 168.586297 
" clip-path="url(#pcdd230ba44)" style="fill: none; stroke-dasharray: 3.7,1.6; stroke-dashoffset: 0; stroke: #cccccc; stroke-opacity: 0.5"/>
     </g>
     <g id="text_14">
      <!-- 0.8 -->
      <g style="fill: #033164" transform="translate(29.374375 172.523094) scale(0.11 -0.11)">
       <defs>
        <path id="ArialMT-38" d="M 1131 2484 
Q 781 2613 612 2850 
Q 444 3088 444 3419 
Q 444 3919 803 4259 
Q 1163 4600 1759 4600 
Q 2359 4600 2725 4251 
Q 3091 3903 3091 3403 
Q 3091 3084 2923 2848 
Q 2756 2613 2416 2484 
Q 2838 2347 3058 2040 
Q 3278 1734 3278 1309 
Q 3278 722 2862 322 
Q 2447 -78 1769 -78 
Q 1091 -78 675 323 
Q 259 725 259 1325 
Q 259 1772 486 2073 
Q 713 2375 1131 2484 
z
M 1019 3438 
Q 1019 3113 1228 2906 
Q 1438 2700 1772 2700 
Q 2097 2700 2305 2904 
Q 2513 3109 2513 3406 
Q 2513 3716 2298 3927 
Q 2084 4138 1766 4138 
Q 1444 4138 1231 3931 
Q 1019 3725 1019 3438 
z
M 838 1322 
Q 838 1081 952 856 
Q 1066 631 1291 507 
Q 1516 384 1775 384 
Q 2178 384 2440 643 
Q 2703 903 2703 1303 
Q 2703 1709 2433 1975 
Q 2163 2241 1756 2241 
Q 1359 2241 1098 1978 
Q 838 1716 838 1322 
z
" transform="scale(0.015625)"/>
       </defs>
       <use xlink:href="#ArialMT-30"/>
       <use xlink:href="#ArialMT-2e" transform="translate(55.615234 0)"/>
       <use xlink:href="#ArialMT-38" transform="translate(83.398438 0)"/>
      </g>
     </g>
    </g>
    <g id="ytick_6">
     <g id="line2d_19">
      <path d="M 54.164375 122.950124 
L 835.364375 122.950124 
" clip-path="url(#pcdd230ba44)" style="fill: none; stroke-dasharray: 3.7,1.6; stroke-dashoffset: 0; stroke: #cccccc; stroke-opacity: 0.5"/>
     </g>
     <g id="text_15">
      <!-- 1.0 -->
      <g style="fill: #033164" transform="translate(29.374375 126.886921) scale(0.11 -0.11)">
       <use xlink:href="#ArialMT-31"/>
       <use xlink:href="#ArialMT-2e" transform="translate(55.615234 0)"/>
       <use xlink:href="#ArialMT-30" transform="translate(83.398438 0)"/>
      </g>
     </g>
    </g>
    <g id="ytick_7">
     <g id="line2d_20">
      <path d="M 54.164375 77.313951 
L 835.364375 77.313951 
" clip-path="url(#pcdd230ba44)" style="fill: none; stroke-dasharray: 3.7,1.6; stroke-dashoffset: 0; stroke: #cccccc; stroke-opacity: 0.5"/>
     </g>
     <g id="text_16">
      <!-- 1.2 -->
      <g style="fill: #033164" transform="translate(29.374375 81.250748) scale(0.11 -0.11)">
       <use xlink:href="#ArialMT-31"/>
       <use xlink:href="#ArialMT-2e" transform="translate(55.615234 0)"/>
       <use xlink:href="#ArialMT-32" transform="translate(83.398438 0)"/>
      </g>
     </g>
    </g>
    <g id="ytick_8">
     <g id="line2d_21">
      <path d="M 54.164375 31.677779 
L 835.364375 31.677779 
" clip-path="url(#pcdd230ba44)" style="fill: none; stroke-dasharray: 3.7,1.6; stroke-dashoffset: 0; stroke: #cccccc; stroke-opacity: 0.5"/>
     </g>
     <g id="text_17">
      <!-- 1.4 -->
      <g style="fill: #033164" transform="translate(29.374375 35.614576) scale(0.11 -0.11)">
       <use xlink:href="#ArialMT-31"/>
       <use xlink:href="#ArialMT-2e" transform="translate(55.615234 0)"/>
       <use xlink:href="#ArialMT-34" transform="translate(83.398438 0)"/>
      </g>
     </g>
    </g>
    <g id="text_18">
     <!-- Brier Score -->
     <g style="fill: #033164" transform="translate(22.989375 225.463125) rotate(-90) scale(0.12 -0.12)">
      <defs>
       <path id="ArialMT-42" d="M 469 0 
L 469 4581 
L 2188 4581 
Q 2713 4581 3030 4442 
Q 3347 4303 3526 4014 
Q 3706 3725 3706 3409 
Q 3706 3116 3547 2856 
Q 3388 2597 3066 2438 
Q 3481 2316 3704 2022 
Q 3928 1728 3928 1328 
Q 3928 1006 3792 729 
Q 3656 453 3456 303 
Q 3256 153 2954 76 
Q 2653 0 2216 0 
L 469 0 
z
M 1075 2656 
L 2066 2656 
Q 2469 2656 2644 2709 
Q 2875 2778 2992 2937 
Q 3109 3097 3109 3338 
Q 3109 3566 3000 3739 
Q 2891 3913 2687 3977 
Q 2484 4041 1991 4041 
L 1075 4041 
L 1075 2656 
z
M 1075 541 
L 2216 541 
Q 2509 541 2628 563 
Q 2838 600 2978 687 
Q 3119 775 3209 942 
Q 3300 1109 3300 1328 
Q 3300 1584 3169 1773 
Q 3038 1963 2805 2039 
Q 2572 2116 2134 2116 
L 1075 2116 
L 1075 541 
z
" transform="scale(0.015625)"/>
       <path id="ArialMT-72" d="M 416 0 
L 416 3319 
L 922 3319 
L 922 2816 
Q 1116 3169 1280 3281 
Q 1444 3394 1641 3394 
Q 1925 3394 2219 3213 
L 2025 2691 
Q 1819 2813 1613 2813 
Q 1428 2813 1281 2702 
Q 1134 2591 1072 2394 
Q 978 2094 978 1738 
L 978 0 
L 416 0 
z
" transform="scale(0.015625)"/>
       <path id="ArialMT-69" d="M 425 3934 
L 425 4581 
L 988 4581 
L 988 3934 
L 425 3934 
z
M 425 0 
L 425 3319 
L 988 3319 
L 988 0 
L 425 0 
z
" transform="scale(0.015625)"/>
       <path id="ArialMT-53" d="M 288 1472 
L 859 1522 
Q 900 1178 1048 958 
Q 1197 738 1509 602 
Q 1822 466 2213 466 
Q 2559 466 2825 569 
Q 3091 672 3220 851 
Q 3350 1031 3350 1244 
Q 3350 1459 3225 1620 
Q 3100 1781 2813 1891 
Q 2628 1963 1997 2114 
Q 1366 2266 1113 2400 
Q 784 2572 623 2826 
Q 463 3081 463 3397 
Q 463 3744 659 4045 
Q 856 4347 1234 4503 
Q 1613 4659 2075 4659 
Q 2584 4659 2973 4495 
Q 3363 4331 3572 4012 
Q 3781 3694 3797 3291 
L 3216 3247 
Q 3169 3681 2898 3903 
Q 2628 4125 2100 4125 
Q 1550 4125 1298 3923 
Q 1047 3722 1047 3438 
Q 1047 3191 1225 3031 
Q 1400 2872 2139 2705 
Q 2878 2538 3153 2413 
Q 3553 2228 3743 1945 
Q 3934 1663 3934 1294 
Q 3934 928 3725 604 
Q 3516 281 3123 101 
Q 2731 -78 2241 -78 
Q 1619 -78 1198 103 
Q 778 284 539 648 
Q 300 1013 288 1472 
z
" transform="scale(0.015625)"/>
       <path id="ArialMT-6f" d="M 213 1659 
Q 213 2581 725 3025 
Q 1153 3394 1769 3394 
Q 2453 3394 2887 2945 
Q 3322 2497 3322 1706 
Q 3322 1066 3130 698 
Q 2938 331 2570 128 
Q 2203 -75 1769 -75 
Q 1072 -75 642 372 
Q 213 819 213 1659 
z
M 791 1659 
Q 791 1022 1069 705 
Q 1347 388 1769 388 
Q 2188 388 2466 706 
Q 2744 1025 2744 1678 
Q 2744 2294 2464 2611 
Q 2184 2928 1769 2928 
Q 1347 2928 1069 2612 
Q 791 2297 791 1659 
z
" transform="scale(0.015625)"/>
      </defs>
      <use xlink:href="#ArialMT-42"/>
      <use xlink:href="#ArialMT-72" transform="translate(66.699219 0)"/>
      <use xlink:href="#ArialMT-69" transform="translate(100 0)"/>
      <use xlink:href="#ArialMT-65" transform="translate(122.216797 0)"/>
      <use xlink:href="#ArialMT-72" transform="translate(177.832031 0)"/>
      <use xlink:href="#ArialMT-20" transform="translate(211.132812 0)"/>
      <use xlink:href="#ArialMT-53" transform="translate(238.916016 0)"/>
      <use xlink:href="#ArialMT-63" transform="translate(305.615234 0)"/>
      <use xlink:href="#ArialMT-6f" transform="translate(355.615234 0)"/>
      <use xlink:href="#ArialMT-72" transform="translate(411.230469 0)"/>
      <use xlink:href="#ArialMT-65" transform="translate(444.53125 0)"/>
     </g>
    </g>
   </g>
   <g id="FillBetweenPolyCollection_1"/>
   <g id="FillBetweenPolyCollection_2"/>
   <g id="FillBetweenPolyCollection_3"/>
   <g id="FillBetweenPolyCollection_4"/>
   <g id="FillBetweenPolyCollection_5"/>
   <g id="line2d_22">
    <path d="M 75.864375 305.863135 
L 97.564375 252.398808 
L 119.264375 167.812891 
L 140.964375 146.049719 
L 162.664375 199.509247 
L 184.364375 115.257424 
L 206.064375 252.155532 
L 227.764375 146.335047 
L 249.464375 199.180971 
L 271.164375 196.596494 
L 292.864375 98.906133 
L 314.564375 211.307203 
L 336.264375 172.247276 
L 357.964375 218.354367 
L 379.664375 44.255625 
L 401.364375 213.513556 
L 423.064375 134.748848 
L 444.764375 122.408546 
L 466.464375 239.07847 
L 488.164375 121.920685 
L 509.864375 182.895564 
L 531.564375 263.833854 
L 553.264375 187.925319 
L 574.964375 143.461066 
L 596.664375 152.817188 
L 618.364375 260.311448 
L 640.064375 157.972409 
L 661.764375 248.387112 
L 683.464375 118.203483 
L 705.164375 61.275195 
L 726.864375 148.465492 
L 748.564375 163.617248 
L 770.264375 114.961391 
L 791.964375 178.744813 
" clip-path="url(#pcdd230ba44)" style="fill: none; stroke: #4c72b0; stroke-width: 1.5; stroke-linecap: round"/>
    <defs>
     <path id="m80f7eea120" d="M 0 3 
C 0.795609 3 1.55874 2.683901 2.12132 2.12132 
C 2.683901 1.55874 3 0.795609 3 0 
C 3 -0.795609 2.683901 -1.55874 2.12132 -2.12132 
C 1.55874 -2.683901 0.795609 -3 0 -3 
C -0.795609 -3 -1.55874 -2.683901 -2.12132 -2.12132 
C -2.683901 -1.55874 -3 -0.795609 -3 0 
C -3 0.795609 -2.683901 1.55874 -2.12132 2.12132 
C -1.55874 2.683901 -0.795609 3 0 3 
z
" style="stroke: #e8f1f2; stroke-width: 0.75"/>
    </defs>
    <g clip-path="url(#pcdd230ba44)">
     <use xlink:href="#m80f7eea120" x="75.864375" y="305.863135" style="fill: #4c72b0; stroke: #e8f1f2; stroke-width: 0.75"/>
     <use xlink:href="#m80f7eea120" x="97.564375" y="252.398808" style="fill: #4c72b0; stroke: #e8f1f2; stroke-width: 0.75"/>
     <use xlink:href="#m80f7eea120" x="119.264375" y="167.812891" style="fill: #4c72b0; stroke: #e8f1f2; stroke-width: 0.75"/>
     <use xlink:href="#m80f7eea120" x="140.964375" y="146.049719" style="fill: #4c72b0; stroke: #e8f1f2; stroke-width: 0.75"/>
     <use xlink:href="#m80f7eea120" x="162.664375" y="199.509247" style="fill: #4c72b0; stroke: #e8f1f2; stroke-width: 0.75"/>
     <use xlink:href="#m80f7eea120" x="184.364375" y="115.257424" style="fill: #4c72b0; stroke: #e8f1f2; stroke-width: 0.75"/>
     <use xlink:href="#m80f7eea120" x="206.064375" y="252.155532" style="fill: #4c72b0; stroke: #e8f1f2; stroke-width: 0.75"/>
     <use xlink:href="#m80f7eea120" x="227.764375" y="146.335047" style="fill: #4c72b0; stroke: #e8f1f2; stroke-width: 0.75"/>
     <use xlink:href="#m80f7eea120" x="249.464375" y="199.180971" style="fill: #4c72b0; stroke: #e8f1f2; stroke-width: 0.75"/>
     <use xlink:href="#m80f7eea120" x="271.164375" y="196.596494" style="fill: #4c72b0; stroke: #e8f1f2; stroke-width: 0.75"/>
     <use xlink:href="#m80f7eea120" x="292.864375" y="98.906133" style="fill: #4c72b0; stroke: #e8f1f2; stroke-width: 0.75"/>
     <use xlink:href="#m80f7eea120" x="314.564375" y="211.307203" style="fill: #4c72b0; stroke: #e8f1f2; stroke-width: 0.75"/>
     <use xlink:href="#m80f7eea120" x="336.264375" y="172.247276" style="fill: #4c72b0; stroke: #e8f1f2; stroke-width: 0.75"/>
     <use xlink:href="#m80f7eea120" x="357.964375" y="218.354367" style="fill: #4c72b0; stroke: #e8f1f2; stroke-width: 0.75"/>
     <use xlink:href="#m80f7eea120" x="379.664375" y="44.255625" style="fill: #4c72b0; stroke: #e8f1f2; stroke-width: 0.75"/>
     <use xlink:href="#m80f7eea120" x="401.364375" y="213.513556" style="fill: #4c72b0; stroke: #e8f1f2; stroke-width: 0.75"/>
     <use xlink:href="#m80f7eea120" x="423.064375" y="134.748848" style="fill: #4c72b0; stroke: #e8f1f2; stroke-width: 0.75"/>
     <use xlink:href="#m80f7eea120" x="444.764375" y="122.408546" style="fill: #4c72b0; stroke: #e8f1f2; stroke-width: 0.75"/>
     <use xlink:href="#m80f7eea120" x="466.464375" y="239.07847" style="fill: #4c72b0; stroke: #e8f1f2; stroke-width: 0.75"/>
     <use xlink:href="#m80f7eea120" x="488.164375" y="121.920685" style="fill: #4c72b0; stroke: #e8f1f2; stroke-width: 0.75"/>
     <use xlink:href="#m80f7eea120" x="509.864375" y="182.895564" style="fill: #4c72b0; stroke: #e8f1f2; stroke-width: 0.75"/>
     <use xlink:href="#m80f7eea120" x="531.564375" y="263.833854" style="fill: #4c72b0; stroke: #e8f1f2; stroke-width: 0.75"/>
     <use xlink:href="#m80f7eea120" x="553.264375" y="187.925319" style="fill: #4c72b0; stroke: #e8f1f2; stroke-width: 0.75"/>
     <use xlink:href="#m80f7eea120" x="574.964375" y="143.461066" style="fill: #4c72b0; stroke: #e8f1f2; stroke-width: 0.75"/>
     <use xlink:href="#m80f7eea120" x="596.664375" y="152.817188" style="fill: #4c72b0; stroke: #e8f1f2; stroke-width: 0.75"/>
     <use xlink:href="#m80f7eea120" x="618.364375" y="260.311448" style="fill: #4c72b0; stroke: #e8f1f2; stroke-width: 0.75"/>
     <use xlink:href="#m80f7eea120" x="640.064375" y="157.972409" style="fill: #4c72b0; stroke: #e8f1f2; stroke-width: 0.75"/>
     <use xlink:href="#m80f7eea120" x="661.764375" y="248.387112" style="fill: #4c72b0; stroke: #e8f1f2; stroke-width: 0.75"/>
     <use xlink:href="#m80f7eea120" x="683.464375" y="118.203483" style="fill: #4c72b0; stroke: #e8f1f2; stroke-width: 0.75"/>
     <use xlink:href="#m80f7eea120" x="705.164375" y="61.275195" style="fill: #4c72b0; stroke: #e8f1f2; stroke-width: 0.75"/>
     <use xlink:href="#m80f7eea120" x="726.864375" y="148.465492" style="fill: #4c72b0; stroke: #e8f1f2; stroke-width: 0.75"/>
     <use xlink:href="#m80f7eea120" x="748.564375" y="163.617248" style="fill: #4c72b0; stroke: #e8f1f2; stroke-width: 0.75"/>
     <use xlink:href="#m80f7eea120" x="770.264375" y="114.961391" style="fill: #4c72b0; stroke: #e8f1f2; stroke-width: 0.75"/>
     <use xlink:href="#m80f7eea120" x="791.964375" y="178.744813" style="fill: #4c72b0; stroke: #e8f1f2; stroke-width: 0.75"/>
    </g>
   </g>
   <g id="line2d_23">
    <path d="M 75.864375 344.256645 
L 97.564375 258.667216 
L 119.264375 326.410976 
L 140.964375 264.954817 
L 162.664375 328.327267 
L 184.364375 304.254295 
L 206.064375 302.008234 
L 227.764375 342.646864 
L 249.464375 327.31724 
L 271.164375 314.337922 
L 292.864375 334.908933 
L 314.564375 338.065868 
L 336.264375 339.337057 
L 357.964375 309.914197 
L 379.664375 331.202458 
L 401.364375 329.741953 
L 423.064375 334.542983 
L 444.764375 306.979041 
L 466.464375 346.655625 
L 488.164375 335.127767 
L 509.864375 335.062719 
L 531.564375 320.652096 
L 553.264375 321.315018 
L 574.964375 336.257484 
L 596.664375 335.914297 
L 618.364375 342.171319 
L 640.064375 336.27766 
L 661.764375 340.260642 
L 683.464375 309.748152 
L 705.164375 338.206026 
L 726.864375 311.149916 
L 748.564375 339.329587 
L 770.264375 334.44665 
L 791.964375 337.545485 
" clip-path="url(#pcdd230ba44)" style="fill: none; stroke: #dd8452; stroke-width: 1.5; stroke-linecap: round"/>
    <defs>
     <path id="m57809bdbda" d="M 0 3 
C 0.795609 3 1.55874 2.683901 2.12132 2.12132 
C 2.683901 1.55874 3 0.795609 3 0 
C 3 -0.795609 2.683901 -1.55874 2.12132 -2.12132 
C 1.55874 -2.683901 0.795609 -3 0 -3 
C -0.795609 -3 -1.55874 -2.683901 -2.12132 -2.12132 
C -2.683901 -1.55874 -3 -0.795609 -3 0 
C -3 0.795609 -2.683901 1.55874 -2.12132 2.12132 
C -1.55874 2.683901 -0.795609 3 0 3 
z
" style="stroke: #e8f1f2; stroke-width: 0.75"/>
    </defs>
    <g clip-path="url(#pcdd230ba44)">
     <use xlink:href="#m57809bdbda" x="75.864375" y="344.256645" style="fill: #dd8452; stroke: #e8f1f2; stroke-width: 0.75"/>
     <use xlink:href="#m57809bdbda" x="97.564375" y="258.667216" style="fill: #dd8452; stroke: #e8f1f2; stroke-width: 0.75"/>
     <use xlink:href="#m57809bdbda" x="119.264375" y="326.410976" style="fill: #dd8452; stroke: #e8f1f2; stroke-width: 0.75"/>
     <use xlink:href="#m57809bdbda" x="140.964375" y="264.954817" style="fill: #dd8452; stroke: #e8f1f2; stroke-width: 0.75"/>
     <use xlink:href="#m57809bdbda" x="162.664375" y="328.327267" style="fill: #dd8452; stroke: #e8f1f2; stroke-width: 0.75"/>
     <use xlink:href="#m57809bdbda" x="184.364375" y="304.254295" style="fill: #dd8452; stroke: #e8f1f2; stroke-width: 0.75"/>
     <use xlink:href="#m57809bdbda" x="206.064375" y="302.008234" style="fill: #dd8452; stroke: #e8f1f2; stroke-width: 0.75"/>
     <use xlink:href="#m57809bdbda" x="227.764375" y="342.646864" style="fill: #dd8452; stroke: #e8f1f2; stroke-width: 0.75"/>
     <use xlink:href="#m57809bdbda" x="249.464375" y="327.31724" style="fill: #dd8452; stroke: #e8f1f2; stroke-width: 0.75"/>
     <use xlink:href="#m57809bdbda" x="271.164375" y="314.337922" style="fill: #dd8452; stroke: #e8f1f2; stroke-width: 0.75"/>
     <use xlink:href="#m57809bdbda" x="292.864375" y="334.908933" style="fill: #dd8452; stroke: #e8f1f2; stroke-width: 0.75"/>
     <use xlink:href="#m57809bdbda" x="314.564375" y="338.065868" style="fill: #dd8452; stroke: #e8f1f2; stroke-width: 0.75"/>
     <use xlink:href="#m57809bdbda" x="336.264375" y="339.337057" style="fill: #dd8452; stroke: #e8f1f2; stroke-width: 0.75"/>
     <use xlink:href="#m57809bdbda" x="357.964375" y="309.914197" style="fill: #dd8452; stroke: #e8f1f2; stroke-width: 0.75"/>
     <use xlink:href="#m57809bdbda" x="379.664375" y="331.202458" style="fill: #dd8452; stroke: #e8f1f2; stroke-width: 0.75"/>
     <use xlink:href="#m57809bdbda" x="401.364375" y="329.741953" style="fill: #dd8452; stroke: #e8f1f2; stroke-width: 0.75"/>
     <use xlink:href="#m57809bdbda" x="423.064375" y="334.542983" style="fill: #dd8452; stroke: #e8f1f2; stroke-width: 0.75"/>
     <use xlink:href="#m57809bdbda" x="444.764375" y="306.979041" style="fill: #dd8452; stroke: #e8f1f2; stroke-width: 0.75"/>
     <use xlink:href="#m57809bdbda" x="466.464375" y="346.655625" style="fill: #dd8452; stroke: #e8f1f2; stroke-width: 0.75"/>
     <use xlink:href="#m57809bdbda" x="488.164375" y="335.127767" style="fill: #dd8452; stroke: #e8f1f2; stroke-width: 0.75"/>
     <use xlink:href="#m57809bdbda" x="509.864375" y="335.062719" style="fill: #dd8452; stroke: #e8f1f2; stroke-width: 0.75"/>
     <use xlink:href="#m57809bdbda" x="531.564375" y="320.652096" style="fill: #dd8452; stroke: #e8f1f2; stroke-width: 0.75"/>
     <use xlink:href="#m57809bdbda" x="553.264375" y="321.315018" style="fill: #dd8452; stroke: #e8f1f2; stroke-width: 0.75"/>
     <use xlink:href="#m57809bdbda" x="574.964375" y="336.257484" style="fill: #dd8452; stroke: #e8f1f2; stroke-width: 0.75"/>
     <use xlink:href="#m57809bdbda" x="596.664375" y="335.914297" style="fill: #dd8452; stroke: #e8f1f2; stroke-width: 0.75"/>
     <use xlink:href="#m57809bdbda" x="618.364375" y="342.171319" style="fill: #dd8452; stroke: #e8f1f2; stroke-width: 0.75"/>
     <use xlink:href="#m57809bdbda" x="640.064375" y="336.27766" style="fill: #dd8452; stroke: #e8f1f2; stroke-width: 0.75"/>
     <use xlink:href="#m57809bdbda" x="661.764375" y="340.260642" style="fill: #dd8452; stroke: #e8f1f2; stroke-width: 0.75"/>
     <use xlink:href="#m57809bdbda" x="683.464375" y="309.748152" style="fill: #dd8452; stroke: #e8f1f2; stroke-width: 0.75"/>
     <use xlink:href="#m57809bdbda" x="705.164375" y="338.206026" style="fill: #dd8452; stroke: #e8f1f2; stroke-width: 0.75"/>
     <use xlink:href="#m57809bdbda" x="726.864375" y="311.149916" style="fill: #dd8452; stroke: #e8f1f2; stroke-width: 0.75"/>
     <use xlink:href="#m57809bdbda" x="748.564375" y="339.329587" style="fill: #dd8452; stroke: #e8f1f2; stroke-width: 0.75"/>
     <use xlink:href="#m57809bdbda" x="770.264375" y="334.44665" style="fill: #dd8452; stroke: #e8f1f2; stroke-width: 0.75"/>
     <use xlink:href="#m57809bdbda" x="791.964375" y="337.545485" style="fill: #dd8452; stroke: #e8f1f2; stroke-width: 0.75"/>
    </g>
   </g>
   <g id="line2d_24">
    <path d="M 75.864375 274.807244 
L 97.564375 172.79277 
L 119.264375 233.115452 
L 140.964375 198.864971 
L 162.664375 241.392561 
L 184.364375 227.935713 
L 206.064375 233.443718 
L 227.764375 200.451509 
L 249.464375 252.465472 
L 271.164375 274.182637 
L 292.864375 199.626141 
L 314.564375 236.439469 
L 336.264375 254.112237 
L 357.964375 228.227988 
L 379.664375 255.818766 
L 401.364375 222.785433 
L 423.064375 274.233758 
L 444.764375 207.942917 
L 466.464375 246.321164 
L 488.164375 212.006595 
L 509.864375 243.765038 
L 531.564375 268.875354 
L 553.264375 250.477936 
L 574.964375 268.274221 
L 596.664375 266.997435 
L 618.364375 304.090005 
L 640.064375 264.97274 
L 661.764375 257.871539 
L 683.464375 256.995754 
L 705.164375 276.352685 
L 726.864375 210.482687 
L 748.564375 257.360089 
L 770.264375 235.552335 
L 791.964375 282.002546 
" clip-path="url(#pcdd230ba44)" style="fill: none; stroke: #55a868; stroke-width: 1.5; stroke-linecap: round"/>
    <defs>
     <path id="m2787e7b33c" d="M 0 3 
C 0.795609 3 1.55874 2.683901 2.12132 2.12132 
C 2.683901 1.55874 3 0.795609 3 0 
C 3 -0.795609 2.683901 -1.55874 2.12132 -2.12132 
C 1.55874 -2.683901 0.795609 -3 0 -3 
C -0.795609 -3 -1.55874 -2.683901 -2.12132 -2.12132 
C -2.683901 -1.55874 -3 -0.795609 -3 0 
C -3 0.795609 -2.683901 1.55874 -2.12132 2.12132 
C -1.55874 2.683901 -0.795609 3 0 3 
z
" style="stroke: #e8f1f2; stroke-width: 0.75"/>
    </defs>
    <g clip-path="url(#pcdd230ba44)">
     <use xlink:href="#m2787e7b33c" x="75.864375" y="274.807244" style="fill: #55a868; stroke: #e8f1f2; stroke-width: 0.75"/>
     <use xlink:href="#m2787e7b33c" x="97.564375" y="172.79277" style="fill: #55a868; stroke: #e8f1f2; stroke-width: 0.75"/>
     <use xlink:href="#m2787e7b33c" x="119.264375" y="233.115452" style="fill: #55a868; stroke: #e8f1f2; stroke-width: 0.75"/>
     <use xlink:href="#m2787e7b33c" x="140.964375" y="198.864971" style="fill: #55a868; stroke: #e8f1f2; stroke-width: 0.75"/>
     <use xlink:href="#m2787e7b33c" x="162.664375" y="241.392561" style="fill: #55a868; stroke: #e8f1f2; stroke-width: 0.75"/>
     <use xlink:href="#m2787e7b33c" x="184.364375" y="227.935713" style="fill: #55a868; stroke: #e8f1f2; stroke-width: 0.75"/>
     <use xlink:href="#m2787e7b33c" x="206.064375" y="233.443718" style="fill: #55a868; stroke: #e8f1f2; stroke-width: 0.75"/>
     <use xlink:href="#m2787e7b33c" x="227.764375" y="200.451509" style="fill: #55a868; stroke: #e8f1f2; stroke-width: 0.75"/>
     <use xlink:href="#m2787e7b33c" x="249.464375" y="252.465472" style="fill: #55a868; stroke: #e8f1f2; stroke-width: 0.75"/>
     <use xlink:href="#m2787e7b33c" x="271.164375" y="274.182637" style="fill: #55a868; stroke: #e8f1f2; stroke-width: 0.75"/>
     <use xlink:href="#m2787e7b33c" x="292.864375" y="199.626141" style="fill: #55a868; stroke: #e8f1f2; stroke-width: 0.75"/>
     <use xlink:href="#m2787e7b33c" x="314.564375" y="236.439469" style="fill: #55a868; stroke: #e8f1f2; stroke-width: 0.75"/>
     <use xlink:href="#m2787e7b33c" x="336.264375" y="254.112237" style="fill: #55a868; stroke: #e8f1f2; stroke-width: 0.75"/>
     <use xlink:href="#m2787e7b33c" x="357.964375" y="228.227988" style="fill: #55a868; stroke: #e8f1f2; stroke-width: 0.75"/>
     <use xlink:href="#m2787e7b33c" x="379.664375" y="255.818766" style="fill: #55a868; stroke: #e8f1f2; stroke-width: 0.75"/>
     <use xlink:href="#m2787e7b33c" x="401.364375" y="222.785433" style="fill: #55a868; stroke: #e8f1f2; stroke-width: 0.75"/>
     <use xlink:href="#m2787e7b33c" x="423.064375" y="274.233758" style="fill: #55a868; stroke: #e8f1f2; stroke-width: 0.75"/>
     <use xlink:href="#m2787e7b33c" x="444.764375" y="207.942917" style="fill: #55a868; stroke: #e8f1f2; stroke-width: 0.75"/>
     <use xlink:href="#m2787e7b33c" x="466.464375" y="246.321164" style="fill: #55a868; stroke: #e8f1f2; stroke-width: 0.75"/>
     <use xlink:href="#m2787e7b33c" x="488.164375" y="212.006595" style="fill: #55a868; stroke: #e8f1f2; stroke-width: 0.75"/>
     <use xlink:href="#m2787e7b33c" x="509.864375" y="243.765038" style="fill: #55a868; stroke: #e8f1f2; stroke-width: 0.75"/>
     <use xlink:href="#m2787e7b33c" x="531.564375" y="268.875354" style="fill: #55a868; stroke: #e8f1f2; stroke-width: 0.75"/>
     <use xlink:href="#m2787e7b33c" x="553.264375" y="250.477936" style="fill: #55a868; stroke: #e8f1f2; stroke-width: 0.75"/>
     <use xlink:href="#m2787e7b33c" x="574.964375" y="268.274221" style="fill: #55a868; stroke: #e8f1f2; stroke-width: 0.75"/>
     <use xlink:href="#m2787e7b33c" x="596.664375" y="266.997435" style="fill: #55a868; stroke: #e8f1f2; stroke-width: 0.75"/>
     <use xlink:href="#m2787e7b33c" x="618.364375" y="304.090005" style="fill: #55a868; stroke: #e8f1f2; stroke-width: 0.75"/>
     <use xlink:href="#m2787e7b33c" x="640.064375" y="264.97274" style="fill: #55a868; stroke: #e8f1f2; stroke-width: 0.75"/>
     <use xlink:href="#m2787e7b33c" x="661.764375" y="257.871539" style="fill: #55a868; stroke: #e8f1f2; stroke-width: 0.75"/>
     <use xlink:href="#m2787e7b33c" x="683.464375" y="256.995754" style="fill: #55a868; stroke: #e8f1f2; stroke-width: 0.75"/>
     <use xlink:href="#m2787e7b33c" x="705.164375" y="276.352685" style="fill: #55a868; stroke: #e8f1f2; stroke-width: 0.75"/>
     <use xlink:href="#m2787e7b33c" x="726.864375" y="210.482687" style="fill: #55a868; stroke: #e8f1f2; stroke-width: 0.75"/>
     <use xlink:href="#m2787e7b33c" x="748.564375" y="257.360089" style="fill: #55a868; stroke: #e8f1f2; stroke-width: 0.75"/>
     <use xlink:href="#m2787e7b33c" x="770.264375" y="235.552335" style="fill: #55a868; stroke: #e8f1f2; stroke-width: 0.75"/>
     <use xlink:href="#m2787e7b33c" x="791.964375" y="282.002546" style="fill: #55a868; stroke: #e8f1f2; stroke-width: 0.75"/>
    </g>
   </g>
   <g id="line2d_25">
    <path d="M 75.864375 266.322008 
L 97.564375 204.960971 
L 119.264375 272.60089 
L 140.964375 216.871221 
L 162.664375 256.475003 
L 184.364375 193.793822 
L 206.064375 191.495749 
L 227.764375 227.982943 
L 249.464375 231.438659 
L 271.164375 242.002368 
L 292.864375 154.423571 
L 314.564375 228.638915 
L 336.264375 231.639746 
L 357.964375 239.316588 
L 379.664375 197.176597 
L 401.364375 240.841648 
L 423.064375 246.176676 
L 444.764375 212.30622 
L 466.464375 262.467046 
L 488.164375 215.689146 
L 509.864375 267.834217 
L 531.564375 243.264902 
L 553.264375 228.543044 
L 574.964375 230.199095 
L 596.664375 203.628825 
L 618.364375 284.853068 
L 640.064375 261.364679 
L 661.764375 297.920267 
L 683.464375 208.445349 
L 705.164375 218.385468 
L 726.864375 230.752953 
L 748.564375 231.186694 
L 770.264375 202.997165 
L 791.964375 241.875311 
" clip-path="url(#pcdd230ba44)" style="fill: none; stroke: #c44e52; stroke-width: 1.5; stroke-linecap: round"/>
    <defs>
     <path id="m91b1bc6f34" d="M 0 3 
C 0.795609 3 1.55874 2.683901 2.12132 2.12132 
C 2.683901 1.55874 3 0.795609 3 0 
C 3 -0.795609 2.683901 -1.55874 2.12132 -2.12132 
C 1.55874 -2.683901 0.795609 -3 0 -3 
C -0.795609 -3 -1.55874 -2.683901 -2.12132 -2.12132 
C -2.683901 -1.55874 -3 -0.795609 -3 0 
C -3 0.795609 -2.683901 1.55874 -2.12132 2.12132 
C -1.55874 2.683901 -0.795609 3 0 3 
z
" style="stroke: #e8f1f2; stroke-width: 0.75"/>
    </defs>
    <g clip-path="url(#pcdd230ba44)">
     <use xlink:href="#m91b1bc6f34" x="75.864375" y="266.322008" style="fill: #c44e52; stroke: #e8f1f2; stroke-width: 0.75"/>
     <use xlink:href="#m91b1bc6f34" x="97.564375" y="204.960971" style="fill: #c44e52; stroke: #e8f1f2; stroke-width: 0.75"/>
     <use xlink:href="#m91b1bc6f34" x="119.264375" y="272.60089" style="fill: #c44e52; stroke: #e8f1f2; stroke-width: 0.75"/>
     <use xlink:href="#m91b1bc6f34" x="140.964375" y="216.871221" style="fill: #c44e52; stroke: #e8f1f2; stroke-width: 0.75"/>
     <use xlink:href="#m91b1bc6f34" x="162.664375" y="256.475003" style="fill: #c44e52; stroke: #e8f1f2; stroke-width: 0.75"/>
     <use xlink:href="#m91b1bc6f34" x="184.364375" y="193.793822" style="fill: #c44e52; stroke: #e8f1f2; stroke-width: 0.75"/>
     <use xlink:href="#m91b1bc6f34" x="206.064375" y="191.495749" style="fill: #c44e52; stroke: #e8f1f2; stroke-width: 0.75"/>
     <use xlink:href="#m91b1bc6f34" x="227.764375" y="227.982943" style="fill: #c44e52; stroke: #e8f1f2; stroke-width: 0.75"/>
     <use xlink:href="#m91b1bc6f34" x="249.464375" y="231.438659" style="fill: #c44e52; stroke: #e8f1f2; stroke-width: 0.75"/>
     <use xlink:href="#m91b1bc6f34" x="271.164375" y="242.002368" style="fill: #c44e52; stroke: #e8f1f2; stroke-width: 0.75"/>
     <use xlink:href="#m91b1bc6f34" x="292.864375" y="154.423571" style="fill: #c44e52; stroke: #e8f1f2; stroke-width: 0.75"/>
     <use xlink:href="#m91b1bc6f34" x="314.564375" y="228.638915" style="fill: #c44e52; stroke: #e8f1f2; stroke-width: 0.75"/>
     <use xlink:href="#m91b1bc6f34" x="336.264375" y="231.639746" style="fill: #c44e52; stroke: #e8f1f2; stroke-width: 0.75"/>
     <use xlink:href="#m91b1bc6f34" x="357.964375" y="239.316588" style="fill: #c44e52; stroke: #e8f1f2; stroke-width: 0.75"/>
     <use xlink:href="#m91b1bc6f34" x="379.664375" y="197.176597" style="fill: #c44e52; stroke: #e8f1f2; stroke-width: 0.75"/>
     <use xlink:href="#m91b1bc6f34" x="401.364375" y="240.841648" style="fill: #c44e52; stroke: #e8f1f2; stroke-width: 0.75"/>
     <use xlink:href="#m91b1bc6f34" x="423.064375" y="246.176676" style="fill: #c44e52; stroke: #e8f1f2; stroke-width: 0.75"/>
     <use xlink:href="#m91b1bc6f34" x="444.764375" y="212.30622" style="fill: #c44e52; stroke: #e8f1f2; stroke-width: 0.75"/>
     <use xlink:href="#m91b1bc6f34" x="466.464375" y="262.467046" style="fill: #c44e52; stroke: #e8f1f2; stroke-width: 0.75"/>
     <use xlink:href="#m91b1bc6f34" x="488.164375" y="215.689146" style="fill: #c44e52; stroke: #e8f1f2; stroke-width: 0.75"/>
     <use xlink:href="#m91b1bc6f34" x="509.864375" y="267.834217" style="fill: #c44e52; stroke: #e8f1f2; stroke-width: 0.75"/>
     <use xlink:href="#m91b1bc6f34" x="531.564375" y="243.264902" style="fill: #c44e52; stroke: #e8f1f2; stroke-width: 0.75"/>
     <use xlink:href="#m91b1bc6f34" x="553.264375" y="228.543044" style="fill: #c44e52; stroke: #e8f1f2; stroke-width: 0.75"/>
     <use xlink:href="#m91b1bc6f34" x="574.964375" y="230.199095" style="fill: #c44e52; stroke: #e8f1f2; stroke-width: 0.75"/>
     <use xlink:href="#m91b1bc6f34" x="596.664375" y="203.628825" style="fill: #c44e52; stroke: #e8f1f2; stroke-width: 0.75"/>
     <use xlink:href="#m91b1bc6f34" x="618.364375" y="284.853068" style="fill: #c44e52; stroke: #e8f1f2; stroke-width: 0.75"/>
     <use xlink:href="#m91b1bc6f34" x="640.064375" y="261.364679" style="fill: #c44e52; stroke: #e8f1f2; stroke-width: 0.75"/>
     <use xlink:href="#m91b1bc6f34" x="661.764375" y="297.920267" style="fill: #c44e52; stroke: #e8f1f2; stroke-width: 0.75"/>
     <use xlink:href="#m91b1bc6f34" x="683.464375" y="208.445349" style="fill: #c44e52; stroke: #e8f1f2; stroke-width: 0.75"/>
     <use xlink:href="#m91b1bc6f34" x="705.164375" y="218.385468" style="fill: #c44e52; stroke: #e8f1f2; stroke-width: 0.75"/>
     <use xlink:href="#m91b1bc6f34" x="726.864375" y="230.752953" style="fill: #c44e52; stroke: #e8f1f2; stroke-width: 0.75"/>
     <use xlink:href="#m91b1bc6f34" x="748.564375" y="231.186694" style="fill: #c44e52; stroke: #e8f1f2; stroke-width: 0.75"/>
     <use xlink:href="#m91b1bc6f34" x="770.264375" y="202.997165" style="fill: #c44e52; stroke: #e8f1f2; stroke-width: 0.75"/>
     <use xlink:href="#m91b1bc6f34" x="791.964375" y="241.875311" style="fill: #c44e52; stroke: #e8f1f2; stroke-width: 0.75"/>
    </g>
   </g>
   <g id="line2d_26">
    <path d="M 75.864375 339.995127 
L 97.564375 224.969154 
L 119.264375 268.34697 
L 140.964375 242.535595 
L 162.664375 282.019441 
L 184.364375 258.875563 
L 206.064375 284.330089 
L 227.764375 293.11632 
L 249.464375 283.17017 
L 271.164375 306.375213 
L 292.864375 266.225522 
L 314.564375 305.967973 
L 336.264375 306.306758 
L 357.964375 294.840987 
L 379.664375 305.804444 
L 401.364375 309.131764 
L 423.064375 307.702148 
L 444.764375 310.758187 
L 466.464375 318.155683 
L 488.164375 304.809321 
L 509.864375 314.436652 
L 531.564375 304.480361 
L 553.264375 309.725668 
L 574.964375 327.447081 
L 596.664375 314.039871 
L 618.364375 343.869765 
L 640.064375 325.319295 
L 661.764375 333.285976 
L 683.464375 313.970466 
L 705.164375 327.799177 
L 726.864375 325.664102 
L 748.564375 341.417772 
L 770.264375 316.009516 
L 791.964375 339.251004 
" clip-path="url(#pcdd230ba44)" style="fill: none; stroke: #8172b3; stroke-width: 1.5; stroke-linecap: round"/>
    <defs>
     <path id="m673774caf5" d="M 0 3 
C 0.795609 3 1.55874 2.683901 2.12132 2.12132 
C 2.683901 1.55874 3 0.795609 3 0 
C 3 -0.795609 2.683901 -1.55874 2.12132 -2.12132 
C 1.55874 -2.683901 0.795609 -3 0 -3 
C -0.795609 -3 -1.55874 -2.683901 -2.12132 -2.12132 
C -2.683901 -1.55874 -3 -0.795609 -3 0 
C -3 0.795609 -2.683901 1.55874 -2.12132 2.12132 
C -1.55874 2.683901 -0.795609 3 0 3 
z
" style="stroke: #e8f1f2; stroke-width: 0.75"/>
    </defs>
    <g clip-path="url(#pcdd230ba44)">
     <use xlink:href="#m673774caf5" x="75.864375" y="339.995127" style="fill: #8172b3; stroke: #e8f1f2; stroke-width: 0.75"/>
     <use xlink:href="#m673774caf5" x="97.564375" y="224.969154" style="fill: #8172b3; stroke: #e8f1f2; stroke-width: 0.75"/>
     <use xlink:href="#m673774caf5" x="119.264375" y="268.34697" style="fill: #8172b3; stroke: #e8f1f2; stroke-width: 0.75"/>
     <use xlink:href="#m673774caf5" x="140.964375" y="242.535595" style="fill: #8172b3; stroke: #e8f1f2; stroke-width: 0.75"/>
     <use xlink:href="#m673774caf5" x="162.664375" y="282.019441" style="fill: #8172b3; stroke: #e8f1f2; stroke-width: 0.75"/>
     <use xlink:href="#m673774caf5" x="184.364375" y="258.875563" style="fill: #8172b3; stroke: #e8f1f2; stroke-width: 0.75"/>
     <use xlink:href="#m673774caf5" x="206.064375" y="284.330089" style="fill: #8172b3; stroke: #e8f1f2; stroke-width: 0.75"/>
     <use xlink:href="#m673774caf5" x="227.764375" y="293.11632" style="fill: #8172b3; stroke: #e8f1f2; stroke-width: 0.75"/>
     <use xlink:href="#m673774caf5" x="249.464375" y="283.17017" style="fill: #8172b3; stroke: #e8f1f2; stroke-width: 0.75"/>
     <use xlink:href="#m673774caf5" x="271.164375" y="306.375213" style="fill: #8172b3; stroke: #e8f1f2; stroke-width: 0.75"/>
     <use xlink:href="#m673774caf5" x="292.864375" y="266.225522" style="fill: #8172b3; stroke: #e8f1f2; stroke-width: 0.75"/>
     <use xlink:href="#m673774caf5" x="314.564375" y="305.967973" style="fill: #8172b3; stroke: #e8f1f2; stroke-width: 0.75"/>
     <use xlink:href="#m673774caf5" x="336.264375" y="306.306758" style="fill: #8172b3; stroke: #e8f1f2; stroke-width: 0.75"/>
     <use xlink:href="#m673774caf5" x="357.964375" y="294.840987" style="fill: #8172b3; stroke: #e8f1f2; stroke-width: 0.75"/>
     <use xlink:href="#m673774caf5" x="379.664375" y="305.804444" style="fill: #8172b3; stroke: #e8f1f2; stroke-width: 0.75"/>
     <use xlink:href="#m673774caf5" x="401.364375" y="309.131764" style="fill: #8172b3; stroke: #e8f1f2; stroke-width: 0.75"/>
     <use xlink:href="#m673774caf5" x="423.064375" y="307.702148" style="fill: #8172b3; stroke: #e8f1f2; stroke-width: 0.75"/>
     <use xlink:href="#m673774caf5" x="444.764375" y="310.758187" style="fill: #8172b3; stroke: #e8f1f2; stroke-width: 0.75"/>
     <use xlink:href="#m673774caf5" x="466.464375" y="318.155683" style="fill: #8172b3; stroke: #e8f1f2; stroke-width: 0.75"/>
     <use xlink:href="#m673774caf5" x="488.164375" y="304.809321" style="fill: #8172b3; stroke: #e8f1f2; stroke-width: 0.75"/>
     <use xlink:href="#m673774caf5" x="509.864375" y="314.436652" style="fill: #8172b3; stroke: #e8f1f2; stroke-width: 0.75"/>
     <use xlink:href="#m673774caf5" x="531.564375" y="304.480361" style="fill: #8172b3; stroke: #e8f1f2; stroke-width: 0.75"/>
     <use xlink:href="#m673774caf5" x="553.264375" y="309.725668" style="fill: #8172b3; stroke: #e8f1f2; stroke-width: 0.75"/>
     <use xlink:href="#m673774caf5" x="574.964375" y="327.447081" style="fill: #8172b3; stroke: #e8f1f2; stroke-width: 0.75"/>
     <use xlink:href="#m673774caf5" x="596.664375" y="314.039871" style="fill: #8172b3; stroke: #e8f1f2; stroke-width: 0.75"/>
     <use xlink:href="#m673774caf5" x="618.364375" y="343.869765" style="fill: #8172b3; stroke: #e8f1f2; stroke-width: 0.75"/>
     <use xlink:href="#m673774caf5" x="640.064375" y="325.319295" style="fill: #8172b3; stroke: #e8f1f2; stroke-width: 0.75"/>
     <use xlink:href="#m673774caf5" x="661.764375" y="333.285976" style="fill: #8172b3; stroke: #e8f1f2; stroke-width: 0.75"/>
     <use xlink:href="#m673774caf5" x="683.464375" y="313.970466" style="fill: #8172b3; stroke: #e8f1f2; stroke-width: 0.75"/>
     <use xlink:href="#m673774caf5" x="705.164375" y="327.799177" style="fill: #8172b3; stroke: #e8f1f2; stroke-width: 0.75"/>
     <use xlink:href="#m673774caf5" x="726.864375" y="325.664102" style="fill: #8172b3; stroke: #e8f1f2; stroke-width: 0.75"/>
     <use xlink:href="#m673774caf5" x="748.564375" y="341.417772" style="fill: #8172b3; stroke: #e8f1f2; stroke-width: 0.75"/>
     <use xlink:href="#m673774caf5" x="770.264375" y="316.009516" style="fill: #8172b3; stroke: #e8f1f2; stroke-width: 0.75"/>
     <use xlink:href="#m673774caf5" x="791.964375" y="339.251004" style="fill: #8172b3; stroke: #e8f1f2; stroke-width: 0.75"/>
    </g>
   </g>
   <g id="patch_3">
    <path d="M 54.164375 361.775625 
L 54.164375 29.135625 
" style="fill: none; stroke: #033164; stroke-width: 1.25; stroke-linejoin: miter; stroke-linecap: square"/>
   </g>
   <g id="patch_4">
    <path d="M 835.364375 361.775625 
L 835.364375 29.135625 
" style="fill: none; stroke: #033164; stroke-width: 1.25; stroke-linejoin: miter; stroke-linecap: square"/>
   </g>
   <g id="patch_5">
    <path d="M 54.164375 361.775625 
L 835.364375 361.775625 
" style="fill: none; stroke: #033164; stroke-width: 1.25; stroke-linejoin: miter; stroke-linecap: square"/>
   </g>
   <g id="patch_6">
    <path d="M 54.164375 29.135625 
L 835.364375 29.135625 
" style="fill: none; stroke: #033164; stroke-width: 1.25; stroke-linejoin: miter; stroke-linecap: square"/>
   </g>
   <g id="text_19">
    <g id="patch_7">
     <path d="M 803.804375 178.760763 
L 829.348437 178.760763 
L 829.348437 170.696388 
L 803.804375 170.696388 
z
" style="fill: #e8f1f2"/>
    </g>
    <!-- 0.773 -->
    <g style="fill: #4c72b0" transform="translate(802.814375 177.579982) scale(0.11 -0.11)">
     <defs>
      <path id="Arial-BoldMT-30" d="M 1756 4600 
Q 2422 4600 2797 4125 
Q 3244 3563 3244 2259 
Q 3244 959 2794 391 
Q 2422 -78 1756 -78 
Q 1088 -78 678 436 
Q 269 950 269 2269 
Q 269 3563 719 4131 
Q 1091 4600 1756 4600 
z
M 1756 3872 
Q 1597 3872 1472 3770 
Q 1347 3669 1278 3406 
Q 1188 3066 1188 2259 
Q 1188 1453 1269 1151 
Q 1350 850 1473 750 
Q 1597 650 1756 650 
Q 1916 650 2041 751 
Q 2166 853 2234 1116 
Q 2325 1453 2325 2259 
Q 2325 3066 2244 3367 
Q 2163 3669 2039 3770 
Q 1916 3872 1756 3872 
z
" transform="scale(0.015625)"/>
      <path id="Arial-BoldMT-2e" d="M 459 0 
L 459 878 
L 1338 878 
L 1338 0 
L 459 0 
z
" transform="scale(0.015625)"/>
      <path id="Arial-BoldMT-37" d="M 272 3703 
L 272 4519 
L 3275 4519 
L 3275 3881 
Q 2903 3516 2518 2831 
Q 2134 2147 1932 1376 
Q 1731 606 1734 0 
L 888 0 
Q 909 950 1279 1937 
Q 1650 2925 2269 3703 
L 272 3703 
z
" transform="scale(0.015625)"/>
      <path id="Arial-BoldMT-33" d="M 241 1216 
L 1091 1319 
Q 1131 994 1309 822 
Q 1488 650 1741 650 
Q 2013 650 2198 856 
Q 2384 1063 2384 1413 
Q 2384 1744 2206 1937 
Q 2028 2131 1772 2131 
Q 1603 2131 1369 2066 
L 1466 2781 
Q 1822 2772 2009 2936 
Q 2197 3100 2197 3372 
Q 2197 3603 2059 3740 
Q 1922 3878 1694 3878 
Q 1469 3878 1309 3722 
Q 1150 3566 1116 3266 
L 306 3403 
Q 391 3819 561 4067 
Q 731 4316 1036 4458 
Q 1341 4600 1719 4600 
Q 2366 4600 2756 4188 
Q 3078 3850 3078 3425 
Q 3078 2822 2419 2463 
Q 2813 2378 3048 2084 
Q 3284 1791 3284 1375 
Q 3284 772 2843 347 
Q 2403 -78 1747 -78 
Q 1125 -78 715 280 
Q 306 638 241 1216 
z
" transform="scale(0.015625)"/>
     </defs>
     <use xlink:href="#Arial-BoldMT-30"/>
     <use xlink:href="#Arial-BoldMT-2e" transform="translate(55.615234 0)"/>
     <use xlink:href="#Arial-BoldMT-37" transform="translate(83.398438 0)"/>
     <use xlink:href="#Arial-BoldMT-37" transform="translate(139.013672 0)"/>
     <use xlink:href="#Arial-BoldMT-33" transform="translate(194.628906 0)"/>
    </g>
   </g>
   <g id="text_20">
    <g id="patch_8">
     <path d="M 803.804375 329.267317 
L 828.743437 329.267317 
L 828.743437 321.202942 
L 803.804375 321.202942 
z
" style="fill: #e8f1f2"/>
    </g>
    <!-- 0.113 -->
    <g style="fill: #dd8452" transform="translate(802.814375 328.086536) scale(0.11 -0.11)">
     <defs>
      <path id="Arial-BoldMT-31" d="M 2519 0 
L 1641 0 
L 1641 3309 
Q 1159 2859 506 2644 
L 506 3441 
Q 850 3553 1253 3867 
Q 1656 4181 1806 4600 
L 2519 4600 
L 2519 0 
z
" transform="scale(0.015625)"/>
     </defs>
     <use xlink:href="#Arial-BoldMT-30"/>
     <use xlink:href="#Arial-BoldMT-2e" transform="translate(55.615234 0)"/>
     <use xlink:href="#Arial-BoldMT-31" transform="translate(83.398438 0)"/>
     <use xlink:href="#Arial-BoldMT-31" transform="translate(133.513672 0)"/>
     <use xlink:href="#Arial-BoldMT-33" transform="translate(189.128906 0)"/>
    </g>
   </g>
   <g id="text_21">
    <g id="patch_9">
     <path d="M 803.804375 247.886213 
L 829.348437 247.886213 
L 829.348437 239.821838 
L 803.804375 239.821838 
z
" style="fill: #e8f1f2"/>
    </g>
    <!-- 0.470 -->
    <g style="fill: #55a868" transform="translate(802.814375 246.705432) scale(0.11 -0.11)">
     <defs>
      <path id="Arial-BoldMT-34" d="M 1994 0 
L 1994 922 
L 119 922 
L 119 1691 
L 2106 4600 
L 2844 4600 
L 2844 1694 
L 3413 1694 
L 3413 922 
L 2844 922 
L 2844 0 
L 1994 0 
z
M 1994 1694 
L 1994 3259 
L 941 1694 
L 1994 1694 
z
" transform="scale(0.015625)"/>
     </defs>
     <use xlink:href="#Arial-BoldMT-30"/>
     <use xlink:href="#Arial-BoldMT-2e" transform="translate(55.615234 0)"/>
     <use xlink:href="#Arial-BoldMT-34" transform="translate(83.398438 0)"/>
     <use xlink:href="#Arial-BoldMT-37" transform="translate(139.013672 0)"/>
     <use xlink:href="#Arial-BoldMT-30" transform="translate(194.628906 0)"/>
    </g>
   </g>
   <g id="text_22">
    <g id="patch_10">
     <path d="M 803.804375 235.910741 
L 829.348437 235.910741 
L 829.348437 227.846366 
L 803.804375 227.846366 
z
" style="fill: #e8f1f2"/>
    </g>
    <!-- 0.523 -->
    <g style="fill: #c44e52" transform="translate(802.814375 234.72996) scale(0.11 -0.11)">
     <defs>
      <path id="Arial-BoldMT-35" d="M 284 1178 
L 1159 1269 
Q 1197 972 1381 798 
Q 1566 625 1806 625 
Q 2081 625 2272 848 
Q 2463 1072 2463 1522 
Q 2463 1944 2273 2155 
Q 2084 2366 1781 2366 
Q 1403 2366 1103 2031 
L 391 2134 
L 841 4519 
L 3163 4519 
L 3163 3697 
L 1506 3697 
L 1369 2919 
Q 1663 3066 1969 3066 
Q 2553 3066 2959 2641 
Q 3366 2216 3366 1538 
Q 3366 972 3038 528 
Q 2591 -78 1797 -78 
Q 1163 -78 763 262 
Q 363 603 284 1178 
z
" transform="scale(0.015625)"/>
      <path id="Arial-BoldMT-32" d="M 3238 816 
L 3238 0 
L 159 0 
Q 209 463 459 877 
Q 709 1291 1447 1975 
Q 2041 2528 2175 2725 
Q 2356 2997 2356 3263 
Q 2356 3556 2198 3714 
Q 2041 3872 1763 3872 
Q 1488 3872 1325 3706 
Q 1163 3541 1138 3156 
L 263 3244 
Q 341 3969 753 4284 
Q 1166 4600 1784 4600 
Q 2463 4600 2850 4234 
Q 3238 3869 3238 3325 
Q 3238 3016 3127 2736 
Q 3016 2456 2775 2150 
Q 2616 1947 2200 1565 
Q 1784 1184 1673 1059 
Q 1563 934 1494 816 
L 3238 816 
z
" transform="scale(0.015625)"/>
     </defs>
     <use xlink:href="#Arial-BoldMT-30"/>
     <use xlink:href="#Arial-BoldMT-2e" transform="translate(55.615234 0)"/>
     <use xlink:href="#Arial-BoldMT-35" transform="translate(83.398438 0)"/>
     <use xlink:href="#Arial-BoldMT-32" transform="translate(139.013672 0)"/>
     <use xlink:href="#Arial-BoldMT-33" transform="translate(194.628906 0)"/>
    </g>
   </g>
   <g id="text_23">
    <g id="patch_11">
     <path d="M 803.804375 308.448456 
L 829.348437 308.448456 
L 829.348437 300.384081 
L 803.804375 300.384081 
z
" style="fill: #e8f1f2"/>
    </g>
    <!-- 0.205 -->
    <g style="fill: #8172b3" transform="translate(802.814375 307.267675) scale(0.11 -0.11)">
     <use xlink:href="#Arial-BoldMT-30"/>
     <use xlink:href="#Arial-BoldMT-2e" transform="translate(55.615234 0)"/>
     <use xlink:href="#Arial-BoldMT-32" transform="translate(83.398438 0)"/>
     <use xlink:href="#Arial-BoldMT-30" transform="translate(139.013672 0)"/>
     <use xlink:href="#Arial-BoldMT-35" transform="translate(194.628906 0)"/>
    </g>
   </g>
   <g id="text_24">
    <!-- Brier Scores by Match Week (Best Models Comparison) -->
    <g style="fill: #033164" transform="translate(296.163125 23.135625) scale(0.12 -0.12)">
     <defs>
      <path id="ArialMT-73" d="M 197 991 
L 753 1078 
Q 800 744 1014 566 
Q 1228 388 1613 388 
Q 2000 388 2187 545 
Q 2375 703 2375 916 
Q 2375 1106 2209 1216 
Q 2094 1291 1634 1406 
Q 1016 1563 777 1677 
Q 538 1791 414 1992 
Q 291 2194 291 2438 
Q 291 2659 392 2848 
Q 494 3038 669 3163 
Q 800 3259 1026 3326 
Q 1253 3394 1513 3394 
Q 1903 3394 2198 3281 
Q 2494 3169 2634 2976 
Q 2775 2784 2828 2463 
L 2278 2388 
Q 2241 2644 2061 2787 
Q 1881 2931 1553 2931 
Q 1166 2931 1000 2803 
Q 834 2675 834 2503 
Q 834 2394 903 2306 
Q 972 2216 1119 2156 
Q 1203 2125 1616 2013 
Q 2213 1853 2448 1751 
Q 2684 1650 2818 1456 
Q 2953 1263 2953 975 
Q 2953 694 2789 445 
Q 2625 197 2315 61 
Q 2006 -75 1616 -75 
Q 969 -75 630 194 
Q 291 463 197 991 
z
" transform="scale(0.015625)"/>
      <path id="ArialMT-62" d="M 941 0 
L 419 0 
L 419 4581 
L 981 4581 
L 981 2947 
Q 1338 3394 1891 3394 
Q 2197 3394 2470 3270 
Q 2744 3147 2920 2923 
Q 3097 2700 3197 2384 
Q 3297 2069 3297 1709 
Q 3297 856 2875 390 
Q 2453 -75 1863 -75 
Q 1275 -75 941 416 
L 941 0 
z
M 934 1684 
Q 934 1088 1097 822 
Q 1363 388 1816 388 
Q 2184 388 2453 708 
Q 2722 1028 2722 1663 
Q 2722 2313 2464 2622 
Q 2206 2931 1841 2931 
Q 1472 2931 1203 2611 
Q 934 2291 934 1684 
z
" transform="scale(0.015625)"/>
      <path id="ArialMT-79" d="M 397 -1278 
L 334 -750 
Q 519 -800 656 -800 
Q 844 -800 956 -737 
Q 1069 -675 1141 -563 
Q 1194 -478 1313 -144 
Q 1328 -97 1363 -6 
L 103 3319 
L 709 3319 
L 1400 1397 
Q 1534 1031 1641 628 
Q 1738 1016 1872 1384 
L 2581 3319 
L 3144 3319 
L 1881 -56 
Q 1678 -603 1566 -809 
Q 1416 -1088 1222 -1217 
Q 1028 -1347 759 -1347 
Q 597 -1347 397 -1278 
z
" transform="scale(0.015625)"/>
      <path id="ArialMT-28" d="M 1497 -1347 
Q 1031 -759 709 28 
Q 388 816 388 1659 
Q 388 2403 628 3084 
Q 909 3875 1497 4659 
L 1900 4659 
Q 1522 4009 1400 3731 
Q 1209 3300 1100 2831 
Q 966 2247 966 1656 
Q 966 153 1900 -1347 
L 1497 -1347 
z
" transform="scale(0.015625)"/>
      <path id="ArialMT-64" d="M 2575 0 
L 2575 419 
Q 2259 -75 1647 -75 
Q 1250 -75 917 144 
Q 584 363 401 755 
Q 219 1147 219 1656 
Q 219 2153 384 2558 
Q 550 2963 881 3178 
Q 1213 3394 1622 3394 
Q 1922 3394 2156 3267 
Q 2391 3141 2538 2938 
L 2538 4581 
L 3097 4581 
L 3097 0 
L 2575 0 
z
M 797 1656 
Q 797 1019 1065 703 
Q 1334 388 1700 388 
Q 2069 388 2326 689 
Q 2584 991 2584 1609 
Q 2584 2291 2321 2609 
Q 2059 2928 1675 2928 
Q 1300 2928 1048 2622 
Q 797 2316 797 1656 
z
" transform="scale(0.015625)"/>
      <path id="ArialMT-6c" d="M 409 0 
L 409 4581 
L 972 4581 
L 972 0 
L 409 0 
z
" transform="scale(0.015625)"/>
      <path id="ArialMT-43" d="M 3763 1606 
L 4369 1453 
Q 4178 706 3683 314 
Q 3188 -78 2472 -78 
Q 1731 -78 1267 223 
Q 803 525 561 1097 
Q 319 1669 319 2325 
Q 319 3041 592 3573 
Q 866 4106 1370 4382 
Q 1875 4659 2481 4659 
Q 3169 4659 3637 4309 
Q 4106 3959 4291 3325 
L 3694 3184 
Q 3534 3684 3231 3912 
Q 2928 4141 2469 4141 
Q 1941 4141 1586 3887 
Q 1231 3634 1087 3207 
Q 944 2781 944 2328 
Q 944 1744 1114 1308 
Q 1284 872 1643 656 
Q 2003 441 2422 441 
Q 2931 441 3284 734 
Q 3638 1028 3763 1606 
z
" transform="scale(0.015625)"/>
      <path id="ArialMT-6d" d="M 422 0 
L 422 3319 
L 925 3319 
L 925 2853 
Q 1081 3097 1340 3245 
Q 1600 3394 1931 3394 
Q 2300 3394 2536 3241 
Q 2772 3088 2869 2813 
Q 3263 3394 3894 3394 
Q 4388 3394 4653 3120 
Q 4919 2847 4919 2278 
L 4919 0 
L 4359 0 
L 4359 2091 
Q 4359 2428 4304 2576 
Q 4250 2725 4106 2815 
Q 3963 2906 3769 2906 
Q 3419 2906 3187 2673 
Q 2956 2441 2956 1928 
L 2956 0 
L 2394 0 
L 2394 2156 
Q 2394 2531 2256 2718 
Q 2119 2906 1806 2906 
Q 1569 2906 1367 2781 
Q 1166 2656 1075 2415 
Q 984 2175 984 1722 
L 984 0 
L 422 0 
z
" transform="scale(0.015625)"/>
      <path id="ArialMT-70" d="M 422 -1272 
L 422 3319 
L 934 3319 
L 934 2888 
Q 1116 3141 1344 3267 
Q 1572 3394 1897 3394 
Q 2322 3394 2647 3175 
Q 2972 2956 3137 2557 
Q 3303 2159 3303 1684 
Q 3303 1175 3120 767 
Q 2938 359 2589 142 
Q 2241 -75 1856 -75 
Q 1575 -75 1351 44 
Q 1128 163 984 344 
L 984 -1272 
L 422 -1272 
z
M 931 1641 
Q 931 1000 1190 694 
Q 1450 388 1819 388 
Q 2194 388 2461 705 
Q 2728 1022 2728 1688 
Q 2728 2322 2467 2637 
Q 2206 2953 1844 2953 
Q 1484 2953 1207 2617 
Q 931 2281 931 1641 
z
" transform="scale(0.015625)"/>
      <path id="ArialMT-6e" d="M 422 0 
L 422 3319 
L 928 3319 
L 928 2847 
Q 1294 3394 1984 3394 
Q 2284 3394 2536 3286 
Q 2788 3178 2913 3003 
Q 3038 2828 3088 2588 
Q 3119 2431 3119 2041 
L 3119 0 
L 2556 0 
L 2556 2019 
Q 2556 2363 2490 2533 
Q 2425 2703 2258 2804 
Q 2091 2906 1866 2906 
Q 1506 2906 1245 2678 
Q 984 2450 984 1813 
L 984 0 
L 422 0 
z
" transform="scale(0.015625)"/>
      <path id="ArialMT-29" d="M 791 -1347 
L 388 -1347 
Q 1322 153 1322 1656 
Q 1322 2244 1188 2822 
Q 1081 3291 891 3722 
Q 769 4003 388 4659 
L 791 4659 
Q 1378 3875 1659 3084 
Q 1900 2403 1900 1659 
Q 1900 816 1576 28 
Q 1253 -759 791 -1347 
z
" transform="scale(0.015625)"/>
     </defs>
     <use xlink:href="#ArialMT-42"/>
     <use xlink:href="#ArialMT-72" transform="translate(66.699219 0)"/>
     <use xlink:href="#ArialMT-69" transform="translate(100 0)"/>
     <use xlink:href="#ArialMT-65" transform="translate(122.216797 0)"/>
     <use xlink:href="#ArialMT-72" transform="translate(177.832031 0)"/>
     <use xlink:href="#ArialMT-20" transform="translate(211.132812 0)"/>
     <use xlink:href="#ArialMT-53" transform="translate(238.916016 0)"/>
     <use xlink:href="#ArialMT-63" transform="translate(305.615234 0)"/>
     <use xlink:href="#ArialMT-6f" transform="translate(355.615234 0)"/>
     <use xlink:href="#ArialMT-72" transform="translate(411.230469 0)"/>
     <use xlink:href="#ArialMT-65" transform="translate(444.53125 0)"/>
     <use xlink:href="#ArialMT-73" transform="translate(500.146484 0)"/>
     <use xlink:href="#ArialMT-20" transform="translate(550.146484 0)"/>
     <use xlink:href="#ArialMT-62" transform="translate(577.929688 0)"/>
     <use xlink:href="#ArialMT-79" transform="translate(633.544922 0)"/>
     <use xlink:href="#ArialMT-20" transform="translate(683.544922 0)"/>
     <use xlink:href="#ArialMT-4d" transform="translate(711.328125 0)"/>
     <use xlink:href="#ArialMT-61" transform="translate(794.628906 0)"/>
     <use xlink:href="#ArialMT-74" transform="translate(850.244141 0)"/>
     <use xlink:href="#ArialMT-63" transform="translate(878.027344 0)"/>
     <use xlink:href="#ArialMT-68" transform="translate(928.027344 0)"/>
     <use xlink:href="#ArialMT-20" transform="translate(983.642578 0)"/>
     <use xlink:href="#ArialMT-57" transform="translate(1011.425781 0)"/>
     <use xlink:href="#ArialMT-65" transform="translate(1104.060547 0)"/>
     <use xlink:href="#ArialMT-65" transform="translate(1159.675781 0)"/>
     <use xlink:href="#ArialMT-6b" transform="translate(1215.291016 0)"/>
     <use xlink:href="#ArialMT-20" transform="translate(1265.291016 0)"/>
     <use xlink:href="#ArialMT-28" transform="translate(1293.074219 0)"/>
     <use xlink:href="#ArialMT-42" transform="translate(1326.375 0)"/>
     <use xlink:href="#ArialMT-65" transform="translate(1393.074219 0)"/>
     <use xlink:href="#ArialMT-73" transform="translate(1448.689453 0)"/>
     <use xlink:href="#ArialMT-74" transform="translate(1498.689453 0)"/>
     <use xlink:href="#ArialMT-20" transform="translate(1526.472656 0)"/>
     <use xlink:href="#ArialMT-4d" transform="translate(1554.255859 0)"/>
     <use xlink:href="#ArialMT-6f" transform="translate(1637.556641 0)"/>
     <use xlink:href="#ArialMT-64" transform="translate(1693.171875 0)"/>
     <use xlink:href="#ArialMT-65" transform="translate(1748.787109 0)"/>
     <use xlink:href="#ArialMT-6c" transform="translate(1804.402344 0)"/>
     <use xlink:href="#ArialMT-73" transform="translate(1826.619141 0)"/>
     <use xlink:href="#ArialMT-20" transform="translate(1876.619141 0)"/>
     <use xlink:href="#ArialMT-43" transform="translate(1904.402344 0)"/>
     <use xlink:href="#ArialMT-6f" transform="translate(1976.619141 0)"/>
     <use xlink:href="#ArialMT-6d" transform="translate(2032.234375 0)"/>
     <use xlink:href="#ArialMT-70" transform="translate(2115.535156 0)"/>
     <use xlink:href="#ArialMT-61" transform="translate(2171.150391 0)"/>
     <use xlink:href="#ArialMT-72" transform="translate(2226.765625 0)"/>
     <use xlink:href="#ArialMT-69" transform="translate(2260.066406 0)"/>
     <use xlink:href="#ArialMT-73" transform="translate(2282.283203 0)"/>
     <use xlink:href="#ArialMT-6f" transform="translate(2332.283203 0)"/>
     <use xlink:href="#ArialMT-6e" transform="translate(2387.898438 0)"/>
     <use xlink:href="#ArialMT-29" transform="translate(2443.513672 0)"/>
    </g>
   </g>
   <g id="legend_1">
    <g id="patch_12">
     <path d="M 61.864375 132.864063 
L 227.285469 132.864063 
Q 229.485469 132.864063 229.485469 130.664063 
L 229.485469 36.835625 
Q 229.485469 34.635625 227.285469 34.635625 
L 61.864375 34.635625 
Q 59.664375 34.635625 59.664375 36.835625 
L 59.664375 130.664063 
Q 59.664375 132.864063 61.864375 132.864063 
z
" style="fill: #e8f1f2; opacity: 0.8; stroke: #cccccc; stroke-linejoin: miter"/>
    </g>
    <g id="text_25">
     <!-- Model -->
     <g style="fill: #033164" transform="translate(128.234297 47.625) scale(0.12 -0.12)">
      <use xlink:href="#ArialMT-4d"/>
      <use xlink:href="#ArialMT-6f" transform="translate(83.300781 0)"/>
      <use xlink:href="#ArialMT-64" transform="translate(138.916016 0)"/>
      <use xlink:href="#ArialMT-65" transform="translate(194.53125 0)"/>
      <use xlink:href="#ArialMT-6c" transform="translate(250.146484 0)"/>
     </g>
    </g>
    <g id="line2d_27">
     <path d="M 64.064375 59.533594 
L 75.064375 59.533594 
L 86.064375 59.533594 
" style="fill: none; stroke: #4c72b0; stroke-width: 1.5; stroke-linecap: round"/>
     <g>
      <use xlink:href="#m80f7eea120" x="75.064375" y="59.533594" style="fill: #4c72b0; stroke: #e8f1f2; stroke-width: 0.75"/>
     </g>
    </g>
    <g id="text_26">
     <!-- GaussianNB -->
     <g style="fill: #033164" transform="translate(94.864375 63.383594) scale(0.11 -0.11)">
      <defs>
       <path id="ArialMT-47" d="M 2638 1797 
L 2638 2334 
L 4578 2338 
L 4578 638 
Q 4131 281 3656 101 
Q 3181 -78 2681 -78 
Q 2006 -78 1454 211 
Q 903 500 622 1047 
Q 341 1594 341 2269 
Q 341 2938 620 3517 
Q 900 4097 1425 4378 
Q 1950 4659 2634 4659 
Q 3131 4659 3532 4498 
Q 3934 4338 4162 4050 
Q 4391 3763 4509 3300 
L 3963 3150 
Q 3859 3500 3706 3700 
Q 3553 3900 3268 4020 
Q 2984 4141 2638 4141 
Q 2222 4141 1919 4014 
Q 1616 3888 1430 3681 
Q 1244 3475 1141 3228 
Q 966 2803 966 2306 
Q 966 1694 1177 1281 
Q 1388 869 1791 669 
Q 2194 469 2647 469 
Q 3041 469 3416 620 
Q 3791 772 3984 944 
L 3984 1797 
L 2638 1797 
z
" transform="scale(0.015625)"/>
       <path id="ArialMT-75" d="M 2597 0 
L 2597 488 
Q 2209 -75 1544 -75 
Q 1250 -75 995 37 
Q 741 150 617 320 
Q 494 491 444 738 
Q 409 903 409 1263 
L 409 3319 
L 972 3319 
L 972 1478 
Q 972 1038 1006 884 
Q 1059 663 1231 536 
Q 1403 409 1656 409 
Q 1909 409 2131 539 
Q 2353 669 2445 892 
Q 2538 1116 2538 1541 
L 2538 3319 
L 3100 3319 
L 3100 0 
L 2597 0 
z
" transform="scale(0.015625)"/>
       <path id="ArialMT-4e" d="M 488 0 
L 488 4581 
L 1109 4581 
L 3516 984 
L 3516 4581 
L 4097 4581 
L 4097 0 
L 3475 0 
L 1069 3600 
L 1069 0 
L 488 0 
z
" transform="scale(0.015625)"/>
      </defs>
      <use xlink:href="#ArialMT-47"/>
      <use xlink:href="#ArialMT-61" transform="translate(77.783203 0)"/>
      <use xlink:href="#ArialMT-75" transform="translate(133.398438 0)"/>
      <use xlink:href="#ArialMT-73" transform="translate(189.013672 0)"/>
      <use xlink:href="#ArialMT-73" transform="translate(239.013672 0)"/>
      <use xlink:href="#ArialMT-69" transform="translate(289.013672 0)"/>
      <use xlink:href="#ArialMT-61" transform="translate(311.230469 0)"/>
      <use xlink:href="#ArialMT-6e" transform="translate(366.845703 0)"/>
      <use xlink:href="#ArialMT-4e" transform="translate(422.460938 0)"/>
      <use xlink:href="#ArialMT-42" transform="translate(494.677734 0)"/>
     </g>
    </g>
    <g id="line2d_28">
     <path d="M 64.064375 75.2275 
L 75.064375 75.2275 
L 86.064375 75.2275 
" style="fill: none; stroke: #dd8452; stroke-width: 1.5; stroke-linecap: round"/>
     <g>
      <use xlink:href="#m57809bdbda" x="75.064375" y="75.2275" style="fill: #dd8452; stroke: #e8f1f2; stroke-width: 0.75"/>
     </g>
    </g>
    <g id="text_27">
     <!-- GradientBoostingClassifier -->
     <g style="fill: #033164" transform="translate(94.864375 79.0775) scale(0.11 -0.11)">
      <defs>
       <path id="ArialMT-67" d="M 319 -275 
L 866 -356 
Q 900 -609 1056 -725 
Q 1266 -881 1628 -881 
Q 2019 -881 2231 -725 
Q 2444 -569 2519 -288 
Q 2563 -116 2559 434 
Q 2191 0 1641 0 
Q 956 0 581 494 
Q 206 988 206 1678 
Q 206 2153 378 2554 
Q 550 2956 876 3175 
Q 1203 3394 1644 3394 
Q 2231 3394 2613 2919 
L 2613 3319 
L 3131 3319 
L 3131 450 
Q 3131 -325 2973 -648 
Q 2816 -972 2473 -1159 
Q 2131 -1347 1631 -1347 
Q 1038 -1347 672 -1080 
Q 306 -813 319 -275 
z
M 784 1719 
Q 784 1066 1043 766 
Q 1303 466 1694 466 
Q 2081 466 2343 764 
Q 2606 1063 2606 1700 
Q 2606 2309 2336 2618 
Q 2066 2928 1684 2928 
Q 1309 2928 1046 2623 
Q 784 2319 784 1719 
z
" transform="scale(0.015625)"/>
       <path id="ArialMT-66" d="M 556 0 
L 556 2881 
L 59 2881 
L 59 3319 
L 556 3319 
L 556 3672 
Q 556 4006 616 4169 
Q 697 4388 901 4523 
Q 1106 4659 1475 4659 
Q 1713 4659 2000 4603 
L 1916 4113 
Q 1741 4144 1584 4144 
Q 1328 4144 1222 4034 
Q 1116 3925 1116 3625 
L 1116 3319 
L 1763 3319 
L 1763 2881 
L 1116 2881 
L 1116 0 
L 556 0 
z
" transform="scale(0.015625)"/>
      </defs>
      <use xlink:href="#ArialMT-47"/>
      <use xlink:href="#ArialMT-72" transform="translate(77.783203 0)"/>
      <use xlink:href="#ArialMT-61" transform="translate(111.083984 0)"/>
      <use xlink:href="#ArialMT-64" transform="translate(166.699219 0)"/>
      <use xlink:href="#ArialMT-69" transform="translate(222.314453 0)"/>
      <use xlink:href="#ArialMT-65" transform="translate(244.53125 0)"/>
      <use xlink:href="#ArialMT-6e" transform="translate(300.146484 0)"/>
      <use xlink:href="#ArialMT-74" transform="translate(355.761719 0)"/>
      <use xlink:href="#ArialMT-42" transform="translate(383.544922 0)"/>
      <use xlink:href="#ArialMT-6f" transform="translate(450.244141 0)"/>
      <use xlink:href="#ArialMT-6f" transform="translate(505.859375 0)"/>
      <use xlink:href="#ArialMT-73" transform="translate(561.474609 0)"/>
      <use xlink:href="#ArialMT-74" transform="translate(611.474609 0)"/>
      <use xlink:href="#ArialMT-69" transform="translate(639.257812 0)"/>
      <use xlink:href="#ArialMT-6e" transform="translate(661.474609 0)"/>
      <use xlink:href="#ArialMT-67" transform="translate(717.089844 0)"/>
      <use xlink:href="#ArialMT-43" transform="translate(772.705078 0)"/>
      <use xlink:href="#ArialMT-6c" transform="translate(844.921875 0)"/>
      <use xlink:href="#ArialMT-61" transform="translate(867.138672 0)"/>
      <use xlink:href="#ArialMT-73" transform="translate(922.753906 0)"/>
      <use xlink:href="#ArialMT-73" transform="translate(972.753906 0)"/>
      <use xlink:href="#ArialMT-69" transform="translate(1022.753906 0)"/>
      <use xlink:href="#ArialMT-66" transform="translate(1044.970703 0)"/>
      <use xlink:href="#ArialMT-69" transform="translate(1072.753906 0)"/>
      <use xlink:href="#ArialMT-65" transform="translate(1094.970703 0)"/>
      <use xlink:href="#ArialMT-72" transform="translate(1150.585938 0)"/>
     </g>
    </g>
    <g id="line2d_29">
     <path d="M 64.064375 91.050313 
L 75.064375 91.050313 
L 86.064375 91.050313 
" style="fill: none; stroke: #55a868; stroke-width: 1.5; stroke-linecap: round"/>
     <g>
      <use xlink:href="#m2787e7b33c" x="75.064375" y="91.050313" style="fill: #55a868; stroke: #e8f1f2; stroke-width: 0.75"/>
     </g>
    </g>
    <g id="text_28">
     <!-- KNeighborsClassifier -->
     <g style="fill: #033164" transform="translate(94.864375 94.900313) scale(0.11 -0.11)">
      <defs>
       <path id="ArialMT-4b" d="M 469 0 
L 469 4581 
L 1075 4581 
L 1075 2309 
L 3350 4581 
L 4172 4581 
L 2250 2725 
L 4256 0 
L 3456 0 
L 1825 2319 
L 1075 1588 
L 1075 0 
L 469 0 
z
" transform="scale(0.015625)"/>
      </defs>
      <use xlink:href="#ArialMT-4b"/>
      <use xlink:href="#ArialMT-4e" transform="translate(66.699219 0)"/>
      <use xlink:href="#ArialMT-65" transform="translate(138.916016 0)"/>
      <use xlink:href="#ArialMT-69" transform="translate(194.53125 0)"/>
      <use xlink:href="#ArialMT-67" transform="translate(216.748047 0)"/>
      <use xlink:href="#ArialMT-68" transform="translate(272.363281 0)"/>
      <use xlink:href="#ArialMT-62" transform="translate(327.978516 0)"/>
      <use xlink:href="#ArialMT-6f" transform="translate(383.59375 0)"/>
      <use xlink:href="#ArialMT-72" transform="translate(439.208984 0)"/>
      <use xlink:href="#ArialMT-73" transform="translate(472.509766 0)"/>
      <use xlink:href="#ArialMT-43" transform="translate(522.509766 0)"/>
      <use xlink:href="#ArialMT-6c" transform="translate(594.726562 0)"/>
      <use xlink:href="#ArialMT-61" transform="translate(616.943359 0)"/>
      <use xlink:href="#ArialMT-73" transform="translate(672.558594 0)"/>
      <use xlink:href="#ArialMT-73" transform="translate(722.558594 0)"/>
      <use xlink:href="#ArialMT-69" transform="translate(772.558594 0)"/>
      <use xlink:href="#ArialMT-66" transform="translate(794.775391 0)"/>
      <use xlink:href="#ArialMT-69" transform="translate(822.558594 0)"/>
      <use xlink:href="#ArialMT-65" transform="translate(844.775391 0)"/>
      <use xlink:href="#ArialMT-72" transform="translate(900.390625 0)"/>
     </g>
    </g>
    <g id="line2d_30">
     <path d="M 64.064375 106.739063 
L 75.064375 106.739063 
L 86.064375 106.739063 
" style="fill: none; stroke: #c44e52; stroke-width: 1.5; stroke-linecap: round"/>
     <g>
      <use xlink:href="#m91b1bc6f34" x="75.064375" y="106.739063" style="fill: #c44e52; stroke: #e8f1f2; stroke-width: 0.75"/>
     </g>
    </g>
    <g id="text_29">
     <!-- LogisticRegression -->
     <g style="fill: #033164" transform="translate(94.864375 110.589063) scale(0.11 -0.11)">
      <defs>
       <path id="ArialMT-4c" d="M 469 0 
L 469 4581 
L 1075 4581 
L 1075 541 
L 3331 541 
L 3331 0 
L 469 0 
z
" transform="scale(0.015625)"/>
       <path id="ArialMT-52" d="M 503 0 
L 503 4581 
L 2534 4581 
Q 3147 4581 3465 4457 
Q 3784 4334 3975 4021 
Q 4166 3709 4166 3331 
Q 4166 2844 3850 2509 
Q 3534 2175 2875 2084 
Q 3116 1969 3241 1856 
Q 3506 1613 3744 1247 
L 4541 0 
L 3778 0 
L 3172 953 
Q 2906 1366 2734 1584 
Q 2563 1803 2427 1890 
Q 2291 1978 2150 2013 
Q 2047 2034 1813 2034 
L 1109 2034 
L 1109 0 
L 503 0 
z
M 1109 2559 
L 2413 2559 
Q 2828 2559 3062 2645 
Q 3297 2731 3419 2920 
Q 3541 3109 3541 3331 
Q 3541 3656 3305 3865 
Q 3069 4075 2559 4075 
L 1109 4075 
L 1109 2559 
z
" transform="scale(0.015625)"/>
      </defs>
      <use xlink:href="#ArialMT-4c"/>
      <use xlink:href="#ArialMT-6f" transform="translate(55.615234 0)"/>
      <use xlink:href="#ArialMT-67" transform="translate(111.230469 0)"/>
      <use xlink:href="#ArialMT-69" transform="translate(166.845703 0)"/>
      <use xlink:href="#ArialMT-73" transform="translate(189.0625 0)"/>
      <use xlink:href="#ArialMT-74" transform="translate(239.0625 0)"/>
      <use xlink:href="#ArialMT-69" transform="translate(266.845703 0)"/>
      <use xlink:href="#ArialMT-63" transform="translate(289.0625 0)"/>
      <use xlink:href="#ArialMT-52" transform="translate(339.0625 0)"/>
      <use xlink:href="#ArialMT-65" transform="translate(411.279297 0)"/>
      <use xlink:href="#ArialMT-67" transform="translate(466.894531 0)"/>
      <use xlink:href="#ArialMT-72" transform="translate(522.509766 0)"/>
      <use xlink:href="#ArialMT-65" transform="translate(555.810547 0)"/>
      <use xlink:href="#ArialMT-73" transform="translate(611.425781 0)"/>
      <use xlink:href="#ArialMT-73" transform="translate(661.425781 0)"/>
      <use xlink:href="#ArialMT-69" transform="translate(711.425781 0)"/>
      <use xlink:href="#ArialMT-6f" transform="translate(733.642578 0)"/>
      <use xlink:href="#ArialMT-6e" transform="translate(789.257812 0)"/>
     </g>
    </g>
    <g id="line2d_31">
     <path d="M 64.064375 122.427813 
L 75.064375 122.427813 
L 86.064375 122.427813 
" style="fill: none; stroke: #8172b3; stroke-width: 1.5; stroke-linecap: round"/>
     <g>
      <use xlink:href="#m673774caf5" x="75.064375" y="122.427813" style="fill: #8172b3; stroke: #e8f1f2; stroke-width: 0.75"/>
     </g>
    </g>
    <g id="text_30">
     <!-- RandomForestClassifier -->
     <g style="fill: #033164" transform="translate(94.864375 126.277813) scale(0.11 -0.11)">
      <defs>
       <path id="ArialMT-46" d="M 525 0 
L 525 4581 
L 3616 4581 
L 3616 4041 
L 1131 4041 
L 1131 2622 
L 3281 2622 
L 3281 2081 
L 1131 2081 
L 1131 0 
L 525 0 
z
" transform="scale(0.015625)"/>
      </defs>
      <use xlink:href="#ArialMT-52"/>
      <use xlink:href="#ArialMT-61" transform="translate(72.216797 0)"/>
      <use xlink:href="#ArialMT-6e" transform="translate(127.832031 0)"/>
      <use xlink:href="#ArialMT-64" transform="translate(183.447266 0)"/>
      <use xlink:href="#ArialMT-6f" transform="translate(239.0625 0)"/>
      <use xlink:href="#ArialMT-6d" transform="translate(294.677734 0)"/>
      <use xlink:href="#ArialMT-46" transform="translate(377.978516 0)"/>
      <use xlink:href="#ArialMT-6f" transform="translate(439.0625 0)"/>
      <use xlink:href="#ArialMT-72" transform="translate(494.677734 0)"/>
      <use xlink:href="#ArialMT-65" transform="translate(527.978516 0)"/>
      <use xlink:href="#ArialMT-73" transform="translate(583.59375 0)"/>
      <use xlink:href="#ArialMT-74" transform="translate(633.59375 0)"/>
      <use xlink:href="#ArialMT-43" transform="translate(661.376953 0)"/>
      <use xlink:href="#ArialMT-6c" transform="translate(733.59375 0)"/>
      <use xlink:href="#ArialMT-61" transform="translate(755.810547 0)"/>
      <use xlink:href="#ArialMT-73" transform="translate(811.425781 0)"/>
      <use xlink:href="#ArialMT-73" transform="translate(861.425781 0)"/>
      <use xlink:href="#ArialMT-69" transform="translate(911.425781 0)"/>
      <use xlink:href="#ArialMT-66" transform="translate(933.642578 0)"/>
      <use xlink:href="#ArialMT-69" transform="translate(961.425781 0)"/>
      <use xlink:href="#ArialMT-65" transform="translate(983.642578 0)"/>
      <use xlink:href="#ArialMT-72" transform="translate(1039.257812 0)"/>
     </g>
    </g>
   </g>
  </g>
 </g>
 <defs>
  <clipPath id="pcdd230ba44">
   <rect x="54.164375" y="29.135625" width="781.2" height="332.64"/>
  </clipPath>
 </defs>
</svg>
