<?xml version="1.0" encoding="utf-8" standalone="no"?>
<!DOCTYPE svg PUBLIC "-//W3C//DTD SVG 1.1//EN"
  "http://www.w3.org/Graphics/SVG/1.1/DTD/svg11.dtd">
<svg xmlns:xlink="http://www.w3.org/1999/xlink" width="849.764375pt" height="410.709844pt" viewBox="0 0 849.764375 410.709844" xmlns="http://www.w3.org/2000/svg" version="1.1">
 <metadata>
  <rdf:RDF xmlns:dc="http://purl.org/dc/elements/1.1/" xmlns:cc="http://creativecommons.org/ns#" xmlns:rdf="http://www.w3.org/1999/02/22-rdf-syntax-ns#">
   <cc:Work>
    <dc:type rdf:resource="http://purl.org/dc/dcmitype/StillImage"/>
    <dc:date>2025-07-31T23:46:54.972573</dc:date>
    <dc:format>image/svg+xml</dc:format>
    <dc:creator>
     <cc:Agent>
      <dc:title>Matplotlib v3.10.3, https://matplotlib.org/</dc:title>
     </cc:Agent>
    </dc:creator>
   </cc:Work>
  </rdf:RDF>
 </metadata>
 <defs>
  <style type="text/css">*{stroke-linejoin: round; stroke-linecap: butt}</style>
 </defs>
 <g id="figure_1">
  <g id="patch_1">
   <path d="M 0 410.709844 
L 849.764375 410.709844 
L 849.764375 0 
L 0 0 
z
" style="fill: #e8f1f2"/>
  </g>
  <g id="axes_1">
   <g id="patch_2">
    <path d="M 54.164375 361.775625 
L 835.364375 361.775625 
L 835.364375 29.135625 
L 54.164375 29.135625 
z
" style="fill: #e8f1f2"/>
   </g>
   <g id="line2d_1">
    <path d="M 54.164375 169.485775 
L 835.364375 169.485775 
" clip-path="url(#p0b570fbc2f)" style="fill: none; stroke-dasharray: 4.44,1.92; stroke-dashoffset: 0; stroke: #4c72b0; stroke-width: 1.2"/>
   </g>
   <g id="line2d_2">
    <path d="M 54.164375 326.691096 
L 835.364375 326.691096 
" clip-path="url(#p0b570fbc2f)" style="fill: none; stroke-dasharray: 4.44,1.92; stroke-dashoffset: 0; stroke: #dd8452; stroke-width: 1.2"/>
   </g>
   <g id="line2d_3">
    <path d="M 54.164375 243.563404 
L 835.364375 243.563404 
" clip-path="url(#p0b570fbc2f)" style="fill: none; stroke-dasharray: 4.44,1.92; stroke-dashoffset: 0; stroke: #55a868; stroke-width: 1.2"/>
   </g>
   <g id="line2d_4">
    <path d="M 54.164375 233.81936 
L 835.364375 233.81936 
" clip-path="url(#p0b570fbc2f)" style="fill: none; stroke-dasharray: 4.44,1.92; stroke-dashoffset: 0; stroke: #c44e52; stroke-width: 1.2"/>
   </g>
   <g id="line2d_5">
    <path d="M 54.164375 305.521355 
L 835.364375 305.521355 
" clip-path="url(#p0b570fbc2f)" style="fill: none; stroke-dasharray: 4.44,1.92; stroke-dashoffset: 0; stroke: #8172b3; stroke-width: 1.2"/>
   </g>
   <g id="matplotlib.axis_1">
    <g id="xtick_1">
     <g id="line2d_6">
      <path d="M 54.164375 361.775625 
L 54.164375 29.135625 
" clip-path="url(#p0b570fbc2f)" style="fill: none; stroke-dasharray: 3.7,1.6; stroke-dashoffset: 0; stroke: #cccccc; stroke-opacity: 0.5"/>
     </g>
     <g id="text_1">
      <!-- 0 -->
      <g style="fill: #033164" transform="translate(51.105859 379.149219) scale(0.11 -0.11)">
       <defs>
        <path id="ArialMT-30" d="M 266 2259 
Q 266 3072 433 3567 
Q 600 4063 929 4331 
Q 1259 4600 1759 4600 
Q 2128 4600 2406 4451 
Q 2684 4303 2865 4023 
Q 3047 3744 3150 3342 
Q 3253 2941 3253 2259 
Q 3253 1453 3087 958 
Q 2922 463 2592 192 
Q 2263 -78 1759 -78 
Q 1097 -78 719 397 
Q 266 969 266 2259 
z
M 844 2259 
Q 844 1131 1108 757 
Q 1372 384 1759 384 
Q 2147 384 2411 759 
Q 2675 1134 2675 2259 
Q 2675 3391 2411 3762 
Q 2147 4134 1753 4134 
Q 1366 4134 1134 3806 
Q 844 3388 844 2259 
z
" transform="scale(0.015625)"/>
       </defs>
       <use xlink:href="#ArialMT-30"/>
      </g>
     </g>
    </g>
    <g id="xtick_2">
     <g id="line2d_7">
      <path d="M 162.664375 361.775625 
L 162.664375 29.135625 
" clip-path="url(#p0b570fbc2f)" style="fill: none; stroke-dasharray: 3.7,1.6; stroke-dashoffset: 0; stroke: #cccccc; stroke-opacity: 0.5"/>
     </g>
     <g id="text_2">
      <!-- 5 -->
      <g style="fill: #033164" transform="translate(159.605859 379.149219) scale(0.11 -0.11)">
       <defs>
        <path id="ArialMT-35" d="M 266 1200 
L 856 1250 
Q 922 819 1161 601 
Q 1400 384 1738 384 
Q 2144 384 2425 690 
Q 2706 997 2706 1503 
Q 2706 1984 2436 2262 
Q 2166 2541 1728 2541 
Q 1456 2541 1237 2417 
Q 1019 2294 894 2097 
L 366 2166 
L 809 4519 
L 3088 4519 
L 3088 3981 
L 1259 3981 
L 1013 2750 
Q 1425 3038 1878 3038 
Q 2478 3038 2890 2622 
Q 3303 2206 3303 1553 
Q 3303 931 2941 478 
Q 2500 -78 1738 -78 
Q 1113 -78 717 272 
Q 322 622 266 1200 
z
" transform="scale(0.015625)"/>
       </defs>
       <use xlink:href="#ArialMT-35"/>
      </g>
     </g>
    </g>
    <g id="xtick_3">
     <g id="line2d_8">
      <path d="M 271.164375 361.775625 
L 271.164375 29.135625 
" clip-path="url(#p0b570fbc2f)" style="fill: none; stroke-dasharray: 3.7,1.6; stroke-dashoffset: 0; stroke: #cccccc; stroke-opacity: 0.5"/>
     </g>
     <g id="text_3">
      <!-- 10 -->
      <g style="fill: #033164" transform="translate(265.047344 379.149219) scale(0.11 -0.11)">
       <defs>
        <path id="ArialMT-31" d="M 2384 0 
L 1822 0 
L 1822 3584 
Q 1619 3391 1289 3197 
Q 959 3003 697 2906 
L 697 3450 
Q 1169 3672 1522 3987 
Q 1875 4303 2022 4600 
L 2384 4600 
L 2384 0 
z
" transform="scale(0.015625)"/>
       </defs>
       <use xlink:href="#ArialMT-31"/>
       <use xlink:href="#ArialMT-30" transform="translate(55.615234 0)"/>
      </g>
     </g>
    </g>
    <g id="xtick_4">
     <g id="line2d_9">
      <path d="M 379.664375 361.775625 
L 379.664375 29.135625 
" clip-path="url(#p0b570fbc2f)" style="fill: none; stroke-dasharray: 3.7,1.6; stroke-dashoffset: 0; stroke: #cccccc; stroke-opacity: 0.5"/>
     </g>
     <g id="text_4">
      <!-- 15 -->
      <g style="fill: #033164" transform="translate(373.547344 379.149219) scale(0.11 -0.11)">
       <use xlink:href="#ArialMT-31"/>
       <use xlink:href="#ArialMT-35" transform="translate(55.615234 0)"/>
      </g>
     </g>
    </g>
    <g id="xtick_5">
     <g id="line2d_10">
      <path d="M 488.164375 361.775625 
L 488.164375 29.135625 
" clip-path="url(#p0b570fbc2f)" style="fill: none; stroke-dasharray: 3.7,1.6; stroke-dashoffset: 0; stroke: #cccccc; stroke-opacity: 0.5"/>
     </g>
     <g id="text_5">
      <!-- 20 -->
      <g style="fill: #033164" transform="translate(482.047344 379.149219) scale(0.11 -0.11)">
       <defs>
        <path id="ArialMT-32" d="M 3222 541 
L 3222 0 
L 194 0 
Q 188 203 259 391 
Q 375 700 629 1000 
Q 884 1300 1366 1694 
Q 2113 2306 2375 2664 
Q 2638 3022 2638 3341 
Q 2638 3675 2398 3904 
Q 2159 4134 1775 4134 
Q 1369 4134 1125 3890 
Q 881 3647 878 3216 
L 300 3275 
Q 359 3922 746 4261 
Q 1134 4600 1788 4600 
Q 2447 4600 2831 4234 
Q 3216 3869 3216 3328 
Q 3216 3053 3103 2787 
Q 2991 2522 2730 2228 
Q 2469 1934 1863 1422 
Q 1356 997 1212 845 
Q 1069 694 975 541 
L 3222 541 
z
" transform="scale(0.015625)"/>
       </defs>
       <use xlink:href="#ArialMT-32"/>
       <use xlink:href="#ArialMT-30" transform="translate(55.615234 0)"/>
      </g>
     </g>
    </g>
    <g id="xtick_6">
     <g id="line2d_11">
      <path d="M 596.664375 361.775625 
L 596.664375 29.135625 
" clip-path="url(#p0b570fbc2f)" style="fill: none; stroke-dasharray: 3.7,1.6; stroke-dashoffset: 0; stroke: #cccccc; stroke-opacity: 0.5"/>
     </g>
     <g id="text_6">
      <!-- 25 -->
      <g style="fill: #033164" transform="translate(590.547344 379.149219) scale(0.11 -0.11)">
       <use xlink:href="#ArialMT-32"/>
       <use xlink:href="#ArialMT-35" transform="translate(55.615234 0)"/>
      </g>
     </g>
    </g>
    <g id="xtick_7">
     <g id="line2d_12">
      <path d="M 705.164375 361.775625 
L 705.164375 29.135625 
" clip-path="url(#p0b570fbc2f)" style="fill: none; stroke-dasharray: 3.7,1.6; stroke-dashoffset: 0; stroke: #cccccc; stroke-opacity: 0.5"/>
     </g>
     <g id="text_7">
      <!-- 30 -->
      <g style="fill: #033164" transform="translate(699.047344 379.149219) scale(0.11 -0.11)">
       <defs>
        <path id="ArialMT-33" d="M 269 1209 
L 831 1284 
Q 928 806 1161 595 
Q 1394 384 1728 384 
Q 2125 384 2398 659 
Q 2672 934 2672 1341 
Q 2672 1728 2419 1979 
Q 2166 2231 1775 2231 
Q 1616 2231 1378 2169 
L 1441 2663 
Q 1497 2656 1531 2656 
Q 1891 2656 2178 2843 
Q 2466 3031 2466 3422 
Q 2466 3731 2256 3934 
Q 2047 4138 1716 4138 
Q 1388 4138 1169 3931 
Q 950 3725 888 3313 
L 325 3413 
Q 428 3978 793 4289 
Q 1159 4600 1703 4600 
Q 2078 4600 2393 4439 
Q 2709 4278 2876 4000 
Q 3044 3722 3044 3409 
Q 3044 3113 2884 2869 
Q 2725 2625 2413 2481 
Q 2819 2388 3044 2092 
Q 3269 1797 3269 1353 
Q 3269 753 2831 336 
Q 2394 -81 1725 -81 
Q 1122 -81 723 278 
Q 325 638 269 1209 
z
" transform="scale(0.015625)"/>
       </defs>
       <use xlink:href="#ArialMT-33"/>
       <use xlink:href="#ArialMT-30" transform="translate(55.615234 0)"/>
      </g>
     </g>
    </g>
    <g id="xtick_8">
     <g id="line2d_13">
      <path d="M 813.664375 361.775625 
L 813.664375 29.135625 
" clip-path="url(#p0b570fbc2f)" style="fill: none; stroke-dasharray: 3.7,1.6; stroke-dashoffset: 0; stroke: #cccccc; stroke-opacity: 0.5"/>
     </g>
     <g id="text_8">
      <!-- 35 -->
      <g style="fill: #033164" transform="translate(807.547344 379.149219) scale(0.11 -0.11)">
       <use xlink:href="#ArialMT-33"/>
       <use xlink:href="#ArialMT-35" transform="translate(55.615234 0)"/>
      </g>
     </g>
    </g>
    <g id="text_9">
     <!-- Match Week -->
     <g style="fill: #033164" transform="translate(411.528125 393.924844) scale(0.12 -0.12)">
      <defs>
       <path id="ArialMT-4d" d="M 475 0 
L 475 4581 
L 1388 4581 
L 2472 1338 
Q 2622 884 2691 659 
Q 2769 909 2934 1394 
L 4031 4581 
L 4847 4581 
L 4847 0 
L 4263 0 
L 4263 3834 
L 2931 0 
L 2384 0 
L 1059 3900 
L 1059 0 
L 475 0 
z
" transform="scale(0.015625)"/>
       <path id="ArialMT-61" d="M 2588 409 
Q 2275 144 1986 34 
Q 1697 -75 1366 -75 
Q 819 -75 525 192 
Q 231 459 231 875 
Q 231 1119 342 1320 
Q 453 1522 633 1644 
Q 813 1766 1038 1828 
Q 1203 1872 1538 1913 
Q 2219 1994 2541 2106 
Q 2544 2222 2544 2253 
Q 2544 2597 2384 2738 
Q 2169 2928 1744 2928 
Q 1347 2928 1158 2789 
Q 969 2650 878 2297 
L 328 2372 
Q 403 2725 575 2942 
Q 747 3159 1072 3276 
Q 1397 3394 1825 3394 
Q 2250 3394 2515 3294 
Q 2781 3194 2906 3042 
Q 3031 2891 3081 2659 
Q 3109 2516 3109 2141 
L 3109 1391 
Q 3109 606 3145 398 
Q 3181 191 3288 0 
L 2700 0 
Q 2613 175 2588 409 
z
M 2541 1666 
Q 2234 1541 1622 1453 
Q 1275 1403 1131 1340 
Q 988 1278 909 1158 
Q 831 1038 831 891 
Q 831 666 1001 516 
Q 1172 366 1500 366 
Q 1825 366 2078 508 
Q 2331 650 2450 897 
Q 2541 1088 2541 1459 
L 2541 1666 
z
" transform="scale(0.015625)"/>
       <path id="ArialMT-74" d="M 1650 503 
L 1731 6 
Q 1494 -44 1306 -44 
Q 1000 -44 831 53 
Q 663 150 594 308 
Q 525 466 525 972 
L 525 2881 
L 113 2881 
L 113 3319 
L 525 3319 
L 525 4141 
L 1084 4478 
L 1084 3319 
L 1650 3319 
L 1650 2881 
L 1084 2881 
L 1084 941 
Q 1084 700 1114 631 
Q 1144 563 1211 522 
Q 1278 481 1403 481 
Q 1497 481 1650 503 
z
" transform="scale(0.015625)"/>
       <path id="ArialMT-63" d="M 2588 1216 
L 3141 1144 
Q 3050 572 2676 248 
Q 2303 -75 1759 -75 
Q 1078 -75 664 370 
Q 250 816 250 1647 
Q 250 2184 428 2587 
Q 606 2991 970 3192 
Q 1334 3394 1763 3394 
Q 2303 3394 2647 3120 
Q 2991 2847 3088 2344 
L 2541 2259 
Q 2463 2594 2264 2762 
Q 2066 2931 1784 2931 
Q 1359 2931 1093 2626 
Q 828 2322 828 1663 
Q 828 994 1084 691 
Q 1341 388 1753 388 
Q 2084 388 2306 591 
Q 2528 794 2588 1216 
z
" transform="scale(0.015625)"/>
       <path id="ArialMT-68" d="M 422 0 
L 422 4581 
L 984 4581 
L 984 2938 
Q 1378 3394 1978 3394 
Q 2347 3394 2619 3248 
Q 2891 3103 3008 2847 
Q 3125 2591 3125 2103 
L 3125 0 
L 2563 0 
L 2563 2103 
Q 2563 2525 2380 2717 
Q 2197 2909 1863 2909 
Q 1613 2909 1392 2779 
Q 1172 2650 1078 2428 
Q 984 2206 984 1816 
L 984 0 
L 422 0 
z
" transform="scale(0.015625)"/>
       <path id="ArialMT-20" transform="scale(0.015625)"/>
       <path id="ArialMT-57" d="M 1294 0 
L 78 4581 
L 700 4581 
L 1397 1578 
Q 1509 1106 1591 641 
Q 1766 1375 1797 1488 
L 2669 4581 
L 3400 4581 
L 4056 2263 
Q 4303 1400 4413 641 
Q 4500 1075 4641 1638 
L 5359 4581 
L 5969 4581 
L 4713 0 
L 4128 0 
L 3163 3491 
Q 3041 3928 3019 4028 
Q 2947 3713 2884 3491 
L 1913 0 
L 1294 0 
z
" transform="scale(0.015625)"/>
       <path id="ArialMT-65" d="M 2694 1069 
L 3275 997 
Q 3138 488 2766 206 
Q 2394 -75 1816 -75 
Q 1088 -75 661 373 
Q 234 822 234 1631 
Q 234 2469 665 2931 
Q 1097 3394 1784 3394 
Q 2450 3394 2872 2941 
Q 3294 2488 3294 1666 
Q 3294 1616 3291 1516 
L 816 1516 
Q 847 969 1125 678 
Q 1403 388 1819 388 
Q 2128 388 2347 550 
Q 2566 713 2694 1069 
z
M 847 1978 
L 2700 1978 
Q 2663 2397 2488 2606 
Q 2219 2931 1791 2931 
Q 1403 2931 1139 2672 
Q 875 2413 847 1978 
z
" transform="scale(0.015625)"/>
       <path id="ArialMT-6b" d="M 425 0 
L 425 4581 
L 988 4581 
L 988 1969 
L 2319 3319 
L 3047 3319 
L 1778 2088 
L 3175 0 
L 2481 0 
L 1384 1697 
L 988 1316 
L 988 0 
L 425 0 
z
" transform="scale(0.015625)"/>
      </defs>
      <use xlink:href="#ArialMT-4d"/>
      <use xlink:href="#ArialMT-61" transform="translate(83.300781 0)"/>
      <use xlink:href="#ArialMT-74" transform="translate(138.916016 0)"/>
      <use xlink:href="#ArialMT-63" transform="translate(166.699219 0)"/>
      <use xlink:href="#ArialMT-68" transform="translate(216.699219 0)"/>
      <use xlink:href="#ArialMT-20" transform="translate(272.314453 0)"/>
      <use xlink:href="#ArialMT-57" transform="translate(300.097656 0)"/>
      <use xlink:href="#ArialMT-65" transform="translate(392.732422 0)"/>
      <use xlink:href="#ArialMT-65" transform="translate(448.347656 0)"/>
      <use xlink:href="#ArialMT-6b" transform="translate(503.962891 0)"/>
     </g>
    </g>
   </g>
   <g id="matplotlib.axis_2">
    <g id="ytick_1">
     <g id="line2d_14">
      <path d="M 54.164375 351.20748 
L 835.364375 351.20748 
" clip-path="url(#p0b570fbc2f)" style="fill: none; stroke-dasharray: 3.7,1.6; stroke-dashoffset: 0; stroke: #cccccc; stroke-opacity: 0.5"/>
     </g>
     <g id="text_10">
      <!-- 0.0 -->
      <g style="fill: #033164" transform="translate(29.374375 355.144276) scale(0.11 -0.11)">
       <defs>
        <path id="ArialMT-2e" d="M 581 0 
L 581 641 
L 1222 641 
L 1222 0 
L 581 0 
z
" transform="scale(0.015625)"/>
       </defs>
       <use xlink:href="#ArialMT-30"/>
       <use xlink:href="#ArialMT-2e" transform="translate(55.615234 0)"/>
       <use xlink:href="#ArialMT-30" transform="translate(83.398438 0)"/>
      </g>
     </g>
    </g>
    <g id="ytick_2">
     <g id="line2d_15">
      <path d="M 54.164375 304.923157 
L 835.364375 304.923157 
" clip-path="url(#p0b570fbc2f)" style="fill: none; stroke-dasharray: 3.7,1.6; stroke-dashoffset: 0; stroke: #cccccc; stroke-opacity: 0.5"/>
     </g>
     <g id="text_11">
      <!-- 0.2 -->
      <g style="fill: #033164" transform="translate(29.374375 308.859954) scale(0.11 -0.11)">
       <use xlink:href="#ArialMT-30"/>
       <use xlink:href="#ArialMT-2e" transform="translate(55.615234 0)"/>
       <use xlink:href="#ArialMT-32" transform="translate(83.398438 0)"/>
      </g>
     </g>
    </g>
    <g id="ytick_3">
     <g id="line2d_16">
      <path d="M 54.164375 258.638835 
L 835.364375 258.638835 
" clip-path="url(#p0b570fbc2f)" style="fill: none; stroke-dasharray: 3.7,1.6; stroke-dashoffset: 0; stroke: #cccccc; stroke-opacity: 0.5"/>
     </g>
     <g id="text_12">
      <!-- 0.4 -->
      <g style="fill: #033164" transform="translate(29.374375 262.575632) scale(0.11 -0.11)">
       <defs>
        <path id="ArialMT-34" d="M 2069 0 
L 2069 1097 
L 81 1097 
L 81 1613 
L 2172 4581 
L 2631 4581 
L 2631 1613 
L 3250 1613 
L 3250 1097 
L 2631 1097 
L 2631 0 
L 2069 0 
z
M 2069 1613 
L 2069 3678 
L 634 1613 
L 2069 1613 
z
" transform="scale(0.015625)"/>
       </defs>
       <use xlink:href="#ArialMT-30"/>
       <use xlink:href="#ArialMT-2e" transform="translate(55.615234 0)"/>
       <use xlink:href="#ArialMT-34" transform="translate(83.398438 0)"/>
      </g>
     </g>
    </g>
    <g id="ytick_4">
     <g id="line2d_17">
      <path d="M 54.164375 212.354512 
L 835.364375 212.354512 
" clip-path="url(#p0b570fbc2f)" style="fill: none; stroke-dasharray: 3.7,1.6; stroke-dashoffset: 0; stroke: #cccccc; stroke-opacity: 0.5"/>
     </g>
     <g id="text_13">
      <!-- 0.6 -->
      <g style="fill: #033164" transform="translate(29.374375 216.291309) scale(0.11 -0.11)">
       <defs>
        <path id="ArialMT-36" d="M 3184 3459 
L 2625 3416 
Q 2550 3747 2413 3897 
Q 2184 4138 1850 4138 
Q 1581 4138 1378 3988 
Q 1113 3794 959 3422 
Q 806 3050 800 2363 
Q 1003 2672 1297 2822 
Q 1591 2972 1913 2972 
Q 2475 2972 2870 2558 
Q 3266 2144 3266 1488 
Q 3266 1056 3080 686 
Q 2894 316 2569 119 
Q 2244 -78 1831 -78 
Q 1128 -78 684 439 
Q 241 956 241 2144 
Q 241 3472 731 4075 
Q 1159 4600 1884 4600 
Q 2425 4600 2770 4297 
Q 3116 3994 3184 3459 
z
M 888 1484 
Q 888 1194 1011 928 
Q 1134 663 1356 523 
Q 1578 384 1822 384 
Q 2178 384 2434 671 
Q 2691 959 2691 1453 
Q 2691 1928 2437 2201 
Q 2184 2475 1800 2475 
Q 1419 2475 1153 2201 
Q 888 1928 888 1484 
z
" transform="scale(0.015625)"/>
       </defs>
       <use xlink:href="#ArialMT-30"/>
       <use xlink:href="#ArialMT-2e" transform="translate(55.615234 0)"/>
       <use xlink:href="#ArialMT-36" transform="translate(83.398438 0)"/>
      </g>
     </g>
    </g>
    <g id="ytick_5">
     <g id="line2d_18">
      <path d="M 54.164375 166.07019 
L 835.364375 166.07019 
" clip-path="url(#p0b570fbc2f)" style="fill: none; stroke-dasharray: 3.7,1.6; stroke-dashoffset: 0; stroke: #cccccc; stroke-opacity: 0.5"/>
     </g>
     <g id="text_14">
      <!-- 0.8 -->
      <g style="fill: #033164" transform="translate(29.374375 170.006987) scale(0.11 -0.11)">
       <defs>
        <path id="ArialMT-38" d="M 1131 2484 
Q 781 2613 612 2850 
Q 444 3088 444 3419 
Q 444 3919 803 4259 
Q 1163 4600 1759 4600 
Q 2359 4600 2725 4251 
Q 3091 3903 3091 3403 
Q 3091 3084 2923 2848 
Q 2756 2613 2416 2484 
Q 2838 2347 3058 2040 
Q 3278 1734 3278 1309 
Q 3278 722 2862 322 
Q 2447 -78 1769 -78 
Q 1091 -78 675 323 
Q 259 725 259 1325 
Q 259 1772 486 2073 
Q 713 2375 1131 2484 
z
M 1019 3438 
Q 1019 3113 1228 2906 
Q 1438 2700 1772 2700 
Q 2097 2700 2305 2904 
Q 2513 3109 2513 3406 
Q 2513 3716 2298 3927 
Q 2084 4138 1766 4138 
Q 1444 4138 1231 3931 
Q 1019 3725 1019 3438 
z
M 838 1322 
Q 838 1081 952 856 
Q 1066 631 1291 507 
Q 1516 384 1775 384 
Q 2178 384 2440 643 
Q 2703 903 2703 1303 
Q 2703 1709 2433 1975 
Q 2163 2241 1756 2241 
Q 1359 2241 1098 1978 
Q 838 1716 838 1322 
z
" transform="scale(0.015625)"/>
       </defs>
       <use xlink:href="#ArialMT-30"/>
       <use xlink:href="#ArialMT-2e" transform="translate(55.615234 0)"/>
       <use xlink:href="#ArialMT-38" transform="translate(83.398438 0)"/>
      </g>
     </g>
    </g>
    <g id="ytick_6">
     <g id="line2d_19">
      <path d="M 54.164375 119.785867 
L 835.364375 119.785867 
" clip-path="url(#p0b570fbc2f)" style="fill: none; stroke-dasharray: 3.7,1.6; stroke-dashoffset: 0; stroke: #cccccc; stroke-opacity: 0.5"/>
     </g>
     <g id="text_15">
      <!-- 1.0 -->
      <g style="fill: #033164" transform="translate(29.374375 123.722664) scale(0.11 -0.11)">
       <use xlink:href="#ArialMT-31"/>
       <use xlink:href="#ArialMT-2e" transform="translate(55.615234 0)"/>
       <use xlink:href="#ArialMT-30" transform="translate(83.398438 0)"/>
      </g>
     </g>
    </g>
    <g id="ytick_7">
     <g id="line2d_20">
      <path d="M 54.164375 73.501545 
L 835.364375 73.501545 
" clip-path="url(#p0b570fbc2f)" style="fill: none; stroke-dasharray: 3.7,1.6; stroke-dashoffset: 0; stroke: #cccccc; stroke-opacity: 0.5"/>
     </g>
     <g id="text_16">
      <!-- 1.2 -->
      <g style="fill: #033164" transform="translate(29.374375 77.438342) scale(0.11 -0.11)">
       <use xlink:href="#ArialMT-31"/>
       <use xlink:href="#ArialMT-2e" transform="translate(55.615234 0)"/>
       <use xlink:href="#ArialMT-32" transform="translate(83.398438 0)"/>
      </g>
     </g>
    </g>
    <g id="text_17">
     <!-- Brier Score -->
     <g style="fill: #033164" transform="translate(22.989375 225.463125) rotate(-90) scale(0.12 -0.12)">
      <defs>
       <path id="ArialMT-42" d="M 469 0 
L 469 4581 
L 2188 4581 
Q 2713 4581 3030 4442 
Q 3347 4303 3526 4014 
Q 3706 3725 3706 3409 
Q 3706 3116 3547 2856 
Q 3388 2597 3066 2438 
Q 3481 2316 3704 2022 
Q 3928 1728 3928 1328 
Q 3928 1006 3792 729 
Q 3656 453 3456 303 
Q 3256 153 2954 76 
Q 2653 0 2216 0 
L 469 0 
z
M 1075 2656 
L 2066 2656 
Q 2469 2656 2644 2709 
Q 2875 2778 2992 2937 
Q 3109 3097 3109 3338 
Q 3109 3566 3000 3739 
Q 2891 3913 2687 3977 
Q 2484 4041 1991 4041 
L 1075 4041 
L 1075 2656 
z
M 1075 541 
L 2216 541 
Q 2509 541 2628 563 
Q 2838 600 2978 687 
Q 3119 775 3209 942 
Q 3300 1109 3300 1328 
Q 3300 1584 3169 1773 
Q 3038 1963 2805 2039 
Q 2572 2116 2134 2116 
L 1075 2116 
L 1075 541 
z
" transform="scale(0.015625)"/>
       <path id="ArialMT-72" d="M 416 0 
L 416 3319 
L 922 3319 
L 922 2816 
Q 1116 3169 1280 3281 
Q 1444 3394 1641 3394 
Q 1925 3394 2219 3213 
L 2025 2691 
Q 1819 2813 1613 2813 
Q 1428 2813 1281 2702 
Q 1134 2591 1072 2394 
Q 978 2094 978 1738 
L 978 0 
L 416 0 
z
" transform="scale(0.015625)"/>
       <path id="ArialMT-69" d="M 425 3934 
L 425 4581 
L 988 4581 
L 988 3934 
L 425 3934 
z
M 425 0 
L 425 3319 
L 988 3319 
L 988 0 
L 425 0 
z
" transform="scale(0.015625)"/>
       <path id="ArialMT-53" d="M 288 1472 
L 859 1522 
Q 900 1178 1048 958 
Q 1197 738 1509 602 
Q 1822 466 2213 466 
Q 2559 466 2825 569 
Q 3091 672 3220 851 
Q 3350 1031 3350 1244 
Q 3350 1459 3225 1620 
Q 3100 1781 2813 1891 
Q 2628 1963 1997 2114 
Q 1366 2266 1113 2400 
Q 784 2572 623 2826 
Q 463 3081 463 3397 
Q 463 3744 659 4045 
Q 856 4347 1234 4503 
Q 1613 4659 2075 4659 
Q 2584 4659 2973 4495 
Q 3363 4331 3572 4012 
Q 3781 3694 3797 3291 
L 3216 3247 
Q 3169 3681 2898 3903 
Q 2628 4125 2100 4125 
Q 1550 4125 1298 3923 
Q 1047 3722 1047 3438 
Q 1047 3191 1225 3031 
Q 1400 2872 2139 2705 
Q 2878 2538 3153 2413 
Q 3553 2228 3743 1945 
Q 3934 1663 3934 1294 
Q 3934 928 3725 604 
Q 3516 281 3123 101 
Q 2731 -78 2241 -78 
Q 1619 -78 1198 103 
Q 778 284 539 648 
Q 300 1013 288 1472 
z
" transform="scale(0.015625)"/>
       <path id="ArialMT-6f" d="M 213 1659 
Q 213 2581 725 3025 
Q 1153 3394 1769 3394 
Q 2453 3394 2887 2945 
Q 3322 2497 3322 1706 
Q 3322 1066 3130 698 
Q 2938 331 2570 128 
Q 2203 -75 1769 -75 
Q 1072 -75 642 372 
Q 213 819 213 1659 
z
M 791 1659 
Q 791 1022 1069 705 
Q 1347 388 1769 388 
Q 2188 388 2466 706 
Q 2744 1025 2744 1678 
Q 2744 2294 2464 2611 
Q 2184 2928 1769 2928 
Q 1347 2928 1069 2612 
Q 791 2297 791 1659 
z
" transform="scale(0.015625)"/>
      </defs>
      <use xlink:href="#ArialMT-42"/>
      <use xlink:href="#ArialMT-72" transform="translate(66.699219 0)"/>
      <use xlink:href="#ArialMT-69" transform="translate(100 0)"/>
      <use xlink:href="#ArialMT-65" transform="translate(122.216797 0)"/>
      <use xlink:href="#ArialMT-72" transform="translate(177.832031 0)"/>
      <use xlink:href="#ArialMT-20" transform="translate(211.132812 0)"/>
      <use xlink:href="#ArialMT-53" transform="translate(238.916016 0)"/>
      <use xlink:href="#ArialMT-63" transform="translate(305.615234 0)"/>
      <use xlink:href="#ArialMT-6f" transform="translate(355.615234 0)"/>
      <use xlink:href="#ArialMT-72" transform="translate(411.230469 0)"/>
      <use xlink:href="#ArialMT-65" transform="translate(444.53125 0)"/>
     </g>
    </g>
   </g>
   <g id="FillBetweenPolyCollection_1"/>
   <g id="FillBetweenPolyCollection_2"/>
   <g id="FillBetweenPolyCollection_3"/>
   <g id="FillBetweenPolyCollection_4"/>
   <g id="FillBetweenPolyCollection_5"/>
   <g id="line2d_21">
    <path d="M 75.864375 265.480006 
L 97.564375 203.631491 
L 119.264375 116.503824 
L 140.964375 113.726212 
L 162.664375 171.076264 
L 184.364375 173.358374 
L 206.064375 268.687364 
L 227.764375 96.764919 
L 249.464375 177.920502 
L 271.164375 217.363832 
L 292.864375 95.48107 
L 314.564375 151.890122 
L 336.264375 161.770856 
L 357.964375 213.059127 
L 379.664375 91.524978 
L 401.364375 231.129195 
L 423.064375 163.174105 
L 444.764375 137.877382 
L 466.464375 261.867561 
L 488.164375 81.755508 
L 509.864375 107.110396 
L 531.564375 250.210298 
L 553.264375 156.945849 
L 574.964375 161.633873 
L 596.664375 186.55294 
L 618.364375 248.370881 
L 640.064375 166.877639 
L 661.764375 256.302517 
L 683.464375 179.865468 
L 705.164375 44.255625 
L 726.864375 113.260809 
L 748.564375 139.468248 
L 770.264375 96.692485 
L 791.964375 260.926618 
" clip-path="url(#p0b570fbc2f)" style="fill: none; stroke: #4c72b0; stroke-width: 1.5; stroke-linecap: round"/>
    <defs>
     <path id="m4068a70701" d="M 0 3 
C 0.795609 3 1.55874 2.683901 2.12132 2.12132 
C 2.683901 1.55874 3 0.795609 3 0 
C 3 -0.795609 2.683901 -1.55874 2.12132 -2.12132 
C 1.55874 -2.683901 0.795609 -3 0 -3 
C -0.795609 -3 -1.55874 -2.683901 -2.12132 -2.12132 
C -2.683901 -1.55874 -3 -0.795609 -3 0 
C -3 0.795609 -2.683901 1.55874 -2.12132 2.12132 
C -1.55874 2.683901 -0.795609 3 0 3 
z
" style="stroke: #e8f1f2; stroke-width: 0.75"/>
    </defs>
    <g clip-path="url(#p0b570fbc2f)">
     <use xlink:href="#m4068a70701" x="75.864375" y="265.480006" style="fill: #4c72b0; stroke: #e8f1f2; stroke-width: 0.75"/>
     <use xlink:href="#m4068a70701" x="97.564375" y="203.631491" style="fill: #4c72b0; stroke: #e8f1f2; stroke-width: 0.75"/>
     <use xlink:href="#m4068a70701" x="119.264375" y="116.503824" style="fill: #4c72b0; stroke: #e8f1f2; stroke-width: 0.75"/>
     <use xlink:href="#m4068a70701" x="140.964375" y="113.726212" style="fill: #4c72b0; stroke: #e8f1f2; stroke-width: 0.75"/>
     <use xlink:href="#m4068a70701" x="162.664375" y="171.076264" style="fill: #4c72b0; stroke: #e8f1f2; stroke-width: 0.75"/>
     <use xlink:href="#m4068a70701" x="184.364375" y="173.358374" style="fill: #4c72b0; stroke: #e8f1f2; stroke-width: 0.75"/>
     <use xlink:href="#m4068a70701" x="206.064375" y="268.687364" style="fill: #4c72b0; stroke: #e8f1f2; stroke-width: 0.75"/>
     <use xlink:href="#m4068a70701" x="227.764375" y="96.764919" style="fill: #4c72b0; stroke: #e8f1f2; stroke-width: 0.75"/>
     <use xlink:href="#m4068a70701" x="249.464375" y="177.920502" style="fill: #4c72b0; stroke: #e8f1f2; stroke-width: 0.75"/>
     <use xlink:href="#m4068a70701" x="271.164375" y="217.363832" style="fill: #4c72b0; stroke: #e8f1f2; stroke-width: 0.75"/>
     <use xlink:href="#m4068a70701" x="292.864375" y="95.48107" style="fill: #4c72b0; stroke: #e8f1f2; stroke-width: 0.75"/>
     <use xlink:href="#m4068a70701" x="314.564375" y="151.890122" style="fill: #4c72b0; stroke: #e8f1f2; stroke-width: 0.75"/>
     <use xlink:href="#m4068a70701" x="336.264375" y="161.770856" style="fill: #4c72b0; stroke: #e8f1f2; stroke-width: 0.75"/>
     <use xlink:href="#m4068a70701" x="357.964375" y="213.059127" style="fill: #4c72b0; stroke: #e8f1f2; stroke-width: 0.75"/>
     <use xlink:href="#m4068a70701" x="379.664375" y="91.524978" style="fill: #4c72b0; stroke: #e8f1f2; stroke-width: 0.75"/>
     <use xlink:href="#m4068a70701" x="401.364375" y="231.129195" style="fill: #4c72b0; stroke: #e8f1f2; stroke-width: 0.75"/>
     <use xlink:href="#m4068a70701" x="423.064375" y="163.174105" style="fill: #4c72b0; stroke: #e8f1f2; stroke-width: 0.75"/>
     <use xlink:href="#m4068a70701" x="444.764375" y="137.877382" style="fill: #4c72b0; stroke: #e8f1f2; stroke-width: 0.75"/>
     <use xlink:href="#m4068a70701" x="466.464375" y="261.867561" style="fill: #4c72b0; stroke: #e8f1f2; stroke-width: 0.75"/>
     <use xlink:href="#m4068a70701" x="488.164375" y="81.755508" style="fill: #4c72b0; stroke: #e8f1f2; stroke-width: 0.75"/>
     <use xlink:href="#m4068a70701" x="509.864375" y="107.110396" style="fill: #4c72b0; stroke: #e8f1f2; stroke-width: 0.75"/>
     <use xlink:href="#m4068a70701" x="531.564375" y="250.210298" style="fill: #4c72b0; stroke: #e8f1f2; stroke-width: 0.75"/>
     <use xlink:href="#m4068a70701" x="553.264375" y="156.945849" style="fill: #4c72b0; stroke: #e8f1f2; stroke-width: 0.75"/>
     <use xlink:href="#m4068a70701" x="574.964375" y="161.633873" style="fill: #4c72b0; stroke: #e8f1f2; stroke-width: 0.75"/>
     <use xlink:href="#m4068a70701" x="596.664375" y="186.55294" style="fill: #4c72b0; stroke: #e8f1f2; stroke-width: 0.75"/>
     <use xlink:href="#m4068a70701" x="618.364375" y="248.370881" style="fill: #4c72b0; stroke: #e8f1f2; stroke-width: 0.75"/>
     <use xlink:href="#m4068a70701" x="640.064375" y="166.877639" style="fill: #4c72b0; stroke: #e8f1f2; stroke-width: 0.75"/>
     <use xlink:href="#m4068a70701" x="661.764375" y="256.302517" style="fill: #4c72b0; stroke: #e8f1f2; stroke-width: 0.75"/>
     <use xlink:href="#m4068a70701" x="683.464375" y="179.865468" style="fill: #4c72b0; stroke: #e8f1f2; stroke-width: 0.75"/>
     <use xlink:href="#m4068a70701" x="705.164375" y="44.255625" style="fill: #4c72b0; stroke: #e8f1f2; stroke-width: 0.75"/>
     <use xlink:href="#m4068a70701" x="726.864375" y="113.260809" style="fill: #4c72b0; stroke: #e8f1f2; stroke-width: 0.75"/>
     <use xlink:href="#m4068a70701" x="748.564375" y="139.468248" style="fill: #4c72b0; stroke: #e8f1f2; stroke-width: 0.75"/>
     <use xlink:href="#m4068a70701" x="770.264375" y="96.692485" style="fill: #4c72b0; stroke: #e8f1f2; stroke-width: 0.75"/>
     <use xlink:href="#m4068a70701" x="791.964375" y="260.926618" style="fill: #4c72b0; stroke: #e8f1f2; stroke-width: 0.75"/>
    </g>
   </g>
   <g id="line2d_22">
    <path d="M 75.864375 344.700545 
L 97.564375 279.893727 
L 119.264375 305.357388 
L 140.964375 315.719975 
L 162.664375 346.655625 
L 184.364375 327.35673 
L 206.064375 293.534469 
L 227.764375 321.207692 
L 249.464375 321.694998 
L 271.164375 331.201299 
L 292.864375 320.292398 
L 314.564375 321.583227 
L 336.264375 333.824507 
L 357.964375 331.967178 
L 379.664375 304.020406 
L 401.364375 320.077679 
L 423.064375 322.985829 
L 444.764375 324.942591 
L 466.464375 343.554627 
L 488.164375 334.58023 
L 509.864375 342.270434 
L 531.564375 316.690199 
L 553.264375 329.188306 
L 574.964375 344.771831 
L 596.664375 326.517903 
L 618.364375 345.530284 
L 640.064375 342.130346 
L 661.764375 336.477666 
L 683.464375 317.711068 
L 705.164375 344.315253 
L 726.864375 316.904305 
L 748.564375 326.143845 
L 770.264375 329.936445 
L 791.964375 343.758267 
" clip-path="url(#p0b570fbc2f)" style="fill: none; stroke: #dd8452; stroke-width: 1.5; stroke-linecap: round"/>
    <defs>
     <path id="m3646bc476d" d="M 0 3 
C 0.795609 3 1.55874 2.683901 2.12132 2.12132 
C 2.683901 1.55874 3 0.795609 3 0 
C 3 -0.795609 2.683901 -1.55874 2.12132 -2.12132 
C 1.55874 -2.683901 0.795609 -3 0 -3 
C -0.795609 -3 -1.55874 -2.683901 -2.12132 -2.12132 
C -2.683901 -1.55874 -3 -0.795609 -3 0 
C -3 0.795609 -2.683901 1.55874 -2.12132 2.12132 
C -1.55874 2.683901 -0.795609 3 0 3 
z
" style="stroke: #e8f1f2; stroke-width: 0.75"/>
    </defs>
    <g clip-path="url(#p0b570fbc2f)">
     <use xlink:href="#m3646bc476d" x="75.864375" y="344.700545" style="fill: #dd8452; stroke: #e8f1f2; stroke-width: 0.75"/>
     <use xlink:href="#m3646bc476d" x="97.564375" y="279.893727" style="fill: #dd8452; stroke: #e8f1f2; stroke-width: 0.75"/>
     <use xlink:href="#m3646bc476d" x="119.264375" y="305.357388" style="fill: #dd8452; stroke: #e8f1f2; stroke-width: 0.75"/>
     <use xlink:href="#m3646bc476d" x="140.964375" y="315.719975" style="fill: #dd8452; stroke: #e8f1f2; stroke-width: 0.75"/>
     <use xlink:href="#m3646bc476d" x="162.664375" y="346.655625" style="fill: #dd8452; stroke: #e8f1f2; stroke-width: 0.75"/>
     <use xlink:href="#m3646bc476d" x="184.364375" y="327.35673" style="fill: #dd8452; stroke: #e8f1f2; stroke-width: 0.75"/>
     <use xlink:href="#m3646bc476d" x="206.064375" y="293.534469" style="fill: #dd8452; stroke: #e8f1f2; stroke-width: 0.75"/>
     <use xlink:href="#m3646bc476d" x="227.764375" y="321.207692" style="fill: #dd8452; stroke: #e8f1f2; stroke-width: 0.75"/>
     <use xlink:href="#m3646bc476d" x="249.464375" y="321.694998" style="fill: #dd8452; stroke: #e8f1f2; stroke-width: 0.75"/>
     <use xlink:href="#m3646bc476d" x="271.164375" y="331.201299" style="fill: #dd8452; stroke: #e8f1f2; stroke-width: 0.75"/>
     <use xlink:href="#m3646bc476d" x="292.864375" y="320.292398" style="fill: #dd8452; stroke: #e8f1f2; stroke-width: 0.75"/>
     <use xlink:href="#m3646bc476d" x="314.564375" y="321.583227" style="fill: #dd8452; stroke: #e8f1f2; stroke-width: 0.75"/>
     <use xlink:href="#m3646bc476d" x="336.264375" y="333.824507" style="fill: #dd8452; stroke: #e8f1f2; stroke-width: 0.75"/>
     <use xlink:href="#m3646bc476d" x="357.964375" y="331.967178" style="fill: #dd8452; stroke: #e8f1f2; stroke-width: 0.75"/>
     <use xlink:href="#m3646bc476d" x="379.664375" y="304.020406" style="fill: #dd8452; stroke: #e8f1f2; stroke-width: 0.75"/>
     <use xlink:href="#m3646bc476d" x="401.364375" y="320.077679" style="fill: #dd8452; stroke: #e8f1f2; stroke-width: 0.75"/>
     <use xlink:href="#m3646bc476d" x="423.064375" y="322.985829" style="fill: #dd8452; stroke: #e8f1f2; stroke-width: 0.75"/>
     <use xlink:href="#m3646bc476d" x="444.764375" y="324.942591" style="fill: #dd8452; stroke: #e8f1f2; stroke-width: 0.75"/>
     <use xlink:href="#m3646bc476d" x="466.464375" y="343.554627" style="fill: #dd8452; stroke: #e8f1f2; stroke-width: 0.75"/>
     <use xlink:href="#m3646bc476d" x="488.164375" y="334.58023" style="fill: #dd8452; stroke: #e8f1f2; stroke-width: 0.75"/>
     <use xlink:href="#m3646bc476d" x="509.864375" y="342.270434" style="fill: #dd8452; stroke: #e8f1f2; stroke-width: 0.75"/>
     <use xlink:href="#m3646bc476d" x="531.564375" y="316.690199" style="fill: #dd8452; stroke: #e8f1f2; stroke-width: 0.75"/>
     <use xlink:href="#m3646bc476d" x="553.264375" y="329.188306" style="fill: #dd8452; stroke: #e8f1f2; stroke-width: 0.75"/>
     <use xlink:href="#m3646bc476d" x="574.964375" y="344.771831" style="fill: #dd8452; stroke: #e8f1f2; stroke-width: 0.75"/>
     <use xlink:href="#m3646bc476d" x="596.664375" y="326.517903" style="fill: #dd8452; stroke: #e8f1f2; stroke-width: 0.75"/>
     <use xlink:href="#m3646bc476d" x="618.364375" y="345.530284" style="fill: #dd8452; stroke: #e8f1f2; stroke-width: 0.75"/>
     <use xlink:href="#m3646bc476d" x="640.064375" y="342.130346" style="fill: #dd8452; stroke: #e8f1f2; stroke-width: 0.75"/>
     <use xlink:href="#m3646bc476d" x="661.764375" y="336.477666" style="fill: #dd8452; stroke: #e8f1f2; stroke-width: 0.75"/>
     <use xlink:href="#m3646bc476d" x="683.464375" y="317.711068" style="fill: #dd8452; stroke: #e8f1f2; stroke-width: 0.75"/>
     <use xlink:href="#m3646bc476d" x="705.164375" y="344.315253" style="fill: #dd8452; stroke: #e8f1f2; stroke-width: 0.75"/>
     <use xlink:href="#m3646bc476d" x="726.864375" y="316.904305" style="fill: #dd8452; stroke: #e8f1f2; stroke-width: 0.75"/>
     <use xlink:href="#m3646bc476d" x="748.564375" y="326.143845" style="fill: #dd8452; stroke: #e8f1f2; stroke-width: 0.75"/>
     <use xlink:href="#m3646bc476d" x="770.264375" y="329.936445" style="fill: #dd8452; stroke: #e8f1f2; stroke-width: 0.75"/>
     <use xlink:href="#m3646bc476d" x="791.964375" y="343.758267" style="fill: #dd8452; stroke: #e8f1f2; stroke-width: 0.75"/>
    </g>
   </g>
   <g id="line2d_23">
    <path d="M 75.864375 315.882464 
L 97.564375 175.653017 
L 119.264375 283.175724 
L 140.964375 172.808372 
L 162.664375 230.229376 
L 184.364375 216.390791 
L 206.064375 275.989739 
L 227.764375 207.112615 
L 249.464375 252.92426 
L 271.164375 233.230312 
L 292.864375 179.274453 
L 314.564375 253.353264 
L 336.264375 244.444022 
L 357.964375 183.952573 
L 379.664375 262.379538 
L 401.364375 230.410941 
L 423.064375 270.386651 
L 444.764375 213.147698 
L 466.464375 202.707221 
L 488.164375 194.283789 
L 509.864375 246.147436 
L 531.564375 199.527837 
L 553.264375 252.947473 
L 574.964375 284.263273 
L 596.664375 261.403996 
L 618.364375 269.482317 
L 640.064375 286.258749 
L 661.764375 301.827181 
L 683.464375 295.74473 
L 705.164375 292.896901 
L 726.864375 256.931244 
L 748.564375 216.890299 
L 770.264375 256.438145 
L 791.964375 262.65935 
" clip-path="url(#p0b570fbc2f)" style="fill: none; stroke: #55a868; stroke-width: 1.5; stroke-linecap: round"/>
    <defs>
     <path id="m353ed8f3b0" d="M 0 3 
C 0.795609 3 1.55874 2.683901 2.12132 2.12132 
C 2.683901 1.55874 3 0.795609 3 0 
C 3 -0.795609 2.683901 -1.55874 2.12132 -2.12132 
C 1.55874 -2.683901 0.795609 -3 0 -3 
C -0.795609 -3 -1.55874 -2.683901 -2.12132 -2.12132 
C -2.683901 -1.55874 -3 -0.795609 -3 0 
C -3 0.795609 -2.683901 1.55874 -2.12132 2.12132 
C -1.55874 2.683901 -0.795609 3 0 3 
z
" style="stroke: #e8f1f2; stroke-width: 0.75"/>
    </defs>
    <g clip-path="url(#p0b570fbc2f)">
     <use xlink:href="#m353ed8f3b0" x="75.864375" y="315.882464" style="fill: #55a868; stroke: #e8f1f2; stroke-width: 0.75"/>
     <use xlink:href="#m353ed8f3b0" x="97.564375" y="175.653017" style="fill: #55a868; stroke: #e8f1f2; stroke-width: 0.75"/>
     <use xlink:href="#m353ed8f3b0" x="119.264375" y="283.175724" style="fill: #55a868; stroke: #e8f1f2; stroke-width: 0.75"/>
     <use xlink:href="#m353ed8f3b0" x="140.964375" y="172.808372" style="fill: #55a868; stroke: #e8f1f2; stroke-width: 0.75"/>
     <use xlink:href="#m353ed8f3b0" x="162.664375" y="230.229376" style="fill: #55a868; stroke: #e8f1f2; stroke-width: 0.75"/>
     <use xlink:href="#m353ed8f3b0" x="184.364375" y="216.390791" style="fill: #55a868; stroke: #e8f1f2; stroke-width: 0.75"/>
     <use xlink:href="#m353ed8f3b0" x="206.064375" y="275.989739" style="fill: #55a868; stroke: #e8f1f2; stroke-width: 0.75"/>
     <use xlink:href="#m353ed8f3b0" x="227.764375" y="207.112615" style="fill: #55a868; stroke: #e8f1f2; stroke-width: 0.75"/>
     <use xlink:href="#m353ed8f3b0" x="249.464375" y="252.92426" style="fill: #55a868; stroke: #e8f1f2; stroke-width: 0.75"/>
     <use xlink:href="#m353ed8f3b0" x="271.164375" y="233.230312" style="fill: #55a868; stroke: #e8f1f2; stroke-width: 0.75"/>
     <use xlink:href="#m353ed8f3b0" x="292.864375" y="179.274453" style="fill: #55a868; stroke: #e8f1f2; stroke-width: 0.75"/>
     <use xlink:href="#m353ed8f3b0" x="314.564375" y="253.353264" style="fill: #55a868; stroke: #e8f1f2; stroke-width: 0.75"/>
     <use xlink:href="#m353ed8f3b0" x="336.264375" y="244.444022" style="fill: #55a868; stroke: #e8f1f2; stroke-width: 0.75"/>
     <use xlink:href="#m353ed8f3b0" x="357.964375" y="183.952573" style="fill: #55a868; stroke: #e8f1f2; stroke-width: 0.75"/>
     <use xlink:href="#m353ed8f3b0" x="379.664375" y="262.379538" style="fill: #55a868; stroke: #e8f1f2; stroke-width: 0.75"/>
     <use xlink:href="#m353ed8f3b0" x="401.364375" y="230.410941" style="fill: #55a868; stroke: #e8f1f2; stroke-width: 0.75"/>
     <use xlink:href="#m353ed8f3b0" x="423.064375" y="270.386651" style="fill: #55a868; stroke: #e8f1f2; stroke-width: 0.75"/>
     <use xlink:href="#m353ed8f3b0" x="444.764375" y="213.147698" style="fill: #55a868; stroke: #e8f1f2; stroke-width: 0.75"/>
     <use xlink:href="#m353ed8f3b0" x="466.464375" y="202.707221" style="fill: #55a868; stroke: #e8f1f2; stroke-width: 0.75"/>
     <use xlink:href="#m353ed8f3b0" x="488.164375" y="194.283789" style="fill: #55a868; stroke: #e8f1f2; stroke-width: 0.75"/>
     <use xlink:href="#m353ed8f3b0" x="509.864375" y="246.147436" style="fill: #55a868; stroke: #e8f1f2; stroke-width: 0.75"/>
     <use xlink:href="#m353ed8f3b0" x="531.564375" y="199.527837" style="fill: #55a868; stroke: #e8f1f2; stroke-width: 0.75"/>
     <use xlink:href="#m353ed8f3b0" x="553.264375" y="252.947473" style="fill: #55a868; stroke: #e8f1f2; stroke-width: 0.75"/>
     <use xlink:href="#m353ed8f3b0" x="574.964375" y="284.263273" style="fill: #55a868; stroke: #e8f1f2; stroke-width: 0.75"/>
     <use xlink:href="#m353ed8f3b0" x="596.664375" y="261.403996" style="fill: #55a868; stroke: #e8f1f2; stroke-width: 0.75"/>
     <use xlink:href="#m353ed8f3b0" x="618.364375" y="269.482317" style="fill: #55a868; stroke: #e8f1f2; stroke-width: 0.75"/>
     <use xlink:href="#m353ed8f3b0" x="640.064375" y="286.258749" style="fill: #55a868; stroke: #e8f1f2; stroke-width: 0.75"/>
     <use xlink:href="#m353ed8f3b0" x="661.764375" y="301.827181" style="fill: #55a868; stroke: #e8f1f2; stroke-width: 0.75"/>
     <use xlink:href="#m353ed8f3b0" x="683.464375" y="295.74473" style="fill: #55a868; stroke: #e8f1f2; stroke-width: 0.75"/>
     <use xlink:href="#m353ed8f3b0" x="705.164375" y="292.896901" style="fill: #55a868; stroke: #e8f1f2; stroke-width: 0.75"/>
     <use xlink:href="#m353ed8f3b0" x="726.864375" y="256.931244" style="fill: #55a868; stroke: #e8f1f2; stroke-width: 0.75"/>
     <use xlink:href="#m353ed8f3b0" x="748.564375" y="216.890299" style="fill: #55a868; stroke: #e8f1f2; stroke-width: 0.75"/>
     <use xlink:href="#m353ed8f3b0" x="770.264375" y="256.438145" style="fill: #55a868; stroke: #e8f1f2; stroke-width: 0.75"/>
     <use xlink:href="#m353ed8f3b0" x="791.964375" y="262.65935" style="fill: #55a868; stroke: #e8f1f2; stroke-width: 0.75"/>
    </g>
   </g>
   <g id="line2d_24">
    <path d="M 75.864375 257.621413 
L 97.564375 225.630003 
L 119.264375 267.723697 
L 140.964375 218.753973 
L 162.664375 258.674351 
L 184.364375 229.920564 
L 206.064375 218.853006 
L 227.764375 221.571967 
L 249.464375 225.405167 
L 271.164375 245.836119 
L 292.864375 157.573865 
L 314.564375 227.380305 
L 336.264375 226.197668 
L 357.964375 240.301464 
L 379.664375 208.418414 
L 401.364375 249.480272 
L 423.064375 255.910975 
L 444.764375 206.586703 
L 466.464375 264.426319 
L 488.164375 212.193154 
L 509.864375 265.894996 
L 531.564375 226.693568 
L 553.264375 218.699424 
L 574.964375 215.07088 
L 596.664375 219.046652 
L 618.364375 282.404781 
L 640.064375 270.93367 
L 661.764375 295.768956 
L 683.464375 209.312594 
L 705.164375 228.978541 
L 726.864375 220.701666 
L 748.564375 220.976447 
L 770.264375 205.426501 
L 791.964375 251.490167 
" clip-path="url(#p0b570fbc2f)" style="fill: none; stroke: #c44e52; stroke-width: 1.5; stroke-linecap: round"/>
    <defs>
     <path id="m22c80166e6" d="M 0 3 
C 0.795609 3 1.55874 2.683901 2.12132 2.12132 
C 2.683901 1.55874 3 0.795609 3 0 
C 3 -0.795609 2.683901 -1.55874 2.12132 -2.12132 
C 1.55874 -2.683901 0.795609 -3 0 -3 
C -0.795609 -3 -1.55874 -2.683901 -2.12132 -2.12132 
C -2.683901 -1.55874 -3 -0.795609 -3 0 
C -3 0.795609 -2.683901 1.55874 -2.12132 2.12132 
C -1.55874 2.683901 -0.795609 3 0 3 
z
" style="stroke: #e8f1f2; stroke-width: 0.75"/>
    </defs>
    <g clip-path="url(#p0b570fbc2f)">
     <use xlink:href="#m22c80166e6" x="75.864375" y="257.621413" style="fill: #c44e52; stroke: #e8f1f2; stroke-width: 0.75"/>
     <use xlink:href="#m22c80166e6" x="97.564375" y="225.630003" style="fill: #c44e52; stroke: #e8f1f2; stroke-width: 0.75"/>
     <use xlink:href="#m22c80166e6" x="119.264375" y="267.723697" style="fill: #c44e52; stroke: #e8f1f2; stroke-width: 0.75"/>
     <use xlink:href="#m22c80166e6" x="140.964375" y="218.753973" style="fill: #c44e52; stroke: #e8f1f2; stroke-width: 0.75"/>
     <use xlink:href="#m22c80166e6" x="162.664375" y="258.674351" style="fill: #c44e52; stroke: #e8f1f2; stroke-width: 0.75"/>
     <use xlink:href="#m22c80166e6" x="184.364375" y="229.920564" style="fill: #c44e52; stroke: #e8f1f2; stroke-width: 0.75"/>
     <use xlink:href="#m22c80166e6" x="206.064375" y="218.853006" style="fill: #c44e52; stroke: #e8f1f2; stroke-width: 0.75"/>
     <use xlink:href="#m22c80166e6" x="227.764375" y="221.571967" style="fill: #c44e52; stroke: #e8f1f2; stroke-width: 0.75"/>
     <use xlink:href="#m22c80166e6" x="249.464375" y="225.405167" style="fill: #c44e52; stroke: #e8f1f2; stroke-width: 0.75"/>
     <use xlink:href="#m22c80166e6" x="271.164375" y="245.836119" style="fill: #c44e52; stroke: #e8f1f2; stroke-width: 0.75"/>
     <use xlink:href="#m22c80166e6" x="292.864375" y="157.573865" style="fill: #c44e52; stroke: #e8f1f2; stroke-width: 0.75"/>
     <use xlink:href="#m22c80166e6" x="314.564375" y="227.380305" style="fill: #c44e52; stroke: #e8f1f2; stroke-width: 0.75"/>
     <use xlink:href="#m22c80166e6" x="336.264375" y="226.197668" style="fill: #c44e52; stroke: #e8f1f2; stroke-width: 0.75"/>
     <use xlink:href="#m22c80166e6" x="357.964375" y="240.301464" style="fill: #c44e52; stroke: #e8f1f2; stroke-width: 0.75"/>
     <use xlink:href="#m22c80166e6" x="379.664375" y="208.418414" style="fill: #c44e52; stroke: #e8f1f2; stroke-width: 0.75"/>
     <use xlink:href="#m22c80166e6" x="401.364375" y="249.480272" style="fill: #c44e52; stroke: #e8f1f2; stroke-width: 0.75"/>
     <use xlink:href="#m22c80166e6" x="423.064375" y="255.910975" style="fill: #c44e52; stroke: #e8f1f2; stroke-width: 0.75"/>
     <use xlink:href="#m22c80166e6" x="444.764375" y="206.586703" style="fill: #c44e52; stroke: #e8f1f2; stroke-width: 0.75"/>
     <use xlink:href="#m22c80166e6" x="466.464375" y="264.426319" style="fill: #c44e52; stroke: #e8f1f2; stroke-width: 0.75"/>
     <use xlink:href="#m22c80166e6" x="488.164375" y="212.193154" style="fill: #c44e52; stroke: #e8f1f2; stroke-width: 0.75"/>
     <use xlink:href="#m22c80166e6" x="509.864375" y="265.894996" style="fill: #c44e52; stroke: #e8f1f2; stroke-width: 0.75"/>
     <use xlink:href="#m22c80166e6" x="531.564375" y="226.693568" style="fill: #c44e52; stroke: #e8f1f2; stroke-width: 0.75"/>
     <use xlink:href="#m22c80166e6" x="553.264375" y="218.699424" style="fill: #c44e52; stroke: #e8f1f2; stroke-width: 0.75"/>
     <use xlink:href="#m22c80166e6" x="574.964375" y="215.07088" style="fill: #c44e52; stroke: #e8f1f2; stroke-width: 0.75"/>
     <use xlink:href="#m22c80166e6" x="596.664375" y="219.046652" style="fill: #c44e52; stroke: #e8f1f2; stroke-width: 0.75"/>
     <use xlink:href="#m22c80166e6" x="618.364375" y="282.404781" style="fill: #c44e52; stroke: #e8f1f2; stroke-width: 0.75"/>
     <use xlink:href="#m22c80166e6" x="640.064375" y="270.93367" style="fill: #c44e52; stroke: #e8f1f2; stroke-width: 0.75"/>
     <use xlink:href="#m22c80166e6" x="661.764375" y="295.768956" style="fill: #c44e52; stroke: #e8f1f2; stroke-width: 0.75"/>
     <use xlink:href="#m22c80166e6" x="683.464375" y="209.312594" style="fill: #c44e52; stroke: #e8f1f2; stroke-width: 0.75"/>
     <use xlink:href="#m22c80166e6" x="705.164375" y="228.978541" style="fill: #c44e52; stroke: #e8f1f2; stroke-width: 0.75"/>
     <use xlink:href="#m22c80166e6" x="726.864375" y="220.701666" style="fill: #c44e52; stroke: #e8f1f2; stroke-width: 0.75"/>
     <use xlink:href="#m22c80166e6" x="748.564375" y="220.976447" style="fill: #c44e52; stroke: #e8f1f2; stroke-width: 0.75"/>
     <use xlink:href="#m22c80166e6" x="770.264375" y="205.426501" style="fill: #c44e52; stroke: #e8f1f2; stroke-width: 0.75"/>
     <use xlink:href="#m22c80166e6" x="791.964375" y="251.490167" style="fill: #c44e52; stroke: #e8f1f2; stroke-width: 0.75"/>
    </g>
   </g>
   <g id="line2d_25">
    <path d="M 75.864375 345.750751 
L 97.564375 225.25016 
L 119.264375 276.206306 
L 140.964375 241.681416 
L 162.664375 290.380237 
L 184.364375 278.755801 
L 206.064375 284.246279 
L 227.764375 286.989589 
L 249.464375 293.34147 
L 271.164375 317.806591 
L 292.864375 278.498345 
L 314.564375 311.414212 
L 336.264375 311.307822 
L 357.964375 308.019064 
L 379.664375 300.482433 
L 401.364375 308.30352 
L 423.064375 312.778635 
L 444.764375 289.282592 
L 466.464375 321.208167 
L 488.164375 301.594864 
L 509.864375 317.226751 
L 531.564375 297.040037 
L 553.264375 302.460445 
L 574.964375 329.928262 
L 596.664375 319.21987 
L 618.364375 338.556753 
L 640.064375 326.886354 
L 661.764375 337.734885 
L 683.464375 308.179773 
L 705.164375 336.202359 
L 726.864375 311.273752 
L 748.564375 322.79212 
L 770.264375 322.817512 
L 791.964375 334.108958 
" clip-path="url(#p0b570fbc2f)" style="fill: none; stroke: #8172b3; stroke-width: 1.5; stroke-linecap: round"/>
    <defs>
     <path id="m9c091dacb4" d="M 0 3 
C 0.795609 3 1.55874 2.683901 2.12132 2.12132 
C 2.683901 1.55874 3 0.795609 3 0 
C 3 -0.795609 2.683901 -1.55874 2.12132 -2.12132 
C 1.55874 -2.683901 0.795609 -3 0 -3 
C -0.795609 -3 -1.55874 -2.683901 -2.12132 -2.12132 
C -2.683901 -1.55874 -3 -0.795609 -3 0 
C -3 0.795609 -2.683901 1.55874 -2.12132 2.12132 
C -1.55874 2.683901 -0.795609 3 0 3 
z
" style="stroke: #e8f1f2; stroke-width: 0.75"/>
    </defs>
    <g clip-path="url(#p0b570fbc2f)">
     <use xlink:href="#m9c091dacb4" x="75.864375" y="345.750751" style="fill: #8172b3; stroke: #e8f1f2; stroke-width: 0.75"/>
     <use xlink:href="#m9c091dacb4" x="97.564375" y="225.25016" style="fill: #8172b3; stroke: #e8f1f2; stroke-width: 0.75"/>
     <use xlink:href="#m9c091dacb4" x="119.264375" y="276.206306" style="fill: #8172b3; stroke: #e8f1f2; stroke-width: 0.75"/>
     <use xlink:href="#m9c091dacb4" x="140.964375" y="241.681416" style="fill: #8172b3; stroke: #e8f1f2; stroke-width: 0.75"/>
     <use xlink:href="#m9c091dacb4" x="162.664375" y="290.380237" style="fill: #8172b3; stroke: #e8f1f2; stroke-width: 0.75"/>
     <use xlink:href="#m9c091dacb4" x="184.364375" y="278.755801" style="fill: #8172b3; stroke: #e8f1f2; stroke-width: 0.75"/>
     <use xlink:href="#m9c091dacb4" x="206.064375" y="284.246279" style="fill: #8172b3; stroke: #e8f1f2; stroke-width: 0.75"/>
     <use xlink:href="#m9c091dacb4" x="227.764375" y="286.989589" style="fill: #8172b3; stroke: #e8f1f2; stroke-width: 0.75"/>
     <use xlink:href="#m9c091dacb4" x="249.464375" y="293.34147" style="fill: #8172b3; stroke: #e8f1f2; stroke-width: 0.75"/>
     <use xlink:href="#m9c091dacb4" x="271.164375" y="317.806591" style="fill: #8172b3; stroke: #e8f1f2; stroke-width: 0.75"/>
     <use xlink:href="#m9c091dacb4" x="292.864375" y="278.498345" style="fill: #8172b3; stroke: #e8f1f2; stroke-width: 0.75"/>
     <use xlink:href="#m9c091dacb4" x="314.564375" y="311.414212" style="fill: #8172b3; stroke: #e8f1f2; stroke-width: 0.75"/>
     <use xlink:href="#m9c091dacb4" x="336.264375" y="311.307822" style="fill: #8172b3; stroke: #e8f1f2; stroke-width: 0.75"/>
     <use xlink:href="#m9c091dacb4" x="357.964375" y="308.019064" style="fill: #8172b3; stroke: #e8f1f2; stroke-width: 0.75"/>
     <use xlink:href="#m9c091dacb4" x="379.664375" y="300.482433" style="fill: #8172b3; stroke: #e8f1f2; stroke-width: 0.75"/>
     <use xlink:href="#m9c091dacb4" x="401.364375" y="308.30352" style="fill: #8172b3; stroke: #e8f1f2; stroke-width: 0.75"/>
     <use xlink:href="#m9c091dacb4" x="423.064375" y="312.778635" style="fill: #8172b3; stroke: #e8f1f2; stroke-width: 0.75"/>
     <use xlink:href="#m9c091dacb4" x="444.764375" y="289.282592" style="fill: #8172b3; stroke: #e8f1f2; stroke-width: 0.75"/>
     <use xlink:href="#m9c091dacb4" x="466.464375" y="321.208167" style="fill: #8172b3; stroke: #e8f1f2; stroke-width: 0.75"/>
     <use xlink:href="#m9c091dacb4" x="488.164375" y="301.594864" style="fill: #8172b3; stroke: #e8f1f2; stroke-width: 0.75"/>
     <use xlink:href="#m9c091dacb4" x="509.864375" y="317.226751" style="fill: #8172b3; stroke: #e8f1f2; stroke-width: 0.75"/>
     <use xlink:href="#m9c091dacb4" x="531.564375" y="297.040037" style="fill: #8172b3; stroke: #e8f1f2; stroke-width: 0.75"/>
     <use xlink:href="#m9c091dacb4" x="553.264375" y="302.460445" style="fill: #8172b3; stroke: #e8f1f2; stroke-width: 0.75"/>
     <use xlink:href="#m9c091dacb4" x="574.964375" y="329.928262" style="fill: #8172b3; stroke: #e8f1f2; stroke-width: 0.75"/>
     <use xlink:href="#m9c091dacb4" x="596.664375" y="319.21987" style="fill: #8172b3; stroke: #e8f1f2; stroke-width: 0.75"/>
     <use xlink:href="#m9c091dacb4" x="618.364375" y="338.556753" style="fill: #8172b3; stroke: #e8f1f2; stroke-width: 0.75"/>
     <use xlink:href="#m9c091dacb4" x="640.064375" y="326.886354" style="fill: #8172b3; stroke: #e8f1f2; stroke-width: 0.75"/>
     <use xlink:href="#m9c091dacb4" x="661.764375" y="337.734885" style="fill: #8172b3; stroke: #e8f1f2; stroke-width: 0.75"/>
     <use xlink:href="#m9c091dacb4" x="683.464375" y="308.179773" style="fill: #8172b3; stroke: #e8f1f2; stroke-width: 0.75"/>
     <use xlink:href="#m9c091dacb4" x="705.164375" y="336.202359" style="fill: #8172b3; stroke: #e8f1f2; stroke-width: 0.75"/>
     <use xlink:href="#m9c091dacb4" x="726.864375" y="311.273752" style="fill: #8172b3; stroke: #e8f1f2; stroke-width: 0.75"/>
     <use xlink:href="#m9c091dacb4" x="748.564375" y="322.79212" style="fill: #8172b3; stroke: #e8f1f2; stroke-width: 0.75"/>
     <use xlink:href="#m9c091dacb4" x="770.264375" y="322.817512" style="fill: #8172b3; stroke: #e8f1f2; stroke-width: 0.75"/>
     <use xlink:href="#m9c091dacb4" x="791.964375" y="334.108958" style="fill: #8172b3; stroke: #e8f1f2; stroke-width: 0.75"/>
    </g>
   </g>
   <g id="patch_3">
    <path d="M 54.164375 361.775625 
L 54.164375 29.135625 
" style="fill: none; stroke: #033164; stroke-width: 1.25; stroke-linejoin: miter; stroke-linecap: square"/>
   </g>
   <g id="patch_4">
    <path d="M 835.364375 361.775625 
L 835.364375 29.135625 
" style="fill: none; stroke: #033164; stroke-width: 1.25; stroke-linejoin: miter; stroke-linecap: square"/>
   </g>
   <g id="patch_5">
    <path d="M 54.164375 361.775625 
L 835.364375 361.775625 
" style="fill: none; stroke: #033164; stroke-width: 1.25; stroke-linejoin: miter; stroke-linecap: square"/>
   </g>
   <g id="patch_6">
    <path d="M 54.164375 29.135625 
L 835.364375 29.135625 
" style="fill: none; stroke: #033164; stroke-width: 1.25; stroke-linejoin: miter; stroke-linecap: square"/>
   </g>
   <g id="text_18">
    <g id="patch_7">
     <path d="M 803.804375 173.517962 
L 829.348437 173.517962 
L 829.348437 165.453587 
L 803.804375 165.453587 
z
" style="fill: #e8f1f2"/>
    </g>
    <!-- 0.785 -->
    <g style="fill: #4c72b0" transform="translate(802.814375 172.337181) scale(0.11 -0.11)">
     <defs>
      <path id="Arial-BoldMT-30" d="M 1756 4600 
Q 2422 4600 2797 4125 
Q 3244 3563 3244 2259 
Q 3244 959 2794 391 
Q 2422 -78 1756 -78 
Q 1088 -78 678 436 
Q 269 950 269 2269 
Q 269 3563 719 4131 
Q 1091 4600 1756 4600 
z
M 1756 3872 
Q 1597 3872 1472 3770 
Q 1347 3669 1278 3406 
Q 1188 3066 1188 2259 
Q 1188 1453 1269 1151 
Q 1350 850 1473 750 
Q 1597 650 1756 650 
Q 1916 650 2041 751 
Q 2166 853 2234 1116 
Q 2325 1453 2325 2259 
Q 2325 3066 2244 3367 
Q 2163 3669 2039 3770 
Q 1916 3872 1756 3872 
z
" transform="scale(0.015625)"/>
      <path id="Arial-BoldMT-2e" d="M 459 0 
L 459 878 
L 1338 878 
L 1338 0 
L 459 0 
z
" transform="scale(0.015625)"/>
      <path id="Arial-BoldMT-37" d="M 272 3703 
L 272 4519 
L 3275 4519 
L 3275 3881 
Q 2903 3516 2518 2831 
Q 2134 2147 1932 1376 
Q 1731 606 1734 0 
L 888 0 
Q 909 950 1279 1937 
Q 1650 2925 2269 3703 
L 272 3703 
z
" transform="scale(0.015625)"/>
      <path id="Arial-BoldMT-38" d="M 1025 2472 
Q 684 2616 529 2867 
Q 375 3119 375 3419 
Q 375 3931 733 4265 
Q 1091 4600 1750 4600 
Q 2403 4600 2764 4265 
Q 3125 3931 3125 3419 
Q 3125 3100 2959 2851 
Q 2794 2603 2494 2472 
Q 2875 2319 3073 2025 
Q 3272 1731 3272 1347 
Q 3272 713 2867 316 
Q 2463 -81 1791 -81 
Q 1166 -81 750 247 
Q 259 634 259 1309 
Q 259 1681 443 1992 
Q 628 2303 1025 2472 
z
M 1206 3356 
Q 1206 3094 1354 2947 
Q 1503 2800 1750 2800 
Q 2000 2800 2150 2948 
Q 2300 3097 2300 3359 
Q 2300 3606 2151 3754 
Q 2003 3903 1759 3903 
Q 1506 3903 1356 3753 
Q 1206 3603 1206 3356 
z
M 1125 1394 
Q 1125 1031 1311 828 
Q 1497 625 1775 625 
Q 2047 625 2225 820 
Q 2403 1016 2403 1384 
Q 2403 1706 2222 1901 
Q 2041 2097 1763 2097 
Q 1441 2097 1283 1875 
Q 1125 1653 1125 1394 
z
" transform="scale(0.015625)"/>
      <path id="Arial-BoldMT-35" d="M 284 1178 
L 1159 1269 
Q 1197 972 1381 798 
Q 1566 625 1806 625 
Q 2081 625 2272 848 
Q 2463 1072 2463 1522 
Q 2463 1944 2273 2155 
Q 2084 2366 1781 2366 
Q 1403 2366 1103 2031 
L 391 2134 
L 841 4519 
L 3163 4519 
L 3163 3697 
L 1506 3697 
L 1369 2919 
Q 1663 3066 1969 3066 
Q 2553 3066 2959 2641 
Q 3366 2216 3366 1538 
Q 3366 972 3038 528 
Q 2591 -78 1797 -78 
Q 1163 -78 763 262 
Q 363 603 284 1178 
z
" transform="scale(0.015625)"/>
     </defs>
     <use xlink:href="#Arial-BoldMT-30"/>
     <use xlink:href="#Arial-BoldMT-2e" transform="translate(55.615234 0)"/>
     <use xlink:href="#Arial-BoldMT-37" transform="translate(83.398438 0)"/>
     <use xlink:href="#Arial-BoldMT-38" transform="translate(139.013672 0)"/>
     <use xlink:href="#Arial-BoldMT-35" transform="translate(194.628906 0)"/>
    </g>
   </g>
   <g id="text_19">
    <g id="patch_8">
     <path d="M 803.804375 330.723284 
L 829.348437 330.723284 
L 829.348437 322.658909 
L 803.804375 322.658909 
z
" style="fill: #e8f1f2"/>
    </g>
    <!-- 0.106 -->
    <g style="fill: #dd8452" transform="translate(802.814375 329.542503) scale(0.11 -0.11)">
     <defs>
      <path id="Arial-BoldMT-31" d="M 2519 0 
L 1641 0 
L 1641 3309 
Q 1159 2859 506 2644 
L 506 3441 
Q 850 3553 1253 3867 
Q 1656 4181 1806 4600 
L 2519 4600 
L 2519 0 
z
" transform="scale(0.015625)"/>
      <path id="Arial-BoldMT-36" d="M 3247 3459 
L 2397 3366 
Q 2366 3628 2234 3753 
Q 2103 3878 1894 3878 
Q 1616 3878 1423 3628 
Q 1231 3378 1181 2588 
Q 1509 2975 1997 2975 
Q 2547 2975 2939 2556 
Q 3331 2138 3331 1475 
Q 3331 772 2918 347 
Q 2506 -78 1859 -78 
Q 1166 -78 719 461 
Q 272 1000 272 2228 
Q 272 3488 737 4044 
Q 1203 4600 1947 4600 
Q 2469 4600 2811 4308 
Q 3153 4016 3247 3459 
z
M 1256 1544 
Q 1256 1116 1453 883 
Q 1650 650 1903 650 
Q 2147 650 2309 840 
Q 2472 1031 2472 1466 
Q 2472 1913 2297 2120 
Q 2122 2328 1859 2328 
Q 1606 2328 1431 2129 
Q 1256 1931 1256 1544 
z
" transform="scale(0.015625)"/>
     </defs>
     <use xlink:href="#Arial-BoldMT-30"/>
     <use xlink:href="#Arial-BoldMT-2e" transform="translate(55.615234 0)"/>
     <use xlink:href="#Arial-BoldMT-31" transform="translate(83.398438 0)"/>
     <use xlink:href="#Arial-BoldMT-30" transform="translate(139.013672 0)"/>
     <use xlink:href="#Arial-BoldMT-36" transform="translate(194.628906 0)"/>
    </g>
   </g>
   <g id="text_20">
    <g id="patch_9">
     <path d="M 803.804375 247.595592 
L 829.348437 247.595592 
L 829.348437 239.531217 
L 803.804375 239.531217 
z
" style="fill: #e8f1f2"/>
    </g>
    <!-- 0.465 -->
    <g style="fill: #55a868" transform="translate(802.814375 246.414811) scale(0.11 -0.11)">
     <defs>
      <path id="Arial-BoldMT-34" d="M 1994 0 
L 1994 922 
L 119 922 
L 119 1691 
L 2106 4600 
L 2844 4600 
L 2844 1694 
L 3413 1694 
L 3413 922 
L 2844 922 
L 2844 0 
L 1994 0 
z
M 1994 1694 
L 1994 3259 
L 941 1694 
L 1994 1694 
z
" transform="scale(0.015625)"/>
     </defs>
     <use xlink:href="#Arial-BoldMT-30"/>
     <use xlink:href="#Arial-BoldMT-2e" transform="translate(55.615234 0)"/>
     <use xlink:href="#Arial-BoldMT-34" transform="translate(83.398438 0)"/>
     <use xlink:href="#Arial-BoldMT-36" transform="translate(139.013672 0)"/>
     <use xlink:href="#Arial-BoldMT-35" transform="translate(194.628906 0)"/>
    </g>
   </g>
   <g id="text_21">
    <g id="patch_10">
     <path d="M 803.804375 237.851548 
L 829.348437 237.851548 
L 829.348437 229.787173 
L 803.804375 229.787173 
z
" style="fill: #e8f1f2"/>
    </g>
    <!-- 0.507 -->
    <g style="fill: #c44e52" transform="translate(802.814375 236.670766) scale(0.11 -0.11)">
     <use xlink:href="#Arial-BoldMT-30"/>
     <use xlink:href="#Arial-BoldMT-2e" transform="translate(55.615234 0)"/>
     <use xlink:href="#Arial-BoldMT-35" transform="translate(83.398438 0)"/>
     <use xlink:href="#Arial-BoldMT-30" transform="translate(139.013672 0)"/>
     <use xlink:href="#Arial-BoldMT-37" transform="translate(194.628906 0)"/>
    </g>
   </g>
   <g id="text_22">
    <g id="patch_11">
     <path d="M 803.804375 309.553543 
L 829.348437 309.553543 
L 829.348437 301.489168 
L 803.804375 301.489168 
z
" style="fill: #e8f1f2"/>
    </g>
    <!-- 0.197 -->
    <g style="fill: #8172b3" transform="translate(802.814375 308.372762) scale(0.11 -0.11)">
     <defs>
      <path id="Arial-BoldMT-39" d="M 291 1059 
L 1141 1153 
Q 1172 894 1303 769 
Q 1434 644 1650 644 
Q 1922 644 2112 894 
Q 2303 1144 2356 1931 
Q 2025 1547 1528 1547 
Q 988 1547 595 1964 
Q 203 2381 203 3050 
Q 203 3747 617 4173 
Q 1031 4600 1672 4600 
Q 2369 4600 2816 4061 
Q 3263 3522 3263 2288 
Q 3263 1031 2797 475 
Q 2331 -81 1584 -81 
Q 1047 -81 715 205 
Q 384 491 291 1059 
z
M 2278 2978 
Q 2278 3403 2083 3637 
Q 1888 3872 1631 3872 
Q 1388 3872 1227 3680 
Q 1066 3488 1066 3050 
Q 1066 2606 1241 2398 
Q 1416 2191 1678 2191 
Q 1931 2191 2104 2391 
Q 2278 2591 2278 2978 
z
" transform="scale(0.015625)"/>
     </defs>
     <use xlink:href="#Arial-BoldMT-30"/>
     <use xlink:href="#Arial-BoldMT-2e" transform="translate(55.615234 0)"/>
     <use xlink:href="#Arial-BoldMT-31" transform="translate(83.398438 0)"/>
     <use xlink:href="#Arial-BoldMT-39" transform="translate(139.013672 0)"/>
     <use xlink:href="#Arial-BoldMT-37" transform="translate(194.628906 0)"/>
    </g>
   </g>
   <g id="text_23">
    <!-- Brier Scores by Match Week (Best Models Comparison) -->
    <g style="fill: #033164" transform="translate(296.163125 23.135625) scale(0.12 -0.12)">
     <defs>
      <path id="ArialMT-73" d="M 197 991 
L 753 1078 
Q 800 744 1014 566 
Q 1228 388 1613 388 
Q 2000 388 2187 545 
Q 2375 703 2375 916 
Q 2375 1106 2209 1216 
Q 2094 1291 1634 1406 
Q 1016 1563 777 1677 
Q 538 1791 414 1992 
Q 291 2194 291 2438 
Q 291 2659 392 2848 
Q 494 3038 669 3163 
Q 800 3259 1026 3326 
Q 1253 3394 1513 3394 
Q 1903 3394 2198 3281 
Q 2494 3169 2634 2976 
Q 2775 2784 2828 2463 
L 2278 2388 
Q 2241 2644 2061 2787 
Q 1881 2931 1553 2931 
Q 1166 2931 1000 2803 
Q 834 2675 834 2503 
Q 834 2394 903 2306 
Q 972 2216 1119 2156 
Q 1203 2125 1616 2013 
Q 2213 1853 2448 1751 
Q 2684 1650 2818 1456 
Q 2953 1263 2953 975 
Q 2953 694 2789 445 
Q 2625 197 2315 61 
Q 2006 -75 1616 -75 
Q 969 -75 630 194 
Q 291 463 197 991 
z
" transform="scale(0.015625)"/>
      <path id="ArialMT-62" d="M 941 0 
L 419 0 
L 419 4581 
L 981 4581 
L 981 2947 
Q 1338 3394 1891 3394 
Q 2197 3394 2470 3270 
Q 2744 3147 2920 2923 
Q 3097 2700 3197 2384 
Q 3297 2069 3297 1709 
Q 3297 856 2875 390 
Q 2453 -75 1863 -75 
Q 1275 -75 941 416 
L 941 0 
z
M 934 1684 
Q 934 1088 1097 822 
Q 1363 388 1816 388 
Q 2184 388 2453 708 
Q 2722 1028 2722 1663 
Q 2722 2313 2464 2622 
Q 2206 2931 1841 2931 
Q 1472 2931 1203 2611 
Q 934 2291 934 1684 
z
" transform="scale(0.015625)"/>
      <path id="ArialMT-79" d="M 397 -1278 
L 334 -750 
Q 519 -800 656 -800 
Q 844 -800 956 -737 
Q 1069 -675 1141 -563 
Q 1194 -478 1313 -144 
Q 1328 -97 1363 -6 
L 103 3319 
L 709 3319 
L 1400 1397 
Q 1534 1031 1641 628 
Q 1738 1016 1872 1384 
L 2581 3319 
L 3144 3319 
L 1881 -56 
Q 1678 -603 1566 -809 
Q 1416 -1088 1222 -1217 
Q 1028 -1347 759 -1347 
Q 597 -1347 397 -1278 
z
" transform="scale(0.015625)"/>
      <path id="ArialMT-28" d="M 1497 -1347 
Q 1031 -759 709 28 
Q 388 816 388 1659 
Q 388 2403 628 3084 
Q 909 3875 1497 4659 
L 1900 4659 
Q 1522 4009 1400 3731 
Q 1209 3300 1100 2831 
Q 966 2247 966 1656 
Q 966 153 1900 -1347 
L 1497 -1347 
z
" transform="scale(0.015625)"/>
      <path id="ArialMT-64" d="M 2575 0 
L 2575 419 
Q 2259 -75 1647 -75 
Q 1250 -75 917 144 
Q 584 363 401 755 
Q 219 1147 219 1656 
Q 219 2153 384 2558 
Q 550 2963 881 3178 
Q 1213 3394 1622 3394 
Q 1922 3394 2156 3267 
Q 2391 3141 2538 2938 
L 2538 4581 
L 3097 4581 
L 3097 0 
L 2575 0 
z
M 797 1656 
Q 797 1019 1065 703 
Q 1334 388 1700 388 
Q 2069 388 2326 689 
Q 2584 991 2584 1609 
Q 2584 2291 2321 2609 
Q 2059 2928 1675 2928 
Q 1300 2928 1048 2622 
Q 797 2316 797 1656 
z
" transform="scale(0.015625)"/>
      <path id="ArialMT-6c" d="M 409 0 
L 409 4581 
L 972 4581 
L 972 0 
L 409 0 
z
" transform="scale(0.015625)"/>
      <path id="ArialMT-43" d="M 3763 1606 
L 4369 1453 
Q 4178 706 3683 314 
Q 3188 -78 2472 -78 
Q 1731 -78 1267 223 
Q 803 525 561 1097 
Q 319 1669 319 2325 
Q 319 3041 592 3573 
Q 866 4106 1370 4382 
Q 1875 4659 2481 4659 
Q 3169 4659 3637 4309 
Q 4106 3959 4291 3325 
L 3694 3184 
Q 3534 3684 3231 3912 
Q 2928 4141 2469 4141 
Q 1941 4141 1586 3887 
Q 1231 3634 1087 3207 
Q 944 2781 944 2328 
Q 944 1744 1114 1308 
Q 1284 872 1643 656 
Q 2003 441 2422 441 
Q 2931 441 3284 734 
Q 3638 1028 3763 1606 
z
" transform="scale(0.015625)"/>
      <path id="ArialMT-6d" d="M 422 0 
L 422 3319 
L 925 3319 
L 925 2853 
Q 1081 3097 1340 3245 
Q 1600 3394 1931 3394 
Q 2300 3394 2536 3241 
Q 2772 3088 2869 2813 
Q 3263 3394 3894 3394 
Q 4388 3394 4653 3120 
Q 4919 2847 4919 2278 
L 4919 0 
L 4359 0 
L 4359 2091 
Q 4359 2428 4304 2576 
Q 4250 2725 4106 2815 
Q 3963 2906 3769 2906 
Q 3419 2906 3187 2673 
Q 2956 2441 2956 1928 
L 2956 0 
L 2394 0 
L 2394 2156 
Q 2394 2531 2256 2718 
Q 2119 2906 1806 2906 
Q 1569 2906 1367 2781 
Q 1166 2656 1075 2415 
Q 984 2175 984 1722 
L 984 0 
L 422 0 
z
" transform="scale(0.015625)"/>
      <path id="ArialMT-70" d="M 422 -1272 
L 422 3319 
L 934 3319 
L 934 2888 
Q 1116 3141 1344 3267 
Q 1572 3394 1897 3394 
Q 2322 3394 2647 3175 
Q 2972 2956 3137 2557 
Q 3303 2159 3303 1684 
Q 3303 1175 3120 767 
Q 2938 359 2589 142 
Q 2241 -75 1856 -75 
Q 1575 -75 1351 44 
Q 1128 163 984 344 
L 984 -1272 
L 422 -1272 
z
M 931 1641 
Q 931 1000 1190 694 
Q 1450 388 1819 388 
Q 2194 388 2461 705 
Q 2728 1022 2728 1688 
Q 2728 2322 2467 2637 
Q 2206 2953 1844 2953 
Q 1484 2953 1207 2617 
Q 931 2281 931 1641 
z
" transform="scale(0.015625)"/>
      <path id="ArialMT-6e" d="M 422 0 
L 422 3319 
L 928 3319 
L 928 2847 
Q 1294 3394 1984 3394 
Q 2284 3394 2536 3286 
Q 2788 3178 2913 3003 
Q 3038 2828 3088 2588 
Q 3119 2431 3119 2041 
L 3119 0 
L 2556 0 
L 2556 2019 
Q 2556 2363 2490 2533 
Q 2425 2703 2258 2804 
Q 2091 2906 1866 2906 
Q 1506 2906 1245 2678 
Q 984 2450 984 1813 
L 984 0 
L 422 0 
z
" transform="scale(0.015625)"/>
      <path id="ArialMT-29" d="M 791 -1347 
L 388 -1347 
Q 1322 153 1322 1656 
Q 1322 2244 1188 2822 
Q 1081 3291 891 3722 
Q 769 4003 388 4659 
L 791 4659 
Q 1378 3875 1659 3084 
Q 1900 2403 1900 1659 
Q 1900 816 1576 28 
Q 1253 -759 791 -1347 
z
" transform="scale(0.015625)"/>
     </defs>
     <use xlink:href="#ArialMT-42"/>
     <use xlink:href="#ArialMT-72" transform="translate(66.699219 0)"/>
     <use xlink:href="#ArialMT-69" transform="translate(100 0)"/>
     <use xlink:href="#ArialMT-65" transform="translate(122.216797 0)"/>
     <use xlink:href="#ArialMT-72" transform="translate(177.832031 0)"/>
     <use xlink:href="#ArialMT-20" transform="translate(211.132812 0)"/>
     <use xlink:href="#ArialMT-53" transform="translate(238.916016 0)"/>
     <use xlink:href="#ArialMT-63" transform="translate(305.615234 0)"/>
     <use xlink:href="#ArialMT-6f" transform="translate(355.615234 0)"/>
     <use xlink:href="#ArialMT-72" transform="translate(411.230469 0)"/>
     <use xlink:href="#ArialMT-65" transform="translate(444.53125 0)"/>
     <use xlink:href="#ArialMT-73" transform="translate(500.146484 0)"/>
     <use xlink:href="#ArialMT-20" transform="translate(550.146484 0)"/>
     <use xlink:href="#ArialMT-62" transform="translate(577.929688 0)"/>
     <use xlink:href="#ArialMT-79" transform="translate(633.544922 0)"/>
     <use xlink:href="#ArialMT-20" transform="translate(683.544922 0)"/>
     <use xlink:href="#ArialMT-4d" transform="translate(711.328125 0)"/>
     <use xlink:href="#ArialMT-61" transform="translate(794.628906 0)"/>
     <use xlink:href="#ArialMT-74" transform="translate(850.244141 0)"/>
     <use xlink:href="#ArialMT-63" transform="translate(878.027344 0)"/>
     <use xlink:href="#ArialMT-68" transform="translate(928.027344 0)"/>
     <use xlink:href="#ArialMT-20" transform="translate(983.642578 0)"/>
     <use xlink:href="#ArialMT-57" transform="translate(1011.425781 0)"/>
     <use xlink:href="#ArialMT-65" transform="translate(1104.060547 0)"/>
     <use xlink:href="#ArialMT-65" transform="translate(1159.675781 0)"/>
     <use xlink:href="#ArialMT-6b" transform="translate(1215.291016 0)"/>
     <use xlink:href="#ArialMT-20" transform="translate(1265.291016 0)"/>
     <use xlink:href="#ArialMT-28" transform="translate(1293.074219 0)"/>
     <use xlink:href="#ArialMT-42" transform="translate(1326.375 0)"/>
     <use xlink:href="#ArialMT-65" transform="translate(1393.074219 0)"/>
     <use xlink:href="#ArialMT-73" transform="translate(1448.689453 0)"/>
     <use xlink:href="#ArialMT-74" transform="translate(1498.689453 0)"/>
     <use xlink:href="#ArialMT-20" transform="translate(1526.472656 0)"/>
     <use xlink:href="#ArialMT-4d" transform="translate(1554.255859 0)"/>
     <use xlink:href="#ArialMT-6f" transform="translate(1637.556641 0)"/>
     <use xlink:href="#ArialMT-64" transform="translate(1693.171875 0)"/>
     <use xlink:href="#ArialMT-65" transform="translate(1748.787109 0)"/>
     <use xlink:href="#ArialMT-6c" transform="translate(1804.402344 0)"/>
     <use xlink:href="#ArialMT-73" transform="translate(1826.619141 0)"/>
     <use xlink:href="#ArialMT-20" transform="translate(1876.619141 0)"/>
     <use xlink:href="#ArialMT-43" transform="translate(1904.402344 0)"/>
     <use xlink:href="#ArialMT-6f" transform="translate(1976.619141 0)"/>
     <use xlink:href="#ArialMT-6d" transform="translate(2032.234375 0)"/>
     <use xlink:href="#ArialMT-70" transform="translate(2115.535156 0)"/>
     <use xlink:href="#ArialMT-61" transform="translate(2171.150391 0)"/>
     <use xlink:href="#ArialMT-72" transform="translate(2226.765625 0)"/>
     <use xlink:href="#ArialMT-69" transform="translate(2260.066406 0)"/>
     <use xlink:href="#ArialMT-73" transform="translate(2282.283203 0)"/>
     <use xlink:href="#ArialMT-6f" transform="translate(2332.283203 0)"/>
     <use xlink:href="#ArialMT-6e" transform="translate(2387.898438 0)"/>
     <use xlink:href="#ArialMT-29" transform="translate(2443.513672 0)"/>
    </g>
   </g>
   <g id="legend_1">
    <g id="patch_12">
     <path d="M 662.243281 132.864063 
L 827.664375 132.864063 
Q 829.864375 132.864063 829.864375 130.664063 
L 829.864375 36.835625 
Q 829.864375 34.635625 827.664375 34.635625 
L 662.243281 34.635625 
Q 660.043281 34.635625 660.043281 36.835625 
L 660.043281 130.664063 
Q 660.043281 132.864063 662.243281 132.864063 
z
" style="fill: #e8f1f2; opacity: 0.8; stroke: #cccccc; stroke-linejoin: miter"/>
    </g>
    <g id="text_24">
     <!-- Model -->
     <g style="fill: #033164" transform="translate(728.613203 47.625) scale(0.12 -0.12)">
      <use xlink:href="#ArialMT-4d"/>
      <use xlink:href="#ArialMT-6f" transform="translate(83.300781 0)"/>
      <use xlink:href="#ArialMT-64" transform="translate(138.916016 0)"/>
      <use xlink:href="#ArialMT-65" transform="translate(194.53125 0)"/>
      <use xlink:href="#ArialMT-6c" transform="translate(250.146484 0)"/>
     </g>
    </g>
    <g id="line2d_26">
     <path d="M 664.443281 59.533594 
L 675.443281 59.533594 
L 686.443281 59.533594 
" style="fill: none; stroke: #4c72b0; stroke-width: 1.5; stroke-linecap: round"/>
     <g>
      <use xlink:href="#m4068a70701" x="675.443281" y="59.533594" style="fill: #4c72b0; stroke: #e8f1f2; stroke-width: 0.75"/>
     </g>
    </g>
    <g id="text_25">
     <!-- GaussianNB -->
     <g style="fill: #033164" transform="translate(695.243281 63.383594) scale(0.11 -0.11)">
      <defs>
       <path id="ArialMT-47" d="M 2638 1797 
L 2638 2334 
L 4578 2338 
L 4578 638 
Q 4131 281 3656 101 
Q 3181 -78 2681 -78 
Q 2006 -78 1454 211 
Q 903 500 622 1047 
Q 341 1594 341 2269 
Q 341 2938 620 3517 
Q 900 4097 1425 4378 
Q 1950 4659 2634 4659 
Q 3131 4659 3532 4498 
Q 3934 4338 4162 4050 
Q 4391 3763 4509 3300 
L 3963 3150 
Q 3859 3500 3706 3700 
Q 3553 3900 3268 4020 
Q 2984 4141 2638 4141 
Q 2222 4141 1919 4014 
Q 1616 3888 1430 3681 
Q 1244 3475 1141 3228 
Q 966 2803 966 2306 
Q 966 1694 1177 1281 
Q 1388 869 1791 669 
Q 2194 469 2647 469 
Q 3041 469 3416 620 
Q 3791 772 3984 944 
L 3984 1797 
L 2638 1797 
z
" transform="scale(0.015625)"/>
       <path id="ArialMT-75" d="M 2597 0 
L 2597 488 
Q 2209 -75 1544 -75 
Q 1250 -75 995 37 
Q 741 150 617 320 
Q 494 491 444 738 
Q 409 903 409 1263 
L 409 3319 
L 972 3319 
L 972 1478 
Q 972 1038 1006 884 
Q 1059 663 1231 536 
Q 1403 409 1656 409 
Q 1909 409 2131 539 
Q 2353 669 2445 892 
Q 2538 1116 2538 1541 
L 2538 3319 
L 3100 3319 
L 3100 0 
L 2597 0 
z
" transform="scale(0.015625)"/>
       <path id="ArialMT-4e" d="M 488 0 
L 488 4581 
L 1109 4581 
L 3516 984 
L 3516 4581 
L 4097 4581 
L 4097 0 
L 3475 0 
L 1069 3600 
L 1069 0 
L 488 0 
z
" transform="scale(0.015625)"/>
      </defs>
      <use xlink:href="#ArialMT-47"/>
      <use xlink:href="#ArialMT-61" transform="translate(77.783203 0)"/>
      <use xlink:href="#ArialMT-75" transform="translate(133.398438 0)"/>
      <use xlink:href="#ArialMT-73" transform="translate(189.013672 0)"/>
      <use xlink:href="#ArialMT-73" transform="translate(239.013672 0)"/>
      <use xlink:href="#ArialMT-69" transform="translate(289.013672 0)"/>
      <use xlink:href="#ArialMT-61" transform="translate(311.230469 0)"/>
      <use xlink:href="#ArialMT-6e" transform="translate(366.845703 0)"/>
      <use xlink:href="#ArialMT-4e" transform="translate(422.460938 0)"/>
      <use xlink:href="#ArialMT-42" transform="translate(494.677734 0)"/>
     </g>
    </g>
    <g id="line2d_27">
     <path d="M 664.443281 75.2275 
L 675.443281 75.2275 
L 686.443281 75.2275 
" style="fill: none; stroke: #dd8452; stroke-width: 1.5; stroke-linecap: round"/>
     <g>
      <use xlink:href="#m3646bc476d" x="675.443281" y="75.2275" style="fill: #dd8452; stroke: #e8f1f2; stroke-width: 0.75"/>
     </g>
    </g>
    <g id="text_26">
     <!-- GradientBoostingClassifier -->
     <g style="fill: #033164" transform="translate(695.243281 79.0775) scale(0.11 -0.11)">
      <defs>
       <path id="ArialMT-67" d="M 319 -275 
L 866 -356 
Q 900 -609 1056 -725 
Q 1266 -881 1628 -881 
Q 2019 -881 2231 -725 
Q 2444 -569 2519 -288 
Q 2563 -116 2559 434 
Q 2191 0 1641 0 
Q 956 0 581 494 
Q 206 988 206 1678 
Q 206 2153 378 2554 
Q 550 2956 876 3175 
Q 1203 3394 1644 3394 
Q 2231 3394 2613 2919 
L 2613 3319 
L 3131 3319 
L 3131 450 
Q 3131 -325 2973 -648 
Q 2816 -972 2473 -1159 
Q 2131 -1347 1631 -1347 
Q 1038 -1347 672 -1080 
Q 306 -813 319 -275 
z
M 784 1719 
Q 784 1066 1043 766 
Q 1303 466 1694 466 
Q 2081 466 2343 764 
Q 2606 1063 2606 1700 
Q 2606 2309 2336 2618 
Q 2066 2928 1684 2928 
Q 1309 2928 1046 2623 
Q 784 2319 784 1719 
z
" transform="scale(0.015625)"/>
       <path id="ArialMT-66" d="M 556 0 
L 556 2881 
L 59 2881 
L 59 3319 
L 556 3319 
L 556 3672 
Q 556 4006 616 4169 
Q 697 4388 901 4523 
Q 1106 4659 1475 4659 
Q 1713 4659 2000 4603 
L 1916 4113 
Q 1741 4144 1584 4144 
Q 1328 4144 1222 4034 
Q 1116 3925 1116 3625 
L 1116 3319 
L 1763 3319 
L 1763 2881 
L 1116 2881 
L 1116 0 
L 556 0 
z
" transform="scale(0.015625)"/>
      </defs>
      <use xlink:href="#ArialMT-47"/>
      <use xlink:href="#ArialMT-72" transform="translate(77.783203 0)"/>
      <use xlink:href="#ArialMT-61" transform="translate(111.083984 0)"/>
      <use xlink:href="#ArialMT-64" transform="translate(166.699219 0)"/>
      <use xlink:href="#ArialMT-69" transform="translate(222.314453 0)"/>
      <use xlink:href="#ArialMT-65" transform="translate(244.53125 0)"/>
      <use xlink:href="#ArialMT-6e" transform="translate(300.146484 0)"/>
      <use xlink:href="#ArialMT-74" transform="translate(355.761719 0)"/>
      <use xlink:href="#ArialMT-42" transform="translate(383.544922 0)"/>
      <use xlink:href="#ArialMT-6f" transform="translate(450.244141 0)"/>
      <use xlink:href="#ArialMT-6f" transform="translate(505.859375 0)"/>
      <use xlink:href="#ArialMT-73" transform="translate(561.474609 0)"/>
      <use xlink:href="#ArialMT-74" transform="translate(611.474609 0)"/>
      <use xlink:href="#ArialMT-69" transform="translate(639.257812 0)"/>
      <use xlink:href="#ArialMT-6e" transform="translate(661.474609 0)"/>
      <use xlink:href="#ArialMT-67" transform="translate(717.089844 0)"/>
      <use xlink:href="#ArialMT-43" transform="translate(772.705078 0)"/>
      <use xlink:href="#ArialMT-6c" transform="translate(844.921875 0)"/>
      <use xlink:href="#ArialMT-61" transform="translate(867.138672 0)"/>
      <use xlink:href="#ArialMT-73" transform="translate(922.753906 0)"/>
      <use xlink:href="#ArialMT-73" transform="translate(972.753906 0)"/>
      <use xlink:href="#ArialMT-69" transform="translate(1022.753906 0)"/>
      <use xlink:href="#ArialMT-66" transform="translate(1044.970703 0)"/>
      <use xlink:href="#ArialMT-69" transform="translate(1072.753906 0)"/>
      <use xlink:href="#ArialMT-65" transform="translate(1094.970703 0)"/>
      <use xlink:href="#ArialMT-72" transform="translate(1150.585938 0)"/>
     </g>
    </g>
    <g id="line2d_28">
     <path d="M 664.443281 91.050313 
L 675.443281 91.050313 
L 686.443281 91.050313 
" style="fill: none; stroke: #55a868; stroke-width: 1.5; stroke-linecap: round"/>
     <g>
      <use xlink:href="#m353ed8f3b0" x="675.443281" y="91.050313" style="fill: #55a868; stroke: #e8f1f2; stroke-width: 0.75"/>
     </g>
    </g>
    <g id="text_27">
     <!-- KNeighborsClassifier -->
     <g style="fill: #033164" transform="translate(695.243281 94.900313) scale(0.11 -0.11)">
      <defs>
       <path id="ArialMT-4b" d="M 469 0 
L 469 4581 
L 1075 4581 
L 1075 2309 
L 3350 4581 
L 4172 4581 
L 2250 2725 
L 4256 0 
L 3456 0 
L 1825 2319 
L 1075 1588 
L 1075 0 
L 469 0 
z
" transform="scale(0.015625)"/>
      </defs>
      <use xlink:href="#ArialMT-4b"/>
      <use xlink:href="#ArialMT-4e" transform="translate(66.699219 0)"/>
      <use xlink:href="#ArialMT-65" transform="translate(138.916016 0)"/>
      <use xlink:href="#ArialMT-69" transform="translate(194.53125 0)"/>
      <use xlink:href="#ArialMT-67" transform="translate(216.748047 0)"/>
      <use xlink:href="#ArialMT-68" transform="translate(272.363281 0)"/>
      <use xlink:href="#ArialMT-62" transform="translate(327.978516 0)"/>
      <use xlink:href="#ArialMT-6f" transform="translate(383.59375 0)"/>
      <use xlink:href="#ArialMT-72" transform="translate(439.208984 0)"/>
      <use xlink:href="#ArialMT-73" transform="translate(472.509766 0)"/>
      <use xlink:href="#ArialMT-43" transform="translate(522.509766 0)"/>
      <use xlink:href="#ArialMT-6c" transform="translate(594.726562 0)"/>
      <use xlink:href="#ArialMT-61" transform="translate(616.943359 0)"/>
      <use xlink:href="#ArialMT-73" transform="translate(672.558594 0)"/>
      <use xlink:href="#ArialMT-73" transform="translate(722.558594 0)"/>
      <use xlink:href="#ArialMT-69" transform="translate(772.558594 0)"/>
      <use xlink:href="#ArialMT-66" transform="translate(794.775391 0)"/>
      <use xlink:href="#ArialMT-69" transform="translate(822.558594 0)"/>
      <use xlink:href="#ArialMT-65" transform="translate(844.775391 0)"/>
      <use xlink:href="#ArialMT-72" transform="translate(900.390625 0)"/>
     </g>
    </g>
    <g id="line2d_29">
     <path d="M 664.443281 106.739063 
L 675.443281 106.739063 
L 686.443281 106.739063 
" style="fill: none; stroke: #c44e52; stroke-width: 1.5; stroke-linecap: round"/>
     <g>
      <use xlink:href="#m22c80166e6" x="675.443281" y="106.739063" style="fill: #c44e52; stroke: #e8f1f2; stroke-width: 0.75"/>
     </g>
    </g>
    <g id="text_28">
     <!-- LogisticRegression -->
     <g style="fill: #033164" transform="translate(695.243281 110.589063) scale(0.11 -0.11)">
      <defs>
       <path id="ArialMT-4c" d="M 469 0 
L 469 4581 
L 1075 4581 
L 1075 541 
L 3331 541 
L 3331 0 
L 469 0 
z
" transform="scale(0.015625)"/>
       <path id="ArialMT-52" d="M 503 0 
L 503 4581 
L 2534 4581 
Q 3147 4581 3465 4457 
Q 3784 4334 3975 4021 
Q 4166 3709 4166 3331 
Q 4166 2844 3850 2509 
Q 3534 2175 2875 2084 
Q 3116 1969 3241 1856 
Q 3506 1613 3744 1247 
L 4541 0 
L 3778 0 
L 3172 953 
Q 2906 1366 2734 1584 
Q 2563 1803 2427 1890 
Q 2291 1978 2150 2013 
Q 2047 2034 1813 2034 
L 1109 2034 
L 1109 0 
L 503 0 
z
M 1109 2559 
L 2413 2559 
Q 2828 2559 3062 2645 
Q 3297 2731 3419 2920 
Q 3541 3109 3541 3331 
Q 3541 3656 3305 3865 
Q 3069 4075 2559 4075 
L 1109 4075 
L 1109 2559 
z
" transform="scale(0.015625)"/>
      </defs>
      <use xlink:href="#ArialMT-4c"/>
      <use xlink:href="#ArialMT-6f" transform="translate(55.615234 0)"/>
      <use xlink:href="#ArialMT-67" transform="translate(111.230469 0)"/>
      <use xlink:href="#ArialMT-69" transform="translate(166.845703 0)"/>
      <use xlink:href="#ArialMT-73" transform="translate(189.0625 0)"/>
      <use xlink:href="#ArialMT-74" transform="translate(239.0625 0)"/>
      <use xlink:href="#ArialMT-69" transform="translate(266.845703 0)"/>
      <use xlink:href="#ArialMT-63" transform="translate(289.0625 0)"/>
      <use xlink:href="#ArialMT-52" transform="translate(339.0625 0)"/>
      <use xlink:href="#ArialMT-65" transform="translate(411.279297 0)"/>
      <use xlink:href="#ArialMT-67" transform="translate(466.894531 0)"/>
      <use xlink:href="#ArialMT-72" transform="translate(522.509766 0)"/>
      <use xlink:href="#ArialMT-65" transform="translate(555.810547 0)"/>
      <use xlink:href="#ArialMT-73" transform="translate(611.425781 0)"/>
      <use xlink:href="#ArialMT-73" transform="translate(661.425781 0)"/>
      <use xlink:href="#ArialMT-69" transform="translate(711.425781 0)"/>
      <use xlink:href="#ArialMT-6f" transform="translate(733.642578 0)"/>
      <use xlink:href="#ArialMT-6e" transform="translate(789.257812 0)"/>
     </g>
    </g>
    <g id="line2d_30">
     <path d="M 664.443281 122.427813 
L 675.443281 122.427813 
L 686.443281 122.427813 
" style="fill: none; stroke: #8172b3; stroke-width: 1.5; stroke-linecap: round"/>
     <g>
      <use xlink:href="#m9c091dacb4" x="675.443281" y="122.427813" style="fill: #8172b3; stroke: #e8f1f2; stroke-width: 0.75"/>
     </g>
    </g>
    <g id="text_29">
     <!-- RandomForestClassifier -->
     <g style="fill: #033164" transform="translate(695.243281 126.277813) scale(0.11 -0.11)">
      <defs>
       <path id="ArialMT-46" d="M 525 0 
L 525 4581 
L 3616 4581 
L 3616 4041 
L 1131 4041 
L 1131 2622 
L 3281 2622 
L 3281 2081 
L 1131 2081 
L 1131 0 
L 525 0 
z
" transform="scale(0.015625)"/>
      </defs>
      <use xlink:href="#ArialMT-52"/>
      <use xlink:href="#ArialMT-61" transform="translate(72.216797 0)"/>
      <use xlink:href="#ArialMT-6e" transform="translate(127.832031 0)"/>
      <use xlink:href="#ArialMT-64" transform="translate(183.447266 0)"/>
      <use xlink:href="#ArialMT-6f" transform="translate(239.0625 0)"/>
      <use xlink:href="#ArialMT-6d" transform="translate(294.677734 0)"/>
      <use xlink:href="#ArialMT-46" transform="translate(377.978516 0)"/>
      <use xlink:href="#ArialMT-6f" transform="translate(439.0625 0)"/>
      <use xlink:href="#ArialMT-72" transform="translate(494.677734 0)"/>
      <use xlink:href="#ArialMT-65" transform="translate(527.978516 0)"/>
      <use xlink:href="#ArialMT-73" transform="translate(583.59375 0)"/>
      <use xlink:href="#ArialMT-74" transform="translate(633.59375 0)"/>
      <use xlink:href="#ArialMT-43" transform="translate(661.376953 0)"/>
      <use xlink:href="#ArialMT-6c" transform="translate(733.59375 0)"/>
      <use xlink:href="#ArialMT-61" transform="translate(755.810547 0)"/>
      <use xlink:href="#ArialMT-73" transform="translate(811.425781 0)"/>
      <use xlink:href="#ArialMT-73" transform="translate(861.425781 0)"/>
      <use xlink:href="#ArialMT-69" transform="translate(911.425781 0)"/>
      <use xlink:href="#ArialMT-66" transform="translate(933.642578 0)"/>
      <use xlink:href="#ArialMT-69" transform="translate(961.425781 0)"/>
      <use xlink:href="#ArialMT-65" transform="translate(983.642578 0)"/>
      <use xlink:href="#ArialMT-72" transform="translate(1039.257812 0)"/>
     </g>
    </g>
   </g>
  </g>
 </g>
 <defs>
  <clipPath id="p0b570fbc2f">
   <rect x="54.164375" y="29.135625" width="781.2" height="332.64"/>
  </clipPath>
 </defs>
</svg>
