<?xml version="1.0" encoding="utf-8" standalone="no"?>
<!DOCTYPE svg PUBLIC "-//W3C//DTD SVG 1.1//EN"
  "http://www.w3.org/Graphics/SVG/1.1/DTD/svg11.dtd">
<svg xmlns:xlink="http://www.w3.org/1999/xlink" width="648pt" height="432pt" viewBox="0 0 648 432" xmlns="http://www.w3.org/2000/svg" version="1.1">
 <metadata>
  <rdf:RDF xmlns:dc="http://purl.org/dc/elements/1.1/" xmlns:cc="http://creativecommons.org/ns#" xmlns:rdf="http://www.w3.org/1999/02/22-rdf-syntax-ns#">
   <cc:Work>
    <dc:type rdf:resource="http://purl.org/dc/dcmitype/StillImage"/>
    <dc:date>2025-06-25T22:23:21.273784</dc:date>
    <dc:format>image/svg+xml</dc:format>
    <dc:creator>
     <cc:Agent>
      <dc:title>Matplotlib v3.8.2, https://matplotlib.org/</dc:title>
     </cc:Agent>
    </dc:creator>
   </cc:Work>
  </rdf:RDF>
 </metadata>
 <defs>
  <style type="text/css">*{stroke-linejoin: round; stroke-linecap: butt}</style>
 </defs>
 <g id="figure_1">
  <g id="patch_1">
   <path d="M 0 432 
L 648 432 
L 648 0 
L 0 0 
z
" style="fill: #e8f1f2"/>
  </g>
  <g id="axes_1">
   <g id="patch_2">
    <path d="M 53.75 360.710864 
L 637.2 360.710864 
L 637.2 27.6 
L 53.75 27.6 
z
" style="fill: #e8f1f2"/>
   </g>
   <g id="PolyCollection_1"/>
   <g id="PolyCollection_2"/>
   <g id="PolyCollection_3"/>
   <g id="PolyCollection_4"/>
   <g id="matplotlib.axis_1">
    <g id="xtick_1">
     <g id="line2d_1">
      <path d="M 55.10506 360.710864 
L 55.10506 27.6 
" clip-path="url(#pd13ea4cceb)" style="fill: none; stroke: #b0b0b0; stroke-opacity: 0.3; stroke-width: 0.8; stroke-linecap: square"/>
     </g>
     <g id="line2d_2">
      <defs>
       <path id="m473d6ca431" d="M 0 0 
L 0 3.5 
" style="stroke: #033164; stroke-width: 0.8"/>
      </defs>
      <g>
       <use xlink:href="#m473d6ca431" x="55.10506" y="360.710864" style="fill: #033164; stroke: #033164; stroke-width: 0.8"/>
      </g>
     </g>
     <g id="text_1">
      <!-- 2015-08 -->
      <g style="fill: #033164" transform="translate(42.283777 402.62868) rotate(-45) scale(0.1 -0.1)">
       <defs>
        <path id="DejaVuSans-32" d="M 1228 531 
L 3431 531 
L 3431 0 
L 469 0 
L 469 531 
Q 828 903 1448 1529 
Q 2069 2156 2228 2338 
Q 2531 2678 2651 2914 
Q 2772 3150 2772 3378 
Q 2772 3750 2511 3984 
Q 2250 4219 1831 4219 
Q 1534 4219 1204 4116 
Q 875 4013 500 3803 
L 500 4441 
Q 881 4594 1212 4672 
Q 1544 4750 1819 4750 
Q 2544 4750 2975 4387 
Q 3406 4025 3406 3419 
Q 3406 3131 3298 2873 
Q 3191 2616 2906 2266 
Q 2828 2175 2409 1742 
Q 1991 1309 1228 531 
z
" transform="scale(0.015625)"/>
        <path id="DejaVuSans-30" d="M 2034 4250 
Q 1547 4250 1301 3770 
Q 1056 3291 1056 2328 
Q 1056 1369 1301 889 
Q 1547 409 2034 409 
Q 2525 409 2770 889 
Q 3016 1369 3016 2328 
Q 3016 3291 2770 3770 
Q 2525 4250 2034 4250 
z
M 2034 4750 
Q 2819 4750 3233 4129 
Q 3647 3509 3647 2328 
Q 3647 1150 3233 529 
Q 2819 -91 2034 -91 
Q 1250 -91 836 529 
Q 422 1150 422 2328 
Q 422 3509 836 4129 
Q 1250 4750 2034 4750 
z
" transform="scale(0.015625)"/>
        <path id="DejaVuSans-31" d="M 794 531 
L 1825 531 
L 1825 4091 
L 703 3866 
L 703 4441 
L 1819 4666 
L 2450 4666 
L 2450 531 
L 3481 531 
L 3481 0 
L 794 0 
L 794 531 
z
" transform="scale(0.015625)"/>
        <path id="DejaVuSans-35" d="M 691 4666 
L 3169 4666 
L 3169 4134 
L 1269 4134 
L 1269 2991 
Q 1406 3038 1543 3061 
Q 1681 3084 1819 3084 
Q 2600 3084 3056 2656 
Q 3513 2228 3513 1497 
Q 3513 744 3044 326 
Q 2575 -91 1722 -91 
Q 1428 -91 1123 -41 
Q 819 9 494 109 
L 494 744 
Q 775 591 1075 516 
Q 1375 441 1709 441 
Q 2250 441 2565 725 
Q 2881 1009 2881 1497 
Q 2881 1984 2565 2268 
Q 2250 2553 1709 2553 
Q 1456 2553 1204 2497 
Q 953 2441 691 2322 
L 691 4666 
z
" transform="scale(0.015625)"/>
        <path id="DejaVuSans-2d" d="M 313 2009 
L 1997 2009 
L 1997 1497 
L 313 1497 
L 313 2009 
z
" transform="scale(0.015625)"/>
        <path id="DejaVuSans-38" d="M 2034 2216 
Q 1584 2216 1326 1975 
Q 1069 1734 1069 1313 
Q 1069 891 1326 650 
Q 1584 409 2034 409 
Q 2484 409 2743 651 
Q 3003 894 3003 1313 
Q 3003 1734 2745 1975 
Q 2488 2216 2034 2216 
z
M 1403 2484 
Q 997 2584 770 2862 
Q 544 3141 544 3541 
Q 544 4100 942 4425 
Q 1341 4750 2034 4750 
Q 2731 4750 3128 4425 
Q 3525 4100 3525 3541 
Q 3525 3141 3298 2862 
Q 3072 2584 2669 2484 
Q 3125 2378 3379 2068 
Q 3634 1759 3634 1313 
Q 3634 634 3220 271 
Q 2806 -91 2034 -91 
Q 1263 -91 848 271 
Q 434 634 434 1313 
Q 434 1759 690 2068 
Q 947 2378 1403 2484 
z
M 1172 3481 
Q 1172 3119 1398 2916 
Q 1625 2713 2034 2713 
Q 2441 2713 2670 2916 
Q 2900 3119 2900 3481 
Q 2900 3844 2670 4047 
Q 2441 4250 2034 4250 
Q 1625 4250 1398 4047 
Q 1172 3844 1172 3481 
z
" transform="scale(0.015625)"/>
       </defs>
       <use xlink:href="#DejaVuSans-32"/>
       <use xlink:href="#DejaVuSans-30" x="63.623047"/>
       <use xlink:href="#DejaVuSans-31" x="127.246094"/>
       <use xlink:href="#DejaVuSans-35" x="190.869141"/>
       <use xlink:href="#DejaVuSans-2d" x="254.492188"/>
       <use xlink:href="#DejaVuSans-30" x="290.576172"/>
       <use xlink:href="#DejaVuSans-38" x="354.199219"/>
      </g>
     </g>
    </g>
    <g id="xtick_2">
     <g id="line2d_3">
      <path d="M 115.114847 360.710864 
L 115.114847 27.6 
" clip-path="url(#pd13ea4cceb)" style="fill: none; stroke: #b0b0b0; stroke-opacity: 0.3; stroke-width: 0.8; stroke-linecap: square"/>
     </g>
     <g id="line2d_4">
      <g>
       <use xlink:href="#m473d6ca431" x="115.114847" y="360.710864" style="fill: #033164; stroke: #033164; stroke-width: 0.8"/>
      </g>
     </g>
     <g id="text_2">
      <!-- 2015-09 -->
      <g style="fill: #033164" transform="translate(102.293565 402.62868) rotate(-45) scale(0.1 -0.1)">
       <defs>
        <path id="DejaVuSans-39" d="M 703 97 
L 703 672 
Q 941 559 1184 500 
Q 1428 441 1663 441 
Q 2288 441 2617 861 
Q 2947 1281 2994 2138 
Q 2813 1869 2534 1725 
Q 2256 1581 1919 1581 
Q 1219 1581 811 2004 
Q 403 2428 403 3163 
Q 403 3881 828 4315 
Q 1253 4750 1959 4750 
Q 2769 4750 3195 4129 
Q 3622 3509 3622 2328 
Q 3622 1225 3098 567 
Q 2575 -91 1691 -91 
Q 1453 -91 1209 -44 
Q 966 3 703 97 
z
M 1959 2075 
Q 2384 2075 2632 2365 
Q 2881 2656 2881 3163 
Q 2881 3666 2632 3958 
Q 2384 4250 1959 4250 
Q 1534 4250 1286 3958 
Q 1038 3666 1038 3163 
Q 1038 2656 1286 2365 
Q 1534 2075 1959 2075 
z
" transform="scale(0.015625)"/>
       </defs>
       <use xlink:href="#DejaVuSans-32"/>
       <use xlink:href="#DejaVuSans-30" x="63.623047"/>
       <use xlink:href="#DejaVuSans-31" x="127.246094"/>
       <use xlink:href="#DejaVuSans-35" x="190.869141"/>
       <use xlink:href="#DejaVuSans-2d" x="254.492188"/>
       <use xlink:href="#DejaVuSans-30" x="290.576172"/>
       <use xlink:href="#DejaVuSans-39" x="354.199219"/>
      </g>
     </g>
    </g>
    <g id="xtick_3">
     <g id="line2d_5">
      <path d="M 173.188835 360.710864 
L 173.188835 27.6 
" clip-path="url(#pd13ea4cceb)" style="fill: none; stroke: #b0b0b0; stroke-opacity: 0.3; stroke-width: 0.8; stroke-linecap: square"/>
     </g>
     <g id="line2d_6">
      <g>
       <use xlink:href="#m473d6ca431" x="173.188835" y="360.710864" style="fill: #033164; stroke: #033164; stroke-width: 0.8"/>
      </g>
     </g>
     <g id="text_3">
      <!-- 2015-10 -->
      <g style="fill: #033164" transform="translate(160.367553 402.62868) rotate(-45) scale(0.1 -0.1)">
       <use xlink:href="#DejaVuSans-32"/>
       <use xlink:href="#DejaVuSans-30" x="63.623047"/>
       <use xlink:href="#DejaVuSans-31" x="127.246094"/>
       <use xlink:href="#DejaVuSans-35" x="190.869141"/>
       <use xlink:href="#DejaVuSans-2d" x="254.492188"/>
       <use xlink:href="#DejaVuSans-31" x="290.576172"/>
       <use xlink:href="#DejaVuSans-30" x="354.199219"/>
      </g>
     </g>
    </g>
    <g id="xtick_4">
     <g id="line2d_7">
      <path d="M 233.198623 360.710864 
L 233.198623 27.6 
" clip-path="url(#pd13ea4cceb)" style="fill: none; stroke: #b0b0b0; stroke-opacity: 0.3; stroke-width: 0.8; stroke-linecap: square"/>
     </g>
     <g id="line2d_8">
      <g>
       <use xlink:href="#m473d6ca431" x="233.198623" y="360.710864" style="fill: #033164; stroke: #033164; stroke-width: 0.8"/>
      </g>
     </g>
     <g id="text_4">
      <!-- 2015-11 -->
      <g style="fill: #033164" transform="translate(220.377341 402.62868) rotate(-45) scale(0.1 -0.1)">
       <use xlink:href="#DejaVuSans-32"/>
       <use xlink:href="#DejaVuSans-30" x="63.623047"/>
       <use xlink:href="#DejaVuSans-31" x="127.246094"/>
       <use xlink:href="#DejaVuSans-35" x="190.869141"/>
       <use xlink:href="#DejaVuSans-2d" x="254.492188"/>
       <use xlink:href="#DejaVuSans-31" x="290.576172"/>
       <use xlink:href="#DejaVuSans-31" x="354.199219"/>
      </g>
     </g>
    </g>
    <g id="xtick_5">
     <g id="line2d_9">
      <path d="M 291.272611 360.710864 
L 291.272611 27.6 
" clip-path="url(#pd13ea4cceb)" style="fill: none; stroke: #b0b0b0; stroke-opacity: 0.3; stroke-width: 0.8; stroke-linecap: square"/>
     </g>
     <g id="line2d_10">
      <g>
       <use xlink:href="#m473d6ca431" x="291.272611" y="360.710864" style="fill: #033164; stroke: #033164; stroke-width: 0.8"/>
      </g>
     </g>
     <g id="text_5">
      <!-- 2015-12 -->
      <g style="fill: #033164" transform="translate(278.451329 402.62868) rotate(-45) scale(0.1 -0.1)">
       <use xlink:href="#DejaVuSans-32"/>
       <use xlink:href="#DejaVuSans-30" x="63.623047"/>
       <use xlink:href="#DejaVuSans-31" x="127.246094"/>
       <use xlink:href="#DejaVuSans-35" x="190.869141"/>
       <use xlink:href="#DejaVuSans-2d" x="254.492188"/>
       <use xlink:href="#DejaVuSans-31" x="290.576172"/>
       <use xlink:href="#DejaVuSans-32" x="354.199219"/>
      </g>
     </g>
    </g>
    <g id="xtick_6">
     <g id="line2d_11">
      <path d="M 351.282399 360.710864 
L 351.282399 27.6 
" clip-path="url(#pd13ea4cceb)" style="fill: none; stroke: #b0b0b0; stroke-opacity: 0.3; stroke-width: 0.8; stroke-linecap: square"/>
     </g>
     <g id="line2d_12">
      <g>
       <use xlink:href="#m473d6ca431" x="351.282399" y="360.710864" style="fill: #033164; stroke: #033164; stroke-width: 0.8"/>
      </g>
     </g>
     <g id="text_6">
      <!-- 2016-01 -->
      <g style="fill: #033164" transform="translate(338.461117 402.62868) rotate(-45) scale(0.1 -0.1)">
       <defs>
        <path id="DejaVuSans-36" d="M 2113 2584 
Q 1688 2584 1439 2293 
Q 1191 2003 1191 1497 
Q 1191 994 1439 701 
Q 1688 409 2113 409 
Q 2538 409 2786 701 
Q 3034 994 3034 1497 
Q 3034 2003 2786 2293 
Q 2538 2584 2113 2584 
z
M 3366 4563 
L 3366 3988 
Q 3128 4100 2886 4159 
Q 2644 4219 2406 4219 
Q 1781 4219 1451 3797 
Q 1122 3375 1075 2522 
Q 1259 2794 1537 2939 
Q 1816 3084 2150 3084 
Q 2853 3084 3261 2657 
Q 3669 2231 3669 1497 
Q 3669 778 3244 343 
Q 2819 -91 2113 -91 
Q 1303 -91 875 529 
Q 447 1150 447 2328 
Q 447 3434 972 4092 
Q 1497 4750 2381 4750 
Q 2619 4750 2861 4703 
Q 3103 4656 3366 4563 
z
" transform="scale(0.015625)"/>
       </defs>
       <use xlink:href="#DejaVuSans-32"/>
       <use xlink:href="#DejaVuSans-30" x="63.623047"/>
       <use xlink:href="#DejaVuSans-31" x="127.246094"/>
       <use xlink:href="#DejaVuSans-36" x="190.869141"/>
       <use xlink:href="#DejaVuSans-2d" x="254.492188"/>
       <use xlink:href="#DejaVuSans-30" x="290.576172"/>
       <use xlink:href="#DejaVuSans-31" x="354.199219"/>
      </g>
     </g>
    </g>
    <g id="xtick_7">
     <g id="line2d_13">
      <path d="M 411.292186 360.710864 
L 411.292186 27.6 
" clip-path="url(#pd13ea4cceb)" style="fill: none; stroke: #b0b0b0; stroke-opacity: 0.3; stroke-width: 0.8; stroke-linecap: square"/>
     </g>
     <g id="line2d_14">
      <g>
       <use xlink:href="#m473d6ca431" x="411.292186" y="360.710864" style="fill: #033164; stroke: #033164; stroke-width: 0.8"/>
      </g>
     </g>
     <g id="text_7">
      <!-- 2016-02 -->
      <g style="fill: #033164" transform="translate(398.470904 402.62868) rotate(-45) scale(0.1 -0.1)">
       <use xlink:href="#DejaVuSans-32"/>
       <use xlink:href="#DejaVuSans-30" x="63.623047"/>
       <use xlink:href="#DejaVuSans-31" x="127.246094"/>
       <use xlink:href="#DejaVuSans-36" x="190.869141"/>
       <use xlink:href="#DejaVuSans-2d" x="254.492188"/>
       <use xlink:href="#DejaVuSans-30" x="290.576172"/>
       <use xlink:href="#DejaVuSans-32" x="354.199219"/>
      </g>
     </g>
    </g>
    <g id="xtick_8">
     <g id="line2d_15">
      <path d="M 467.430375 360.710864 
L 467.430375 27.6 
" clip-path="url(#pd13ea4cceb)" style="fill: none; stroke: #b0b0b0; stroke-opacity: 0.3; stroke-width: 0.8; stroke-linecap: square"/>
     </g>
     <g id="line2d_16">
      <g>
       <use xlink:href="#m473d6ca431" x="467.430375" y="360.710864" style="fill: #033164; stroke: #033164; stroke-width: 0.8"/>
      </g>
     </g>
     <g id="text_8">
      <!-- 2016-03 -->
      <g style="fill: #033164" transform="translate(454.609093 402.62868) rotate(-45) scale(0.1 -0.1)">
       <defs>
        <path id="DejaVuSans-33" d="M 2597 2516 
Q 3050 2419 3304 2112 
Q 3559 1806 3559 1356 
Q 3559 666 3084 287 
Q 2609 -91 1734 -91 
Q 1441 -91 1130 -33 
Q 819 25 488 141 
L 488 750 
Q 750 597 1062 519 
Q 1375 441 1716 441 
Q 2309 441 2620 675 
Q 2931 909 2931 1356 
Q 2931 1769 2642 2001 
Q 2353 2234 1838 2234 
L 1294 2234 
L 1294 2753 
L 1863 2753 
Q 2328 2753 2575 2939 
Q 2822 3125 2822 3475 
Q 2822 3834 2567 4026 
Q 2313 4219 1838 4219 
Q 1578 4219 1281 4162 
Q 984 4106 628 3988 
L 628 4550 
Q 988 4650 1302 4700 
Q 1616 4750 1894 4750 
Q 2613 4750 3031 4423 
Q 3450 4097 3450 3541 
Q 3450 3153 3228 2886 
Q 3006 2619 2597 2516 
z
" transform="scale(0.015625)"/>
       </defs>
       <use xlink:href="#DejaVuSans-32"/>
       <use xlink:href="#DejaVuSans-30" x="63.623047"/>
       <use xlink:href="#DejaVuSans-31" x="127.246094"/>
       <use xlink:href="#DejaVuSans-36" x="190.869141"/>
       <use xlink:href="#DejaVuSans-2d" x="254.492188"/>
       <use xlink:href="#DejaVuSans-30" x="290.576172"/>
       <use xlink:href="#DejaVuSans-33" x="354.199219"/>
      </g>
     </g>
    </g>
    <g id="xtick_9">
     <g id="line2d_17">
      <path d="M 527.440163 360.710864 
L 527.440163 27.6 
" clip-path="url(#pd13ea4cceb)" style="fill: none; stroke: #b0b0b0; stroke-opacity: 0.3; stroke-width: 0.8; stroke-linecap: square"/>
     </g>
     <g id="line2d_18">
      <g>
       <use xlink:href="#m473d6ca431" x="527.440163" y="360.710864" style="fill: #033164; stroke: #033164; stroke-width: 0.8"/>
      </g>
     </g>
     <g id="text_9">
      <!-- 2016-04 -->
      <g style="fill: #033164" transform="translate(514.61888 402.62868) rotate(-45) scale(0.1 -0.1)">
       <defs>
        <path id="DejaVuSans-34" d="M 2419 4116 
L 825 1625 
L 2419 1625 
L 2419 4116 
z
M 2253 4666 
L 3047 4666 
L 3047 1625 
L 3713 1625 
L 3713 1100 
L 3047 1100 
L 3047 0 
L 2419 0 
L 2419 1100 
L 313 1100 
L 313 1709 
L 2253 4666 
z
" transform="scale(0.015625)"/>
       </defs>
       <use xlink:href="#DejaVuSans-32"/>
       <use xlink:href="#DejaVuSans-30" x="63.623047"/>
       <use xlink:href="#DejaVuSans-31" x="127.246094"/>
       <use xlink:href="#DejaVuSans-36" x="190.869141"/>
       <use xlink:href="#DejaVuSans-2d" x="254.492188"/>
       <use xlink:href="#DejaVuSans-30" x="290.576172"/>
       <use xlink:href="#DejaVuSans-34" x="354.199219"/>
      </g>
     </g>
    </g>
    <g id="xtick_10">
     <g id="line2d_19">
      <path d="M 585.514151 360.710864 
L 585.514151 27.6 
" clip-path="url(#pd13ea4cceb)" style="fill: none; stroke: #b0b0b0; stroke-opacity: 0.3; stroke-width: 0.8; stroke-linecap: square"/>
     </g>
     <g id="line2d_20">
      <g>
       <use xlink:href="#m473d6ca431" x="585.514151" y="360.710864" style="fill: #033164; stroke: #033164; stroke-width: 0.8"/>
      </g>
     </g>
     <g id="text_10">
      <!-- 2016-05 -->
      <g style="fill: #033164" transform="translate(572.692868 402.62868) rotate(-45) scale(0.1 -0.1)">
       <use xlink:href="#DejaVuSans-32"/>
       <use xlink:href="#DejaVuSans-30" x="63.623047"/>
       <use xlink:href="#DejaVuSans-31" x="127.246094"/>
       <use xlink:href="#DejaVuSans-36" x="190.869141"/>
       <use xlink:href="#DejaVuSans-2d" x="254.492188"/>
       <use xlink:href="#DejaVuSans-30" x="290.576172"/>
       <use xlink:href="#DejaVuSans-35" x="354.199219"/>
      </g>
     </g>
    </g>
    <g id="text_11">
     <!-- Match Date -->
     <g style="fill: #033164" transform="translate(310.919688 417.217367) scale(0.12 -0.12)">
      <defs>
       <path id="DejaVuSans-4d" d="M 628 4666 
L 1569 4666 
L 2759 1491 
L 3956 4666 
L 4897 4666 
L 4897 0 
L 4281 0 
L 4281 4097 
L 3078 897 
L 2444 897 
L 1241 4097 
L 1241 0 
L 628 0 
L 628 4666 
z
" transform="scale(0.015625)"/>
       <path id="DejaVuSans-61" d="M 2194 1759 
Q 1497 1759 1228 1600 
Q 959 1441 959 1056 
Q 959 750 1161 570 
Q 1363 391 1709 391 
Q 2188 391 2477 730 
Q 2766 1069 2766 1631 
L 2766 1759 
L 2194 1759 
z
M 3341 1997 
L 3341 0 
L 2766 0 
L 2766 531 
Q 2569 213 2275 61 
Q 1981 -91 1556 -91 
Q 1019 -91 701 211 
Q 384 513 384 1019 
Q 384 1609 779 1909 
Q 1175 2209 1959 2209 
L 2766 2209 
L 2766 2266 
Q 2766 2663 2505 2880 
Q 2244 3097 1772 3097 
Q 1472 3097 1187 3025 
Q 903 2953 641 2809 
L 641 3341 
Q 956 3463 1253 3523 
Q 1550 3584 1831 3584 
Q 2591 3584 2966 3190 
Q 3341 2797 3341 1997 
z
" transform="scale(0.015625)"/>
       <path id="DejaVuSans-74" d="M 1172 4494 
L 1172 3500 
L 2356 3500 
L 2356 3053 
L 1172 3053 
L 1172 1153 
Q 1172 725 1289 603 
Q 1406 481 1766 481 
L 2356 481 
L 2356 0 
L 1766 0 
Q 1100 0 847 248 
Q 594 497 594 1153 
L 594 3053 
L 172 3053 
L 172 3500 
L 594 3500 
L 594 4494 
L 1172 4494 
z
" transform="scale(0.015625)"/>
       <path id="DejaVuSans-63" d="M 3122 3366 
L 3122 2828 
Q 2878 2963 2633 3030 
Q 2388 3097 2138 3097 
Q 1578 3097 1268 2742 
Q 959 2388 959 1747 
Q 959 1106 1268 751 
Q 1578 397 2138 397 
Q 2388 397 2633 464 
Q 2878 531 3122 666 
L 3122 134 
Q 2881 22 2623 -34 
Q 2366 -91 2075 -91 
Q 1284 -91 818 406 
Q 353 903 353 1747 
Q 353 2603 823 3093 
Q 1294 3584 2113 3584 
Q 2378 3584 2631 3529 
Q 2884 3475 3122 3366 
z
" transform="scale(0.015625)"/>
       <path id="DejaVuSans-68" d="M 3513 2113 
L 3513 0 
L 2938 0 
L 2938 2094 
Q 2938 2591 2744 2837 
Q 2550 3084 2163 3084 
Q 1697 3084 1428 2787 
Q 1159 2491 1159 1978 
L 1159 0 
L 581 0 
L 581 4863 
L 1159 4863 
L 1159 2956 
Q 1366 3272 1645 3428 
Q 1925 3584 2291 3584 
Q 2894 3584 3203 3211 
Q 3513 2838 3513 2113 
z
" transform="scale(0.015625)"/>
       <path id="DejaVuSans-20" transform="scale(0.015625)"/>
       <path id="DejaVuSans-44" d="M 1259 4147 
L 1259 519 
L 2022 519 
Q 2988 519 3436 956 
Q 3884 1394 3884 2338 
Q 3884 3275 3436 3711 
Q 2988 4147 2022 4147 
L 1259 4147 
z
M 628 4666 
L 1925 4666 
Q 3281 4666 3915 4102 
Q 4550 3538 4550 2338 
Q 4550 1131 3912 565 
Q 3275 0 1925 0 
L 628 0 
L 628 4666 
z
" transform="scale(0.015625)"/>
       <path id="DejaVuSans-65" d="M 3597 1894 
L 3597 1613 
L 953 1613 
Q 991 1019 1311 708 
Q 1631 397 2203 397 
Q 2534 397 2845 478 
Q 3156 559 3463 722 
L 3463 178 
Q 3153 47 2828 -22 
Q 2503 -91 2169 -91 
Q 1331 -91 842 396 
Q 353 884 353 1716 
Q 353 2575 817 3079 
Q 1281 3584 2069 3584 
Q 2775 3584 3186 3129 
Q 3597 2675 3597 1894 
z
M 3022 2063 
Q 3016 2534 2758 2815 
Q 2500 3097 2075 3097 
Q 1594 3097 1305 2825 
Q 1016 2553 972 2059 
L 3022 2063 
z
" transform="scale(0.015625)"/>
      </defs>
      <use xlink:href="#DejaVuSans-4d"/>
      <use xlink:href="#DejaVuSans-61" x="86.279297"/>
      <use xlink:href="#DejaVuSans-74" x="147.558594"/>
      <use xlink:href="#DejaVuSans-63" x="186.767578"/>
      <use xlink:href="#DejaVuSans-68" x="241.748047"/>
      <use xlink:href="#DejaVuSans-20" x="305.126953"/>
      <use xlink:href="#DejaVuSans-44" x="336.914062"/>
      <use xlink:href="#DejaVuSans-61" x="413.916016"/>
      <use xlink:href="#DejaVuSans-74" x="475.195312"/>
      <use xlink:href="#DejaVuSans-65" x="514.404297"/>
     </g>
    </g>
   </g>
   <g id="matplotlib.axis_2">
    <g id="ytick_1">
     <g id="line2d_21">
      <path d="M 53.75 338.503473 
L 637.2 338.503473 
" clip-path="url(#pd13ea4cceb)" style="fill: none; stroke: #b0b0b0; stroke-opacity: 0.3; stroke-width: 0.8; stroke-linecap: square"/>
     </g>
     <g id="line2d_22">
      <defs>
       <path id="mb0232c819e" d="M 0 0 
L -3.5 0 
" style="stroke: #033164; stroke-width: 0.8"/>
      </defs>
      <g>
       <use xlink:href="#mb0232c819e" x="53.75" y="338.503473" style="fill: #033164; stroke: #033164; stroke-width: 0.8"/>
      </g>
     </g>
     <g id="text_12">
      <!-- 30 -->
      <g style="fill: #033164" transform="translate(34.025 342.302692) scale(0.1 -0.1)">
       <use xlink:href="#DejaVuSans-33"/>
       <use xlink:href="#DejaVuSans-30" x="63.623047"/>
      </g>
     </g>
    </g>
    <g id="ytick_2">
     <g id="line2d_23">
      <path d="M 53.75 294.088691 
L 637.2 294.088691 
" clip-path="url(#pd13ea4cceb)" style="fill: none; stroke: #b0b0b0; stroke-opacity: 0.3; stroke-width: 0.8; stroke-linecap: square"/>
     </g>
     <g id="line2d_24">
      <g>
       <use xlink:href="#mb0232c819e" x="53.75" y="294.088691" style="fill: #033164; stroke: #033164; stroke-width: 0.8"/>
      </g>
     </g>
     <g id="text_13">
      <!-- 40 -->
      <g style="fill: #033164" transform="translate(34.025 297.88791) scale(0.1 -0.1)">
       <use xlink:href="#DejaVuSans-34"/>
       <use xlink:href="#DejaVuSans-30" x="63.623047"/>
      </g>
     </g>
    </g>
    <g id="ytick_3">
     <g id="line2d_25">
      <path d="M 53.75 249.673909 
L 637.2 249.673909 
" clip-path="url(#pd13ea4cceb)" style="fill: none; stroke: #b0b0b0; stroke-opacity: 0.3; stroke-width: 0.8; stroke-linecap: square"/>
     </g>
     <g id="line2d_26">
      <g>
       <use xlink:href="#mb0232c819e" x="53.75" y="249.673909" style="fill: #033164; stroke: #033164; stroke-width: 0.8"/>
      </g>
     </g>
     <g id="text_14">
      <!-- 50 -->
      <g style="fill: #033164" transform="translate(34.025 253.473128) scale(0.1 -0.1)">
       <use xlink:href="#DejaVuSans-35"/>
       <use xlink:href="#DejaVuSans-30" x="63.623047"/>
      </g>
     </g>
    </g>
    <g id="ytick_4">
     <g id="line2d_27">
      <path d="M 53.75 205.259127 
L 637.2 205.259127 
" clip-path="url(#pd13ea4cceb)" style="fill: none; stroke: #b0b0b0; stroke-opacity: 0.3; stroke-width: 0.8; stroke-linecap: square"/>
     </g>
     <g id="line2d_28">
      <g>
       <use xlink:href="#mb0232c819e" x="53.75" y="205.259127" style="fill: #033164; stroke: #033164; stroke-width: 0.8"/>
      </g>
     </g>
     <g id="text_15">
      <!-- 60 -->
      <g style="fill: #033164" transform="translate(34.025 209.058346) scale(0.1 -0.1)">
       <use xlink:href="#DejaVuSans-36"/>
       <use xlink:href="#DejaVuSans-30" x="63.623047"/>
      </g>
     </g>
    </g>
    <g id="ytick_5">
     <g id="line2d_29">
      <path d="M 53.75 160.844345 
L 637.2 160.844345 
" clip-path="url(#pd13ea4cceb)" style="fill: none; stroke: #b0b0b0; stroke-opacity: 0.3; stroke-width: 0.8; stroke-linecap: square"/>
     </g>
     <g id="line2d_30">
      <g>
       <use xlink:href="#mb0232c819e" x="53.75" y="160.844345" style="fill: #033164; stroke: #033164; stroke-width: 0.8"/>
      </g>
     </g>
     <g id="text_16">
      <!-- 70 -->
      <g style="fill: #033164" transform="translate(34.025 164.643564) scale(0.1 -0.1)">
       <defs>
        <path id="DejaVuSans-37" d="M 525 4666 
L 3525 4666 
L 3525 4397 
L 1831 0 
L 1172 0 
L 2766 4134 
L 525 4134 
L 525 4666 
z
" transform="scale(0.015625)"/>
       </defs>
       <use xlink:href="#DejaVuSans-37"/>
       <use xlink:href="#DejaVuSans-30" x="63.623047"/>
      </g>
     </g>
    </g>
    <g id="ytick_6">
     <g id="line2d_31">
      <path d="M 53.75 116.429564 
L 637.2 116.429564 
" clip-path="url(#pd13ea4cceb)" style="fill: none; stroke: #b0b0b0; stroke-opacity: 0.3; stroke-width: 0.8; stroke-linecap: square"/>
     </g>
     <g id="line2d_32">
      <g>
       <use xlink:href="#mb0232c819e" x="53.75" y="116.429564" style="fill: #033164; stroke: #033164; stroke-width: 0.8"/>
      </g>
     </g>
     <g id="text_17">
      <!-- 80 -->
      <g style="fill: #033164" transform="translate(34.025 120.228782) scale(0.1 -0.1)">
       <use xlink:href="#DejaVuSans-38"/>
       <use xlink:href="#DejaVuSans-30" x="63.623047"/>
      </g>
     </g>
    </g>
    <g id="ytick_7">
     <g id="line2d_33">
      <path d="M 53.75 72.014782 
L 637.2 72.014782 
" clip-path="url(#pd13ea4cceb)" style="fill: none; stroke: #b0b0b0; stroke-opacity: 0.3; stroke-width: 0.8; stroke-linecap: square"/>
     </g>
     <g id="line2d_34">
      <g>
       <use xlink:href="#mb0232c819e" x="53.75" y="72.014782" style="fill: #033164; stroke: #033164; stroke-width: 0.8"/>
      </g>
     </g>
     <g id="text_18">
      <!-- 90 -->
      <g style="fill: #033164" transform="translate(34.025 75.814001) scale(0.1 -0.1)">
       <use xlink:href="#DejaVuSans-39"/>
       <use xlink:href="#DejaVuSans-30" x="63.623047"/>
      </g>
     </g>
    </g>
    <g id="ytick_8">
     <g id="line2d_35">
      <path d="M 53.75 27.6 
L 637.2 27.6 
" clip-path="url(#pd13ea4cceb)" style="fill: none; stroke: #b0b0b0; stroke-opacity: 0.3; stroke-width: 0.8; stroke-linecap: square"/>
     </g>
     <g id="line2d_36">
      <g>
       <use xlink:href="#mb0232c819e" x="53.75" y="27.6" style="fill: #033164; stroke: #033164; stroke-width: 0.8"/>
      </g>
     </g>
     <g id="text_19">
      <!-- 100 -->
      <g style="fill: #033164" transform="translate(27.6625 31.399219) scale(0.1 -0.1)">
       <use xlink:href="#DejaVuSans-31"/>
       <use xlink:href="#DejaVuSans-30" x="63.623047"/>
       <use xlink:href="#DejaVuSans-30" x="127.246094"/>
      </g>
     </g>
    </g>
    <g id="text_20">
     <!-- Pass Completion % -->
     <g style="fill: #033164" transform="translate(21.166875 251.311994) rotate(-90) scale(0.12 -0.12)">
      <defs>
       <path id="DejaVuSans-50" d="M 1259 4147 
L 1259 2394 
L 2053 2394 
Q 2494 2394 2734 2622 
Q 2975 2850 2975 3272 
Q 2975 3691 2734 3919 
Q 2494 4147 2053 4147 
L 1259 4147 
z
M 628 4666 
L 2053 4666 
Q 2838 4666 3239 4311 
Q 3641 3956 3641 3272 
Q 3641 2581 3239 2228 
Q 2838 1875 2053 1875 
L 1259 1875 
L 1259 0 
L 628 0 
L 628 4666 
z
" transform="scale(0.015625)"/>
       <path id="DejaVuSans-73" d="M 2834 3397 
L 2834 2853 
Q 2591 2978 2328 3040 
Q 2066 3103 1784 3103 
Q 1356 3103 1142 2972 
Q 928 2841 928 2578 
Q 928 2378 1081 2264 
Q 1234 2150 1697 2047 
L 1894 2003 
Q 2506 1872 2764 1633 
Q 3022 1394 3022 966 
Q 3022 478 2636 193 
Q 2250 -91 1575 -91 
Q 1294 -91 989 -36 
Q 684 19 347 128 
L 347 722 
Q 666 556 975 473 
Q 1284 391 1588 391 
Q 1994 391 2212 530 
Q 2431 669 2431 922 
Q 2431 1156 2273 1281 
Q 2116 1406 1581 1522 
L 1381 1569 
Q 847 1681 609 1914 
Q 372 2147 372 2553 
Q 372 3047 722 3315 
Q 1072 3584 1716 3584 
Q 2034 3584 2315 3537 
Q 2597 3491 2834 3397 
z
" transform="scale(0.015625)"/>
       <path id="DejaVuSans-43" d="M 4122 4306 
L 4122 3641 
Q 3803 3938 3442 4084 
Q 3081 4231 2675 4231 
Q 1875 4231 1450 3742 
Q 1025 3253 1025 2328 
Q 1025 1406 1450 917 
Q 1875 428 2675 428 
Q 3081 428 3442 575 
Q 3803 722 4122 1019 
L 4122 359 
Q 3791 134 3420 21 
Q 3050 -91 2638 -91 
Q 1578 -91 968 557 
Q 359 1206 359 2328 
Q 359 3453 968 4101 
Q 1578 4750 2638 4750 
Q 3056 4750 3426 4639 
Q 3797 4528 4122 4306 
z
" transform="scale(0.015625)"/>
       <path id="DejaVuSans-6f" d="M 1959 3097 
Q 1497 3097 1228 2736 
Q 959 2375 959 1747 
Q 959 1119 1226 758 
Q 1494 397 1959 397 
Q 2419 397 2687 759 
Q 2956 1122 2956 1747 
Q 2956 2369 2687 2733 
Q 2419 3097 1959 3097 
z
M 1959 3584 
Q 2709 3584 3137 3096 
Q 3566 2609 3566 1747 
Q 3566 888 3137 398 
Q 2709 -91 1959 -91 
Q 1206 -91 779 398 
Q 353 888 353 1747 
Q 353 2609 779 3096 
Q 1206 3584 1959 3584 
z
" transform="scale(0.015625)"/>
       <path id="DejaVuSans-6d" d="M 3328 2828 
Q 3544 3216 3844 3400 
Q 4144 3584 4550 3584 
Q 5097 3584 5394 3201 
Q 5691 2819 5691 2113 
L 5691 0 
L 5113 0 
L 5113 2094 
Q 5113 2597 4934 2840 
Q 4756 3084 4391 3084 
Q 3944 3084 3684 2787 
Q 3425 2491 3425 1978 
L 3425 0 
L 2847 0 
L 2847 2094 
Q 2847 2600 2669 2842 
Q 2491 3084 2119 3084 
Q 1678 3084 1418 2786 
Q 1159 2488 1159 1978 
L 1159 0 
L 581 0 
L 581 3500 
L 1159 3500 
L 1159 2956 
Q 1356 3278 1631 3431 
Q 1906 3584 2284 3584 
Q 2666 3584 2933 3390 
Q 3200 3197 3328 2828 
z
" transform="scale(0.015625)"/>
       <path id="DejaVuSans-70" d="M 1159 525 
L 1159 -1331 
L 581 -1331 
L 581 3500 
L 1159 3500 
L 1159 2969 
Q 1341 3281 1617 3432 
Q 1894 3584 2278 3584 
Q 2916 3584 3314 3078 
Q 3713 2572 3713 1747 
Q 3713 922 3314 415 
Q 2916 -91 2278 -91 
Q 1894 -91 1617 61 
Q 1341 213 1159 525 
z
M 3116 1747 
Q 3116 2381 2855 2742 
Q 2594 3103 2138 3103 
Q 1681 3103 1420 2742 
Q 1159 2381 1159 1747 
Q 1159 1113 1420 752 
Q 1681 391 2138 391 
Q 2594 391 2855 752 
Q 3116 1113 3116 1747 
z
" transform="scale(0.015625)"/>
       <path id="DejaVuSans-6c" d="M 603 4863 
L 1178 4863 
L 1178 0 
L 603 0 
L 603 4863 
z
" transform="scale(0.015625)"/>
       <path id="DejaVuSans-69" d="M 603 3500 
L 1178 3500 
L 1178 0 
L 603 0 
L 603 3500 
z
M 603 4863 
L 1178 4863 
L 1178 4134 
L 603 4134 
L 603 4863 
z
" transform="scale(0.015625)"/>
       <path id="DejaVuSans-6e" d="M 3513 2113 
L 3513 0 
L 2938 0 
L 2938 2094 
Q 2938 2591 2744 2837 
Q 2550 3084 2163 3084 
Q 1697 3084 1428 2787 
Q 1159 2491 1159 1978 
L 1159 0 
L 581 0 
L 581 3500 
L 1159 3500 
L 1159 2956 
Q 1366 3272 1645 3428 
Q 1925 3584 2291 3584 
Q 2894 3584 3203 3211 
Q 3513 2838 3513 2113 
z
" transform="scale(0.015625)"/>
       <path id="DejaVuSans-25" d="M 4653 2053 
Q 4381 2053 4226 1822 
Q 4072 1591 4072 1178 
Q 4072 772 4226 539 
Q 4381 306 4653 306 
Q 4919 306 5073 539 
Q 5228 772 5228 1178 
Q 5228 1588 5073 1820 
Q 4919 2053 4653 2053 
z
M 4653 2450 
Q 5147 2450 5437 2106 
Q 5728 1763 5728 1178 
Q 5728 594 5436 251 
Q 5144 -91 4653 -91 
Q 4153 -91 3862 251 
Q 3572 594 3572 1178 
Q 3572 1766 3864 2108 
Q 4156 2450 4653 2450 
z
M 1428 4353 
Q 1159 4353 1004 4120 
Q 850 3888 850 3481 
Q 850 3069 1003 2837 
Q 1156 2606 1428 2606 
Q 1700 2606 1854 2837 
Q 2009 3069 2009 3481 
Q 2009 3884 1853 4118 
Q 1697 4353 1428 4353 
z
M 4250 4750 
L 4750 4750 
L 1831 -91 
L 1331 -91 
L 4250 4750 
z
M 1428 4750 
Q 1922 4750 2215 4408 
Q 2509 4066 2509 3481 
Q 2509 2891 2217 2550 
Q 1925 2209 1428 2209 
Q 931 2209 642 2551 
Q 353 2894 353 3481 
Q 353 4063 643 4406 
Q 934 4750 1428 4750 
z
" transform="scale(0.015625)"/>
      </defs>
      <use xlink:href="#DejaVuSans-50"/>
      <use xlink:href="#DejaVuSans-61" x="55.802734"/>
      <use xlink:href="#DejaVuSans-73" x="117.082031"/>
      <use xlink:href="#DejaVuSans-73" x="169.181641"/>
      <use xlink:href="#DejaVuSans-20" x="221.28125"/>
      <use xlink:href="#DejaVuSans-43" x="253.068359"/>
      <use xlink:href="#DejaVuSans-6f" x="322.892578"/>
      <use xlink:href="#DejaVuSans-6d" x="384.074219"/>
      <use xlink:href="#DejaVuSans-70" x="481.486328"/>
      <use xlink:href="#DejaVuSans-6c" x="544.962891"/>
      <use xlink:href="#DejaVuSans-65" x="572.746094"/>
      <use xlink:href="#DejaVuSans-74" x="634.269531"/>
      <use xlink:href="#DejaVuSans-69" x="673.478516"/>
      <use xlink:href="#DejaVuSans-6f" x="701.261719"/>
      <use xlink:href="#DejaVuSans-6e" x="762.443359"/>
      <use xlink:href="#DejaVuSans-20" x="825.822266"/>
      <use xlink:href="#DejaVuSans-25" x="857.609375"/>
     </g>
    </g>
   </g>
   <g id="line2d_37">
    <path d="M 80.270455 75.525612 
L 95.756851 99.282085 
L 109.307449 97.609741 
L 136.408643 72.280739 
L 149.95924 71.176767 
L 155.766639 75.431304 
L 163.509837 74.322043 
L 178.996234 101.166279 
L 204.161629 82.936449 
L 217.712226 66.333821 
L 229.327024 90.421474 
L 244.813421 77.782935 
L 271.914615 80.161872 
L 285.465212 74.98271 
L 299.01581 122.673175 
L 312.566407 111.645439 
L 326.117004 72.366881 
L 391.93419 95.436082 
L 409.356387 73.250018 
L 420.971184 123.609397 
L 436.457581 77.135283 
L 448.072379 74.09923 
L 461.622976 80.295504 
L 469.366175 84.939718 
L 475.173573 89.050589 
L 488.724171 68.832694 
L 502.274768 72.614982 
L 529.375962 91.231493 
L 542.926559 72.658474 
L 556.477157 74.119223 
L 570.027754 89.97427 
L 583.578351 121.215943 
L 597.128948 138.863099 
L 610.679545 97.834218 
" clip-path="url(#pd13ea4cceb)" style="fill: none; stroke: #df2127; stroke-width: 2.5; stroke-linecap: square"/>
    <defs>
     <path id="me135774a17" d="M 0 3 
C 0.795609 3 1.55874 2.683901 2.12132 2.12132 
C 2.683901 1.55874 3 0.795609 3 0 
C 3 -0.795609 2.683901 -1.55874 2.12132 -2.12132 
C 1.55874 -2.683901 0.795609 -3 0 -3 
C -0.795609 -3 -1.55874 -2.683901 -2.12132 -2.12132 
C -2.683901 -1.55874 -3 -0.795609 -3 0 
C -3 0.795609 -2.683901 1.55874 -2.12132 2.12132 
C -1.55874 2.683901 -0.795609 3 0 3 
z
" style="stroke: #ffffff; stroke-width: 0.75"/>
    </defs>
    <g clip-path="url(#pd13ea4cceb)">
     <use xlink:href="#me135774a17" x="80.270455" y="75.525612" style="fill: #df2127; stroke: #ffffff; stroke-width: 0.75"/>
     <use xlink:href="#me135774a17" x="95.756851" y="99.282085" style="fill: #df2127; stroke: #ffffff; stroke-width: 0.75"/>
     <use xlink:href="#me135774a17" x="109.307449" y="97.609741" style="fill: #df2127; stroke: #ffffff; stroke-width: 0.75"/>
     <use xlink:href="#me135774a17" x="136.408643" y="72.280739" style="fill: #df2127; stroke: #ffffff; stroke-width: 0.75"/>
     <use xlink:href="#me135774a17" x="149.95924" y="71.176767" style="fill: #df2127; stroke: #ffffff; stroke-width: 0.75"/>
     <use xlink:href="#me135774a17" x="155.766639" y="75.431304" style="fill: #df2127; stroke: #ffffff; stroke-width: 0.75"/>
     <use xlink:href="#me135774a17" x="163.509837" y="74.322043" style="fill: #df2127; stroke: #ffffff; stroke-width: 0.75"/>
     <use xlink:href="#me135774a17" x="178.996234" y="101.166279" style="fill: #df2127; stroke: #ffffff; stroke-width: 0.75"/>
     <use xlink:href="#me135774a17" x="204.161629" y="82.936449" style="fill: #df2127; stroke: #ffffff; stroke-width: 0.75"/>
     <use xlink:href="#me135774a17" x="217.712226" y="66.333821" style="fill: #df2127; stroke: #ffffff; stroke-width: 0.75"/>
     <use xlink:href="#me135774a17" x="229.327024" y="90.421474" style="fill: #df2127; stroke: #ffffff; stroke-width: 0.75"/>
     <use xlink:href="#me135774a17" x="244.813421" y="77.782935" style="fill: #df2127; stroke: #ffffff; stroke-width: 0.75"/>
     <use xlink:href="#me135774a17" x="271.914615" y="80.161872" style="fill: #df2127; stroke: #ffffff; stroke-width: 0.75"/>
     <use xlink:href="#me135774a17" x="285.465212" y="74.98271" style="fill: #df2127; stroke: #ffffff; stroke-width: 0.75"/>
     <use xlink:href="#me135774a17" x="299.01581" y="122.673175" style="fill: #df2127; stroke: #ffffff; stroke-width: 0.75"/>
     <use xlink:href="#me135774a17" x="312.566407" y="111.645439" style="fill: #df2127; stroke: #ffffff; stroke-width: 0.75"/>
     <use xlink:href="#me135774a17" x="326.117004" y="72.366881" style="fill: #df2127; stroke: #ffffff; stroke-width: 0.75"/>
     <use xlink:href="#me135774a17" x="391.93419" y="95.436082" style="fill: #df2127; stroke: #ffffff; stroke-width: 0.75"/>
     <use xlink:href="#me135774a17" x="409.356387" y="73.250018" style="fill: #df2127; stroke: #ffffff; stroke-width: 0.75"/>
     <use xlink:href="#me135774a17" x="420.971184" y="123.609397" style="fill: #df2127; stroke: #ffffff; stroke-width: 0.75"/>
     <use xlink:href="#me135774a17" x="436.457581" y="77.135283" style="fill: #df2127; stroke: #ffffff; stroke-width: 0.75"/>
     <use xlink:href="#me135774a17" x="448.072379" y="74.09923" style="fill: #df2127; stroke: #ffffff; stroke-width: 0.75"/>
     <use xlink:href="#me135774a17" x="461.622976" y="80.295504" style="fill: #df2127; stroke: #ffffff; stroke-width: 0.75"/>
     <use xlink:href="#me135774a17" x="469.366175" y="84.939718" style="fill: #df2127; stroke: #ffffff; stroke-width: 0.75"/>
     <use xlink:href="#me135774a17" x="475.173573" y="89.050589" style="fill: #df2127; stroke: #ffffff; stroke-width: 0.75"/>
     <use xlink:href="#me135774a17" x="488.724171" y="68.832694" style="fill: #df2127; stroke: #ffffff; stroke-width: 0.75"/>
     <use xlink:href="#me135774a17" x="502.274768" y="72.614982" style="fill: #df2127; stroke: #ffffff; stroke-width: 0.75"/>
     <use xlink:href="#me135774a17" x="529.375962" y="91.231493" style="fill: #df2127; stroke: #ffffff; stroke-width: 0.75"/>
     <use xlink:href="#me135774a17" x="542.926559" y="72.658474" style="fill: #df2127; stroke: #ffffff; stroke-width: 0.75"/>
     <use xlink:href="#me135774a17" x="556.477157" y="74.119223" style="fill: #df2127; stroke: #ffffff; stroke-width: 0.75"/>
     <use xlink:href="#me135774a17" x="570.027754" y="89.97427" style="fill: #df2127; stroke: #ffffff; stroke-width: 0.75"/>
     <use xlink:href="#me135774a17" x="583.578351" y="121.215943" style="fill: #df2127; stroke: #ffffff; stroke-width: 0.75"/>
     <use xlink:href="#me135774a17" x="597.128948" y="138.863099" style="fill: #df2127; stroke: #ffffff; stroke-width: 0.75"/>
     <use xlink:href="#me135774a17" x="610.679545" y="97.834218" style="fill: #df2127; stroke: #ffffff; stroke-width: 0.75"/>
    </g>
   </g>
   <g id="line2d_38">
    <path d="M 82.206254 208.747902 
L 95.756851 222.951323 
L 109.307449 127.42751 
L 138.344443 148.951863 
L 148.023441 180.95027 
L 157.702439 181.720694 
L 163.509837 186.718377 
L 177.060435 184.087314 
L 204.161629 126.795992 
L 215.776427 171.615233 
L 231.262823 134.808094 
L 244.813421 86.916158 
L 273.850415 118.63195 
L 285.465212 180.569339 
L 299.01581 174.122992 
L 312.566407 133.976144 
L 324.181204 111.136182 
L 393.86999 206.492871 
L 409.356387 163.439023 
L 422.906984 116.697526 
L 434.521782 152.306731 
L 448.072379 129.364061 
L 463.558776 164.740379 
L 469.366175 123.631961 
L 475.173573 94.568562 
L 488.724171 151.916183 
L 502.274768 170.134543 
L 531.311762 96.506576 
L 542.926559 168.227278 
L 556.477157 96.724974 
L 571.963553 138.876775 
L 583.578351 161.780488 
L 597.128948 138.214761 
L 610.679545 101.332049 
" clip-path="url(#pd13ea4cceb)" style="fill: none; stroke: #1c63b7; stroke-width: 2.5; stroke-linecap: square"/>
    <defs>
     <path id="m8968608ee5" d="M 0 3 
C 0.795609 3 1.55874 2.683901 2.12132 2.12132 
C 2.683901 1.55874 3 0.795609 3 0 
C 3 -0.795609 2.683901 -1.55874 2.12132 -2.12132 
C 1.55874 -2.683901 0.795609 -3 0 -3 
C -0.795609 -3 -1.55874 -2.683901 -2.12132 -2.12132 
C -2.683901 -1.55874 -3 -0.795609 -3 0 
C -3 0.795609 -2.683901 1.55874 -2.12132 2.12132 
C -1.55874 2.683901 -0.795609 3 0 3 
z
" style="stroke: #ffffff; stroke-width: 0.75"/>
    </defs>
    <g clip-path="url(#pd13ea4cceb)">
     <use xlink:href="#m8968608ee5" x="82.206254" y="208.747902" style="fill: #1c63b7; stroke: #ffffff; stroke-width: 0.75"/>
     <use xlink:href="#m8968608ee5" x="95.756851" y="222.951323" style="fill: #1c63b7; stroke: #ffffff; stroke-width: 0.75"/>
     <use xlink:href="#m8968608ee5" x="109.307449" y="127.42751" style="fill: #1c63b7; stroke: #ffffff; stroke-width: 0.75"/>
     <use xlink:href="#m8968608ee5" x="138.344443" y="148.951863" style="fill: #1c63b7; stroke: #ffffff; stroke-width: 0.75"/>
     <use xlink:href="#m8968608ee5" x="148.023441" y="180.95027" style="fill: #1c63b7; stroke: #ffffff; stroke-width: 0.75"/>
     <use xlink:href="#m8968608ee5" x="157.702439" y="181.720694" style="fill: #1c63b7; stroke: #ffffff; stroke-width: 0.75"/>
     <use xlink:href="#m8968608ee5" x="163.509837" y="186.718377" style="fill: #1c63b7; stroke: #ffffff; stroke-width: 0.75"/>
     <use xlink:href="#m8968608ee5" x="177.060435" y="184.087314" style="fill: #1c63b7; stroke: #ffffff; stroke-width: 0.75"/>
     <use xlink:href="#m8968608ee5" x="204.161629" y="126.795992" style="fill: #1c63b7; stroke: #ffffff; stroke-width: 0.75"/>
     <use xlink:href="#m8968608ee5" x="215.776427" y="171.615233" style="fill: #1c63b7; stroke: #ffffff; stroke-width: 0.75"/>
     <use xlink:href="#m8968608ee5" x="231.262823" y="134.808094" style="fill: #1c63b7; stroke: #ffffff; stroke-width: 0.75"/>
     <use xlink:href="#m8968608ee5" x="244.813421" y="86.916158" style="fill: #1c63b7; stroke: #ffffff; stroke-width: 0.75"/>
     <use xlink:href="#m8968608ee5" x="273.850415" y="118.63195" style="fill: #1c63b7; stroke: #ffffff; stroke-width: 0.75"/>
     <use xlink:href="#m8968608ee5" x="285.465212" y="180.569339" style="fill: #1c63b7; stroke: #ffffff; stroke-width: 0.75"/>
     <use xlink:href="#m8968608ee5" x="299.01581" y="174.122992" style="fill: #1c63b7; stroke: #ffffff; stroke-width: 0.75"/>
     <use xlink:href="#m8968608ee5" x="312.566407" y="133.976144" style="fill: #1c63b7; stroke: #ffffff; stroke-width: 0.75"/>
     <use xlink:href="#m8968608ee5" x="324.181204" y="111.136182" style="fill: #1c63b7; stroke: #ffffff; stroke-width: 0.75"/>
     <use xlink:href="#m8968608ee5" x="393.86999" y="206.492871" style="fill: #1c63b7; stroke: #ffffff; stroke-width: 0.75"/>
     <use xlink:href="#m8968608ee5" x="409.356387" y="163.439023" style="fill: #1c63b7; stroke: #ffffff; stroke-width: 0.75"/>
     <use xlink:href="#m8968608ee5" x="422.906984" y="116.697526" style="fill: #1c63b7; stroke: #ffffff; stroke-width: 0.75"/>
     <use xlink:href="#m8968608ee5" x="434.521782" y="152.306731" style="fill: #1c63b7; stroke: #ffffff; stroke-width: 0.75"/>
     <use xlink:href="#m8968608ee5" x="448.072379" y="129.364061" style="fill: #1c63b7; stroke: #ffffff; stroke-width: 0.75"/>
     <use xlink:href="#m8968608ee5" x="463.558776" y="164.740379" style="fill: #1c63b7; stroke: #ffffff; stroke-width: 0.75"/>
     <use xlink:href="#m8968608ee5" x="469.366175" y="123.631961" style="fill: #1c63b7; stroke: #ffffff; stroke-width: 0.75"/>
     <use xlink:href="#m8968608ee5" x="475.173573" y="94.568562" style="fill: #1c63b7; stroke: #ffffff; stroke-width: 0.75"/>
     <use xlink:href="#m8968608ee5" x="488.724171" y="151.916183" style="fill: #1c63b7; stroke: #ffffff; stroke-width: 0.75"/>
     <use xlink:href="#m8968608ee5" x="502.274768" y="170.134543" style="fill: #1c63b7; stroke: #ffffff; stroke-width: 0.75"/>
     <use xlink:href="#m8968608ee5" x="531.311762" y="96.506576" style="fill: #1c63b7; stroke: #ffffff; stroke-width: 0.75"/>
     <use xlink:href="#m8968608ee5" x="542.926559" y="168.227278" style="fill: #1c63b7; stroke: #ffffff; stroke-width: 0.75"/>
     <use xlink:href="#m8968608ee5" x="556.477157" y="96.724974" style="fill: #1c63b7; stroke: #ffffff; stroke-width: 0.75"/>
     <use xlink:href="#m8968608ee5" x="571.963553" y="138.876775" style="fill: #1c63b7; stroke: #ffffff; stroke-width: 0.75"/>
     <use xlink:href="#m8968608ee5" x="583.578351" y="161.780488" style="fill: #1c63b7; stroke: #ffffff; stroke-width: 0.75"/>
     <use xlink:href="#m8968608ee5" x="597.128948" y="138.214761" style="fill: #1c63b7; stroke: #ffffff; stroke-width: 0.75"/>
     <use xlink:href="#m8968608ee5" x="610.679545" y="101.332049" style="fill: #1c63b7; stroke: #ffffff; stroke-width: 0.75"/>
    </g>
   </g>
   <g id="line2d_39">
    <path d="M 82.206254 253.711617 
L 95.756851 262.866419 
L 109.307449 258.251871 
L 136.408643 247.882991 
L 149.95924 216.416464 
L 155.766639 242.320468 
L 165.445637 219.663921 
L 175.124635 228.72354 
L 204.161629 239.948044 
L 217.712226 218.63132 
L 233.198623 234.56684 
L 244.813421 206.565444 
L 273.850415 238.962949 
L 283.529413 198.630055 
L 300.951609 234.977842 
L 312.566407 196.94064 
L 328.052804 165.103297 
L 393.86999 246.501425 
L 407.420587 254.332802 
L 422.906984 211.687583 
L 434.521782 244.880947 
L 448.072379 220.886551 
L 461.622976 263.031738 
L 469.366175 234.054032 
L 477.109373 228.966053 
L 488.724171 231.972366 
L 502.274768 214.032418 
L 529.375962 237.716083 
L 542.926559 227.466518 
L 556.477157 234.633047 
L 570.027754 188.859823 
L 583.578351 226.755249 
L 597.128948 251.639165 
L 610.679545 187.002745 
" clip-path="url(#pd13ea4cceb)" style="fill: none; stroke: #004f9f; stroke-width: 2.5; stroke-linecap: square"/>
    <defs>
     <path id="mc305525945" d="M 0 3 
C 0.795609 3 1.55874 2.683901 2.12132 2.12132 
C 2.683901 1.55874 3 0.795609 3 0 
C 3 -0.795609 2.683901 -1.55874 2.12132 -2.12132 
C 1.55874 -2.683901 0.795609 -3 0 -3 
C -0.795609 -3 -1.55874 -2.683901 -2.12132 -2.12132 
C -2.683901 -1.55874 -3 -0.795609 -3 0 
C -3 0.795609 -2.683901 1.55874 -2.12132 2.12132 
C -1.55874 2.683901 -0.795609 3 0 3 
z
" style="stroke: #ffffff; stroke-width: 0.75"/>
    </defs>
    <g clip-path="url(#pd13ea4cceb)">
     <use xlink:href="#mc305525945" x="82.206254" y="253.711617" style="fill: #004f9f; stroke: #ffffff; stroke-width: 0.75"/>
     <use xlink:href="#mc305525945" x="95.756851" y="262.866419" style="fill: #004f9f; stroke: #ffffff; stroke-width: 0.75"/>
     <use xlink:href="#mc305525945" x="109.307449" y="258.251871" style="fill: #004f9f; stroke: #ffffff; stroke-width: 0.75"/>
     <use xlink:href="#mc305525945" x="136.408643" y="247.882991" style="fill: #004f9f; stroke: #ffffff; stroke-width: 0.75"/>
     <use xlink:href="#mc305525945" x="149.95924" y="216.416464" style="fill: #004f9f; stroke: #ffffff; stroke-width: 0.75"/>
     <use xlink:href="#mc305525945" x="155.766639" y="242.320468" style="fill: #004f9f; stroke: #ffffff; stroke-width: 0.75"/>
     <use xlink:href="#mc305525945" x="165.445637" y="219.663921" style="fill: #004f9f; stroke: #ffffff; stroke-width: 0.75"/>
     <use xlink:href="#mc305525945" x="175.124635" y="228.72354" style="fill: #004f9f; stroke: #ffffff; stroke-width: 0.75"/>
     <use xlink:href="#mc305525945" x="204.161629" y="239.948044" style="fill: #004f9f; stroke: #ffffff; stroke-width: 0.75"/>
     <use xlink:href="#mc305525945" x="217.712226" y="218.63132" style="fill: #004f9f; stroke: #ffffff; stroke-width: 0.75"/>
     <use xlink:href="#mc305525945" x="233.198623" y="234.56684" style="fill: #004f9f; stroke: #ffffff; stroke-width: 0.75"/>
     <use xlink:href="#mc305525945" x="244.813421" y="206.565444" style="fill: #004f9f; stroke: #ffffff; stroke-width: 0.75"/>
     <use xlink:href="#mc305525945" x="273.850415" y="238.962949" style="fill: #004f9f; stroke: #ffffff; stroke-width: 0.75"/>
     <use xlink:href="#mc305525945" x="283.529413" y="198.630055" style="fill: #004f9f; stroke: #ffffff; stroke-width: 0.75"/>
     <use xlink:href="#mc305525945" x="300.951609" y="234.977842" style="fill: #004f9f; stroke: #ffffff; stroke-width: 0.75"/>
     <use xlink:href="#mc305525945" x="312.566407" y="196.94064" style="fill: #004f9f; stroke: #ffffff; stroke-width: 0.75"/>
     <use xlink:href="#mc305525945" x="328.052804" y="165.103297" style="fill: #004f9f; stroke: #ffffff; stroke-width: 0.75"/>
     <use xlink:href="#mc305525945" x="393.86999" y="246.501425" style="fill: #004f9f; stroke: #ffffff; stroke-width: 0.75"/>
     <use xlink:href="#mc305525945" x="407.420587" y="254.332802" style="fill: #004f9f; stroke: #ffffff; stroke-width: 0.75"/>
     <use xlink:href="#mc305525945" x="422.906984" y="211.687583" style="fill: #004f9f; stroke: #ffffff; stroke-width: 0.75"/>
     <use xlink:href="#mc305525945" x="434.521782" y="244.880947" style="fill: #004f9f; stroke: #ffffff; stroke-width: 0.75"/>
     <use xlink:href="#mc305525945" x="448.072379" y="220.886551" style="fill: #004f9f; stroke: #ffffff; stroke-width: 0.75"/>
     <use xlink:href="#mc305525945" x="461.622976" y="263.031738" style="fill: #004f9f; stroke: #ffffff; stroke-width: 0.75"/>
     <use xlink:href="#mc305525945" x="469.366175" y="234.054032" style="fill: #004f9f; stroke: #ffffff; stroke-width: 0.75"/>
     <use xlink:href="#mc305525945" x="477.109373" y="228.966053" style="fill: #004f9f; stroke: #ffffff; stroke-width: 0.75"/>
     <use xlink:href="#mc305525945" x="488.724171" y="231.972366" style="fill: #004f9f; stroke: #ffffff; stroke-width: 0.75"/>
     <use xlink:href="#mc305525945" x="502.274768" y="214.032418" style="fill: #004f9f; stroke: #ffffff; stroke-width: 0.75"/>
     <use xlink:href="#mc305525945" x="529.375962" y="237.716083" style="fill: #004f9f; stroke: #ffffff; stroke-width: 0.75"/>
     <use xlink:href="#mc305525945" x="542.926559" y="227.466518" style="fill: #004f9f; stroke: #ffffff; stroke-width: 0.75"/>
     <use xlink:href="#mc305525945" x="556.477157" y="234.633047" style="fill: #004f9f; stroke: #ffffff; stroke-width: 0.75"/>
     <use xlink:href="#mc305525945" x="570.027754" y="188.859823" style="fill: #004f9f; stroke: #ffffff; stroke-width: 0.75"/>
     <use xlink:href="#mc305525945" x="583.578351" y="226.755249" style="fill: #004f9f; stroke: #ffffff; stroke-width: 0.75"/>
     <use xlink:href="#mc305525945" x="597.128948" y="251.639165" style="fill: #004f9f; stroke: #ffffff; stroke-width: 0.75"/>
     <use xlink:href="#mc305525945" x="610.679545" y="187.002745" style="fill: #004f9f; stroke: #ffffff; stroke-width: 0.75"/>
    </g>
   </g>
   <g id="line2d_40">
    <path d="M 82.206254 84.10581 
L 97.692651 127.5876 
L 111.243248 101.252653 
L 136.408643 92.975324 
L 151.89504 127.766204 
L 157.702439 105.325868 
L 165.445637 93.481011 
L 178.996234 117.817526 
L 202.225829 139.786405 
L 219.648026 109.014985 
L 231.262823 84.137788 
L 246.74922 97.451141 
L 269.978816 100.671529 
L 287.401012 104.359056 
L 299.01581 142.32872 
L 314.502206 79.268203 
L 326.117004 106.529883 
L 393.86999 135.725873 
L 407.420587 143.169075 
L 420.971184 93.33142 
L 434.521782 87.135829 
L 450.008179 140.432009 
L 463.558776 78.592861 
L 469.366175 113.187609 
L 475.173573 125.095863 
L 490.65997 103.722501 
L 504.210567 76.222498 
L 529.375962 89.672219 
L 544.862359 135.402869 
L 558.412956 77.011445 
L 570.027754 102.86666 
L 583.578351 74.975767 
L 597.128948 85.134887 
L 610.679545 67.605126 
" clip-path="url(#pd13ea4cceb)" style="fill: none; stroke: #ffe800; stroke-width: 2.5; stroke-linecap: square"/>
    <defs>
     <path id="m81dbd0c04f" d="M 0 3 
C 0.795609 3 1.55874 2.683901 2.12132 2.12132 
C 2.683901 1.55874 3 0.795609 3 0 
C 3 -0.795609 2.683901 -1.55874 2.12132 -2.12132 
C 1.55874 -2.683901 0.795609 -3 0 -3 
C -0.795609 -3 -1.55874 -2.683901 -2.12132 -2.12132 
C -2.683901 -1.55874 -3 -0.795609 -3 0 
C -3 0.795609 -2.683901 1.55874 -2.12132 2.12132 
C -1.55874 2.683901 -0.795609 3 0 3 
z
" style="stroke: #ffffff; stroke-width: 0.75"/>
    </defs>
    <g clip-path="url(#pd13ea4cceb)">
     <use xlink:href="#m81dbd0c04f" x="82.206254" y="84.10581" style="fill: #ffe800; stroke: #ffffff; stroke-width: 0.75"/>
     <use xlink:href="#m81dbd0c04f" x="97.692651" y="127.5876" style="fill: #ffe800; stroke: #ffffff; stroke-width: 0.75"/>
     <use xlink:href="#m81dbd0c04f" x="111.243248" y="101.252653" style="fill: #ffe800; stroke: #ffffff; stroke-width: 0.75"/>
     <use xlink:href="#m81dbd0c04f" x="136.408643" y="92.975324" style="fill: #ffe800; stroke: #ffffff; stroke-width: 0.75"/>
     <use xlink:href="#m81dbd0c04f" x="151.89504" y="127.766204" style="fill: #ffe800; stroke: #ffffff; stroke-width: 0.75"/>
     <use xlink:href="#m81dbd0c04f" x="157.702439" y="105.325868" style="fill: #ffe800; stroke: #ffffff; stroke-width: 0.75"/>
     <use xlink:href="#m81dbd0c04f" x="165.445637" y="93.481011" style="fill: #ffe800; stroke: #ffffff; stroke-width: 0.75"/>
     <use xlink:href="#m81dbd0c04f" x="178.996234" y="117.817526" style="fill: #ffe800; stroke: #ffffff; stroke-width: 0.75"/>
     <use xlink:href="#m81dbd0c04f" x="202.225829" y="139.786405" style="fill: #ffe800; stroke: #ffffff; stroke-width: 0.75"/>
     <use xlink:href="#m81dbd0c04f" x="219.648026" y="109.014985" style="fill: #ffe800; stroke: #ffffff; stroke-width: 0.75"/>
     <use xlink:href="#m81dbd0c04f" x="231.262823" y="84.137788" style="fill: #ffe800; stroke: #ffffff; stroke-width: 0.75"/>
     <use xlink:href="#m81dbd0c04f" x="246.74922" y="97.451141" style="fill: #ffe800; stroke: #ffffff; stroke-width: 0.75"/>
     <use xlink:href="#m81dbd0c04f" x="269.978816" y="100.671529" style="fill: #ffe800; stroke: #ffffff; stroke-width: 0.75"/>
     <use xlink:href="#m81dbd0c04f" x="287.401012" y="104.359056" style="fill: #ffe800; stroke: #ffffff; stroke-width: 0.75"/>
     <use xlink:href="#m81dbd0c04f" x="299.01581" y="142.32872" style="fill: #ffe800; stroke: #ffffff; stroke-width: 0.75"/>
     <use xlink:href="#m81dbd0c04f" x="314.502206" y="79.268203" style="fill: #ffe800; stroke: #ffffff; stroke-width: 0.75"/>
     <use xlink:href="#m81dbd0c04f" x="326.117004" y="106.529883" style="fill: #ffe800; stroke: #ffffff; stroke-width: 0.75"/>
     <use xlink:href="#m81dbd0c04f" x="393.86999" y="135.725873" style="fill: #ffe800; stroke: #ffffff; stroke-width: 0.75"/>
     <use xlink:href="#m81dbd0c04f" x="407.420587" y="143.169075" style="fill: #ffe800; stroke: #ffffff; stroke-width: 0.75"/>
     <use xlink:href="#m81dbd0c04f" x="420.971184" y="93.33142" style="fill: #ffe800; stroke: #ffffff; stroke-width: 0.75"/>
     <use xlink:href="#m81dbd0c04f" x="434.521782" y="87.135829" style="fill: #ffe800; stroke: #ffffff; stroke-width: 0.75"/>
     <use xlink:href="#m81dbd0c04f" x="450.008179" y="140.432009" style="fill: #ffe800; stroke: #ffffff; stroke-width: 0.75"/>
     <use xlink:href="#m81dbd0c04f" x="463.558776" y="78.592861" style="fill: #ffe800; stroke: #ffffff; stroke-width: 0.75"/>
     <use xlink:href="#m81dbd0c04f" x="469.366175" y="113.187609" style="fill: #ffe800; stroke: #ffffff; stroke-width: 0.75"/>
     <use xlink:href="#m81dbd0c04f" x="475.173573" y="125.095863" style="fill: #ffe800; stroke: #ffffff; stroke-width: 0.75"/>
     <use xlink:href="#m81dbd0c04f" x="490.65997" y="103.722501" style="fill: #ffe800; stroke: #ffffff; stroke-width: 0.75"/>
     <use xlink:href="#m81dbd0c04f" x="504.210567" y="76.222498" style="fill: #ffe800; stroke: #ffffff; stroke-width: 0.75"/>
     <use xlink:href="#m81dbd0c04f" x="529.375962" y="89.672219" style="fill: #ffe800; stroke: #ffffff; stroke-width: 0.75"/>
     <use xlink:href="#m81dbd0c04f" x="544.862359" y="135.402869" style="fill: #ffe800; stroke: #ffffff; stroke-width: 0.75"/>
     <use xlink:href="#m81dbd0c04f" x="558.412956" y="77.011445" style="fill: #ffe800; stroke: #ffffff; stroke-width: 0.75"/>
     <use xlink:href="#m81dbd0c04f" x="570.027754" y="102.86666" style="fill: #ffe800; stroke: #ffffff; stroke-width: 0.75"/>
     <use xlink:href="#m81dbd0c04f" x="583.578351" y="74.975767" style="fill: #ffe800; stroke: #ffffff; stroke-width: 0.75"/>
     <use xlink:href="#m81dbd0c04f" x="597.128948" y="85.134887" style="fill: #ffe800; stroke: #ffffff; stroke-width: 0.75"/>
     <use xlink:href="#m81dbd0c04f" x="610.679545" y="67.605126" style="fill: #ffe800; stroke: #ffffff; stroke-width: 0.75"/>
    </g>
   </g>
   <g id="line2d_41"/>
   <g id="line2d_42"/>
   <g id="line2d_43"/>
   <g id="line2d_44"/>
   <g id="patch_3">
    <path d="M 53.75 360.710864 
L 53.75 27.6 
" style="fill: none; stroke: #033164; stroke-width: 0.8; stroke-linejoin: miter; stroke-linecap: square"/>
   </g>
   <g id="patch_4">
    <path d="M 637.2 360.710864 
L 637.2 27.6 
" style="fill: none; stroke: #033164; stroke-width: 0.8; stroke-linejoin: miter; stroke-linecap: square"/>
   </g>
   <g id="patch_5">
    <path d="M 53.75 360.710864 
L 637.2 360.710864 
" style="fill: none; stroke: #033164; stroke-width: 0.8; stroke-linejoin: miter; stroke-linecap: square"/>
   </g>
   <g id="patch_6">
    <path d="M 53.75 27.6 
L 637.2 27.6 
" style="fill: none; stroke: #033164; stroke-width: 0.8; stroke-linejoin: miter; stroke-linecap: square"/>
   </g>
   <g id="text_21">
    <!-- Pass Completion Percentage Comparison -->
    <g style="fill: #033164" transform="translate(201.935625 21.6) scale(0.14 -0.14)">
     <defs>
      <path id="DejaVuSans-72" d="M 2631 2963 
Q 2534 3019 2420 3045 
Q 2306 3072 2169 3072 
Q 1681 3072 1420 2755 
Q 1159 2438 1159 1844 
L 1159 0 
L 581 0 
L 581 3500 
L 1159 3500 
L 1159 2956 
Q 1341 3275 1631 3429 
Q 1922 3584 2338 3584 
Q 2397 3584 2469 3576 
Q 2541 3569 2628 3553 
L 2631 2963 
z
" transform="scale(0.015625)"/>
      <path id="DejaVuSans-67" d="M 2906 1791 
Q 2906 2416 2648 2759 
Q 2391 3103 1925 3103 
Q 1463 3103 1205 2759 
Q 947 2416 947 1791 
Q 947 1169 1205 825 
Q 1463 481 1925 481 
Q 2391 481 2648 825 
Q 2906 1169 2906 1791 
z
M 3481 434 
Q 3481 -459 3084 -895 
Q 2688 -1331 1869 -1331 
Q 1566 -1331 1297 -1286 
Q 1028 -1241 775 -1147 
L 775 -588 
Q 1028 -725 1275 -790 
Q 1522 -856 1778 -856 
Q 2344 -856 2625 -561 
Q 2906 -266 2906 331 
L 2906 616 
Q 2728 306 2450 153 
Q 2172 0 1784 0 
Q 1141 0 747 490 
Q 353 981 353 1791 
Q 353 2603 747 3093 
Q 1141 3584 1784 3584 
Q 2172 3584 2450 3431 
Q 2728 3278 2906 2969 
L 2906 3500 
L 3481 3500 
L 3481 434 
z
" transform="scale(0.015625)"/>
     </defs>
     <use xlink:href="#DejaVuSans-50"/>
     <use xlink:href="#DejaVuSans-61" x="55.802734"/>
     <use xlink:href="#DejaVuSans-73" x="117.082031"/>
     <use xlink:href="#DejaVuSans-73" x="169.181641"/>
     <use xlink:href="#DejaVuSans-20" x="221.28125"/>
     <use xlink:href="#DejaVuSans-43" x="253.068359"/>
     <use xlink:href="#DejaVuSans-6f" x="322.892578"/>
     <use xlink:href="#DejaVuSans-6d" x="384.074219"/>
     <use xlink:href="#DejaVuSans-70" x="481.486328"/>
     <use xlink:href="#DejaVuSans-6c" x="544.962891"/>
     <use xlink:href="#DejaVuSans-65" x="572.746094"/>
     <use xlink:href="#DejaVuSans-74" x="634.269531"/>
     <use xlink:href="#DejaVuSans-69" x="673.478516"/>
     <use xlink:href="#DejaVuSans-6f" x="701.261719"/>
     <use xlink:href="#DejaVuSans-6e" x="762.443359"/>
     <use xlink:href="#DejaVuSans-20" x="825.822266"/>
     <use xlink:href="#DejaVuSans-50" x="857.609375"/>
     <use xlink:href="#DejaVuSans-65" x="914.287109"/>
     <use xlink:href="#DejaVuSans-72" x="975.810547"/>
     <use xlink:href="#DejaVuSans-63" x="1014.673828"/>
     <use xlink:href="#DejaVuSans-65" x="1069.654297"/>
     <use xlink:href="#DejaVuSans-6e" x="1131.177734"/>
     <use xlink:href="#DejaVuSans-74" x="1194.556641"/>
     <use xlink:href="#DejaVuSans-61" x="1233.765625"/>
     <use xlink:href="#DejaVuSans-67" x="1295.044922"/>
     <use xlink:href="#DejaVuSans-65" x="1358.521484"/>
     <use xlink:href="#DejaVuSans-20" x="1420.044922"/>
     <use xlink:href="#DejaVuSans-43" x="1451.832031"/>
     <use xlink:href="#DejaVuSans-6f" x="1521.65625"/>
     <use xlink:href="#DejaVuSans-6d" x="1582.837891"/>
     <use xlink:href="#DejaVuSans-70" x="1680.25"/>
     <use xlink:href="#DejaVuSans-61" x="1743.726562"/>
     <use xlink:href="#DejaVuSans-72" x="1805.005859"/>
     <use xlink:href="#DejaVuSans-69" x="1846.119141"/>
     <use xlink:href="#DejaVuSans-73" x="1873.902344"/>
     <use xlink:href="#DejaVuSans-6f" x="1926.001953"/>
     <use xlink:href="#DejaVuSans-6e" x="1987.183594"/>
    </g>
   </g>
   <g id="legend_1">
    <g id="patch_7">
     <path d="M 60.75 355.710864 
L 189.295313 355.710864 
Q 191.295313 355.710864 191.295313 353.710864 
L 191.295313 281.320239 
Q 191.295313 279.320239 189.295313 279.320239 
L 60.75 279.320239 
Q 58.75 279.320239 58.75 281.320239 
L 58.75 353.710864 
Q 58.75 355.710864 60.75 355.710864 
z
" style="fill: #e8f1f2; opacity: 0.8; stroke: #cccccc; stroke-linejoin: miter"/>
    </g>
    <g id="text_22">
     <!-- Team -->
     <g style="fill: #033164" transform="translate(111.807813 290.918676) scale(0.1 -0.1)">
      <defs>
       <path id="DejaVuSans-54" d="M -19 4666 
L 3928 4666 
L 3928 4134 
L 2272 4134 
L 2272 0 
L 1638 0 
L 1638 4134 
L -19 4134 
L -19 4666 
z
" transform="scale(0.015625)"/>
      </defs>
      <use xlink:href="#DejaVuSans-54"/>
      <use xlink:href="#DejaVuSans-65" x="44.083984"/>
      <use xlink:href="#DejaVuSans-61" x="105.607422"/>
      <use xlink:href="#DejaVuSans-6d" x="166.886719"/>
     </g>
    </g>
    <g id="line2d_45">
     <path d="M 62.75 302.096801 
L 72.75 302.096801 
L 82.75 302.096801 
" style="fill: none; stroke: #df2127; stroke-width: 2.5; stroke-linecap: square"/>
     <g>
      <use xlink:href="#me135774a17" x="72.75" y="302.096801" style="fill: #df2127; stroke: #ffffff; stroke-width: 0.75"/>
     </g>
    </g>
    <g id="text_23">
     <!-- Bayern Munich -->
     <g style="fill: #033164" transform="translate(90.75 305.596801) scale(0.1 -0.1)">
      <defs>
       <path id="DejaVuSans-42" d="M 1259 2228 
L 1259 519 
L 2272 519 
Q 2781 519 3026 730 
Q 3272 941 3272 1375 
Q 3272 1813 3026 2020 
Q 2781 2228 2272 2228 
L 1259 2228 
z
M 1259 4147 
L 1259 2741 
L 2194 2741 
Q 2656 2741 2882 2914 
Q 3109 3088 3109 3444 
Q 3109 3797 2882 3972 
Q 2656 4147 2194 4147 
L 1259 4147 
z
M 628 4666 
L 2241 4666 
Q 2963 4666 3353 4366 
Q 3744 4066 3744 3513 
Q 3744 3084 3544 2831 
Q 3344 2578 2956 2516 
Q 3422 2416 3680 2098 
Q 3938 1781 3938 1306 
Q 3938 681 3513 340 
Q 3088 0 2303 0 
L 628 0 
L 628 4666 
z
" transform="scale(0.015625)"/>
       <path id="DejaVuSans-79" d="M 2059 -325 
Q 1816 -950 1584 -1140 
Q 1353 -1331 966 -1331 
L 506 -1331 
L 506 -850 
L 844 -850 
Q 1081 -850 1212 -737 
Q 1344 -625 1503 -206 
L 1606 56 
L 191 3500 
L 800 3500 
L 1894 763 
L 2988 3500 
L 3597 3500 
L 2059 -325 
z
" transform="scale(0.015625)"/>
       <path id="DejaVuSans-75" d="M 544 1381 
L 544 3500 
L 1119 3500 
L 1119 1403 
Q 1119 906 1312 657 
Q 1506 409 1894 409 
Q 2359 409 2629 706 
Q 2900 1003 2900 1516 
L 2900 3500 
L 3475 3500 
L 3475 0 
L 2900 0 
L 2900 538 
Q 2691 219 2414 64 
Q 2138 -91 1772 -91 
Q 1169 -91 856 284 
Q 544 659 544 1381 
z
M 1991 3584 
L 1991 3584 
z
" transform="scale(0.015625)"/>
      </defs>
      <use xlink:href="#DejaVuSans-42"/>
      <use xlink:href="#DejaVuSans-61" x="68.603516"/>
      <use xlink:href="#DejaVuSans-79" x="129.882812"/>
      <use xlink:href="#DejaVuSans-65" x="189.0625"/>
      <use xlink:href="#DejaVuSans-72" x="250.585938"/>
      <use xlink:href="#DejaVuSans-6e" x="289.949219"/>
      <use xlink:href="#DejaVuSans-20" x="353.328125"/>
      <use xlink:href="#DejaVuSans-4d" x="385.115234"/>
      <use xlink:href="#DejaVuSans-75" x="471.394531"/>
      <use xlink:href="#DejaVuSans-6e" x="534.773438"/>
      <use xlink:href="#DejaVuSans-69" x="598.152344"/>
      <use xlink:href="#DejaVuSans-63" x="625.935547"/>
      <use xlink:href="#DejaVuSans-68" x="680.916016"/>
     </g>
    </g>
    <g id="line2d_46">
     <path d="M 62.75 316.774926 
L 72.75 316.774926 
L 82.75 316.774926 
" style="fill: none; stroke: #1c63b7; stroke-width: 2.5; stroke-linecap: square"/>
     <g>
      <use xlink:href="#m8968608ee5" x="72.75" y="316.774926" style="fill: #1c63b7; stroke: #ffffff; stroke-width: 0.75"/>
     </g>
    </g>
    <g id="text_24">
     <!-- Hoffenheim -->
     <g style="fill: #033164" transform="translate(90.75 320.274926) scale(0.1 -0.1)">
      <defs>
       <path id="DejaVuSans-48" d="M 628 4666 
L 1259 4666 
L 1259 2753 
L 3553 2753 
L 3553 4666 
L 4184 4666 
L 4184 0 
L 3553 0 
L 3553 2222 
L 1259 2222 
L 1259 0 
L 628 0 
L 628 4666 
z
" transform="scale(0.015625)"/>
       <path id="DejaVuSans-66" d="M 2375 4863 
L 2375 4384 
L 1825 4384 
Q 1516 4384 1395 4259 
Q 1275 4134 1275 3809 
L 1275 3500 
L 2222 3500 
L 2222 3053 
L 1275 3053 
L 1275 0 
L 697 0 
L 697 3053 
L 147 3053 
L 147 3500 
L 697 3500 
L 697 3744 
Q 697 4328 969 4595 
Q 1241 4863 1831 4863 
L 2375 4863 
z
" transform="scale(0.015625)"/>
      </defs>
      <use xlink:href="#DejaVuSans-48"/>
      <use xlink:href="#DejaVuSans-6f" x="75.195312"/>
      <use xlink:href="#DejaVuSans-66" x="136.376953"/>
      <use xlink:href="#DejaVuSans-66" x="171.582031"/>
      <use xlink:href="#DejaVuSans-65" x="206.787109"/>
      <use xlink:href="#DejaVuSans-6e" x="268.310547"/>
      <use xlink:href="#DejaVuSans-68" x="331.689453"/>
      <use xlink:href="#DejaVuSans-65" x="395.068359"/>
      <use xlink:href="#DejaVuSans-69" x="456.591797"/>
      <use xlink:href="#DejaVuSans-6d" x="484.375"/>
     </g>
    </g>
    <g id="line2d_47">
     <path d="M 62.75 331.453051 
L 72.75 331.453051 
L 82.75 331.453051 
" style="fill: none; stroke: #004f9f; stroke-width: 2.5; stroke-linecap: square"/>
     <g>
      <use xlink:href="#mc305525945" x="72.75" y="331.453051" style="fill: #004f9f; stroke: #ffffff; stroke-width: 0.75"/>
     </g>
    </g>
    <g id="text_25">
     <!-- Darmstadt 98 -->
     <g style="fill: #033164" transform="translate(90.75 334.953051) scale(0.1 -0.1)">
      <defs>
       <path id="DejaVuSans-64" d="M 2906 2969 
L 2906 4863 
L 3481 4863 
L 3481 0 
L 2906 0 
L 2906 525 
Q 2725 213 2448 61 
Q 2172 -91 1784 -91 
Q 1150 -91 751 415 
Q 353 922 353 1747 
Q 353 2572 751 3078 
Q 1150 3584 1784 3584 
Q 2172 3584 2448 3432 
Q 2725 3281 2906 2969 
z
M 947 1747 
Q 947 1113 1208 752 
Q 1469 391 1925 391 
Q 2381 391 2643 752 
Q 2906 1113 2906 1747 
Q 2906 2381 2643 2742 
Q 2381 3103 1925 3103 
Q 1469 3103 1208 2742 
Q 947 2381 947 1747 
z
" transform="scale(0.015625)"/>
      </defs>
      <use xlink:href="#DejaVuSans-44"/>
      <use xlink:href="#DejaVuSans-61" x="77.001953"/>
      <use xlink:href="#DejaVuSans-72" x="138.28125"/>
      <use xlink:href="#DejaVuSans-6d" x="177.644531"/>
      <use xlink:href="#DejaVuSans-73" x="275.056641"/>
      <use xlink:href="#DejaVuSans-74" x="327.15625"/>
      <use xlink:href="#DejaVuSans-61" x="366.365234"/>
      <use xlink:href="#DejaVuSans-64" x="427.644531"/>
      <use xlink:href="#DejaVuSans-74" x="491.121094"/>
      <use xlink:href="#DejaVuSans-20" x="530.330078"/>
      <use xlink:href="#DejaVuSans-39" x="562.117188"/>
      <use xlink:href="#DejaVuSans-38" x="625.740234"/>
     </g>
    </g>
    <g id="line2d_48">
     <path d="M 62.75 346.131176 
L 72.75 346.131176 
L 82.75 346.131176 
" style="fill: none; stroke: #ffe800; stroke-width: 2.5; stroke-linecap: square"/>
     <g>
      <use xlink:href="#m81dbd0c04f" x="72.75" y="346.131176" style="fill: #ffe800; stroke: #ffffff; stroke-width: 0.75"/>
     </g>
    </g>
    <g id="text_26">
     <!-- Borussia Dortmund -->
     <g style="fill: #033164" transform="translate(90.75 349.631176) scale(0.1 -0.1)">
      <use xlink:href="#DejaVuSans-42"/>
      <use xlink:href="#DejaVuSans-6f" x="68.603516"/>
      <use xlink:href="#DejaVuSans-72" x="129.785156"/>
      <use xlink:href="#DejaVuSans-75" x="170.898438"/>
      <use xlink:href="#DejaVuSans-73" x="234.277344"/>
      <use xlink:href="#DejaVuSans-73" x="286.376953"/>
      <use xlink:href="#DejaVuSans-69" x="338.476562"/>
      <use xlink:href="#DejaVuSans-61" x="366.259766"/>
      <use xlink:href="#DejaVuSans-20" x="427.539062"/>
      <use xlink:href="#DejaVuSans-44" x="459.326172"/>
      <use xlink:href="#DejaVuSans-6f" x="536.328125"/>
      <use xlink:href="#DejaVuSans-72" x="597.509766"/>
      <use xlink:href="#DejaVuSans-74" x="638.623047"/>
      <use xlink:href="#DejaVuSans-6d" x="677.832031"/>
      <use xlink:href="#DejaVuSans-75" x="775.244141"/>
      <use xlink:href="#DejaVuSans-6e" x="838.623047"/>
      <use xlink:href="#DejaVuSans-64" x="902.001953"/>
     </g>
    </g>
   </g>
  </g>
 </g>
 <defs>
  <clipPath id="pd13ea4cceb">
   <rect x="53.75" y="27.6" width="583.45" height="333.110864"/>
  </clipPath>
 </defs>
</svg>
